<?xml version="1.0" encoding="UTF-8"?>
<svg id="Layer_1" data-name="Layer 1" xmlns="http://www.w3.org/2000/svg" viewBox="0 0 512 512">
  <path d="M375.98,393.49c-9.23.96-10.77,11.46-21.61,8.84-5.8-1.41.14-26.32-5.56-28.09-5.77-1.27-4.74,4.9-9.45,6.25-5.62,1.6-20.39,1.68-25.37-1.19-4.09-2.36-4.27-7.84-8.92-8.56-5.12,1.21-5.47,22.59-6.41,27.74-9.84,6.04-12.72-4.63-20.74-6.73-8.62,19.34-21.14,44.69-34.33,61.14-11.83,14.75-21.65,15.86-39.24,11.53-28.29-6.98-56.21-20.4-84.09-28.01-7.47-2.04-29.97-9.58-34.85-3.32-3.14,4.03-11.46,22.41-8.69,26.73,1.35,2.1,14.84,1.46,12.98,9.03-3.1,6.65-29.91,3.77-32.21-2.95-1.98-5.78.07-26.7-.21-34.82-.25-7.05-6.91-33.98,4.34-35.92,6.22-1.07,30.3,6.49,40.18,7.16,10.95.75,25.86.54,36.92,0,16.55-.81,22.19-6.68,40.52-.37,19.26,6.63,18.56,16.8,30.33,30.08-8.92-23.53-10.43-46.08-.32-69.52,2.14-4.97,9.97-14.6,10.13-18.91s-5.66-12.58-6.3-19.28c-2.01-21.1,13.11-44.11,28.91-56.93,4.52-3.67,9.43-4.03,13.9-8.87,33.07-35.73,7.17-88.52,34.3-123.34,5.89-7.57,27.97-24.78,29.44-31.98,1.73-8.51-5.84-16.89-6.71-25.85-4.57-47.17,61.94-46.91,67.9-13.6.9,5.05-.28,10.21.78,14.99.95,4.29,6.69,8.31,6.3,12.35-.27,2.76-4.49,6.65-5.79,9.89-2.2,5.49-2.5,15.29-9.11,17.16-3.48.99-7.82-.62-11.02,1.24s-9.07,16.17-9.78,20.1c-1.92,10.55,3.77,10.2,7.76,16.96,4.65,7.87,9.94,30.93,8.9,39.84-1.27,10.79-9.08,14.03-11.27,20.44-2.77,8.11-2.01,22.42-10.43,31.45l-11.43,13.95c21.15.81,48.51,3.59,68.36,11.33,9.99,3.9,23.14,14.34,22.6,26.06-.89,19.42-13.11,49.98-16.89,70.85-1.9,10.48-7.33,44.95-5.39,53.42,3.06,13.34,32.85,19,44.03,24.26,4.03,1.9,16.87,8.03,6.46,11.11-12.14,3.59-33.45-3.15-46.5-2.78-7.43.21-28.04,9.07-34.26.73-6.63-8.9,1.87-19.46,1.87-25.96v-37.66ZM305.95,365.47c3.66,2.58,10.87-18.77-.9-17.62-9.78.95-1.3,13.45.9,17.62Z"/>
</svg>