<?xml version="1.0" encoding="UTF-8"?>
<svg id="Layer_1" data-name="Layer 1" xmlns="http://www.w3.org/2000/svg" viewBox="0 0 512 512">
  <path d="M326.73,265.49c10.77,1.46,56.41,23.27,63.89,30.99,11.75,12.13,9.21,19.94,7.2,34.92-3.34,24.94-11.97,48.83-16.25,73.46-1.14,6.57-4.09,20.95-3.57,26.69,1.46,16.23,41.12,21.58,49.13,31.09,1.9,2.26,2.39,5.25,2.24,8.12-3.41,3.3-37.24-6.26-43.97-6.9-10.01-.96-31.14,6.62-36.76-2.91-4.98-8.45,3.27-21.29,4.34-31.2,3.43-31.72-20.75-58.18-4.44-87.26l18.71-18.36c-18.46,9.69-35.74,18.04-57.33,15.08-7.73-1.06-18.83-7.38-24.87-7.69-2.49-.13-16.85,4.73-18.82,6.34-4.03,3.3,1.27,16.38,1,23.28-.62,16.36-16.92,64.89-28.24,76.23-5.15,5.16-13.26,9.67-20.71,9.13-8.98-.64-29.11-5.63-38.74-7.97-23.84-5.79-46.36-15.63-70.23-21.35l-2.73,1.1c-.7,8.13-8.75,17.95-2.45,24.94,1.1,1.23,15.44,7.8,9.6,11.2-2.95,1.72-28.78-1.51-31.71-4.21-1.58-1.45-2.61-8.84-2.82-11.4-.85-10.15-2.7-32.13-1.74-41.37.32-3.13,1.34-9.94,4.55-11.04,4.09-1.39,34.92,8.62,44.6,8.59,15.59-.05,34.01-10.15,48.32-8.76,10.01.97,18.22,7.56,26.71,12.07-3.6-12.15-5.18-24.06-2.98-36.65,1.25-7.16,6.82-16.9,6.58-22.83-.4-9.73-9.76-16.5-8.56-32.58,1.62-21.6,16.61-35.26,29.13-50.21-13.15-10.68-39.81-31.76-45.65-47.57-5.03-13.62,18.77-46.46,29.22-55.17,11.84-9.87,27.45-13.12,40.44-23.39,5.87-4.64,26.32-23.76,25.7-30.48-.53-5.69-6.81-14.69-7.88-21.54-5.97-38.3,49.05-48.58,61.72-18.6,3.45,8.16,2.08,13.43,3.76,20.39.83,3.44,4.82,6.19,4.82,8.97s-3.72,5.1-4.42,7.66c-1.41,5.14.22,12.01-4.11,16.13-3.77,3.59-17.06,2.31-18.85,9.33-.96,3.77,8.1,14.8,10.46,20.03,5.96,13.22,13.91,39.81,7.54,53.05-5.51,11.44-5,9.36-8.64,22.42-5.02,18.05-12.5,31.32-19.93,48.21,8.44.8,18.56-1.11,26.74,0ZM230.78,201.88c-3.13-.85-10.36-.9-9.9,3.79,5.97,10.13,9.07,22.95,18.72,30.49l-8.82-34.28Z"/>
</svg>