<?xml version="1.0" encoding="UTF-8"?>
<svg id="Layer_1" data-name="Layer 1" xmlns="http://www.w3.org/2000/svg" viewBox="0 0 512 512">
  <path d="M293.83,409.77c20.79-27.02,48.63-12.41,76.24-15.33,8.04-.85,17.36-4.18,25.02-6.91,12.83-4.58,22.63-17.59,27.7,3.34,3.72,15.34,4.56,34.32,8.02,50.06-.71,7.79-13.26,17.64-21.03,17.57-.92-5.97,5.22-9.89,6.05-15.05.97-6-13.96-27.47-20.56-28.19-5.26-.58-31.21,9.2-38.02,11.74-21.08,7.86-49.66,24.14-70.51,28.64-24.28,5.24-33.11-13.04-43.64-31.3-7.65-13.27-15.17-29.48-19.78-44.07-1.77-5.59-2.36-18.21-5.02-21.86-1.02-1.4-11.11-8.34-13.06-8.78-13.16-3-29.22,2.9-44.64-.73-4.09-.96-6.99-4.74-11.29-4.65,7.56,21.44-.36,44.09,1.7,66.34,1.62,17.52,13,30.61,11.44,47.64-.92,1.52-15,5.13-17.61,5.2-13.24.38-32.2,1.05-45.18.19-7.38-.49-27.38-1.49-23.3-11.96,12.95-5.21,28.84-6.58,41.45-12.04,3.64-1.58,9.05-2.74,9.74-7.2.64-4.17-8.01-27.91-10.14-33.6-7.98-21.28-32.16-66.85-32.1-87.37.08-24.78,44.84-32.63,63.65-35.62s35.09-2.15,52.43,4.55c2.08-2.74-12.79-48.27-13.33-56.54-.35-5.33,2.28-9.65,1.31-14.48-.73-3.61-4.71-6.36-5.69-9.56-2.44-8.03,1.91-30.59,5.6-38.25,2.59-5.38,12.27-11.04,13.46-15.11,1.07-3.64.66-12.21.14-16.26-2.3-17.88-13.56-9.59-17.48-16.13-1.95-3.26-.17-9.69-1.14-13.98-.74-3.29-4.54-5.69-4.4-8.44.21-4.06,6.11-8.92,7.65-12.51,1.65-3.85,1.7-8.99,3.46-13.33,7.55-18.64,26.01-20.7,43.51-14.26,15.43,5.68,11.77,12.1,19.77,20.56,5.13,5.43,12.95,7.28,18.46,15.15,7.62,10.88,3.59,17.67,6.85,25.08,2,4.53,13.56,7.04,18.3,11.95,4.91,5.09,10.06,16.74,9.08,23.76-2.04,14.55-17.74,21.34-19.57,27.72-1.38,4.8,2.67,13.28,1.02,21.09-.32,1.52-10.93,27.28-11.69,28.63-1.99,3.55-8.98,5.79-10.58,9.59-3.18,7.58-2.59,30.76-.14,38.73,1.04,3.36,7.3,9.55,9.63,13.9,7.87,14.68,16.02,27.76,12.77,45.27-1.07,5.76-7.99,12.84-7.63,16.92.3,3.4,7.13,13.31,8.84,17.94,5.48,14.81,6.04,26.43,4.24,41.99Z"/>
</svg>