<?xml version="1.0" encoding="UTF-8"?>
<svg id="Layer_1" data-name="Layer 1" xmlns="http://www.w3.org/2000/svg" viewBox="0 0 512 512">
  <path d="M308.36,147.25c-.58-.24-3.44-6.34-8.37-6.47-3.94-.1-9.79,6.8-17.66,6.14-4.69-.4-9.08-6.24-12.28-6.24s-8.34,7.22-12.72,8.39c-11.07,2.95-22.27-8.19-24.93,10.28-1.13,7.84-3.83,27.94-3.82,35.03.01,5.85,3.5,12.6,3.37,17.67s-3.58,8.82-3.29,15.7c.62,14.43,12.12,31.7,15.79,45.95,8.29,32.14-6.63,53.28-8.29,83.05-.25,4.42,1.99,8.49,1.38,13.58-1.87,15.6-11.3,48.63-8.79,61.64,2.62,13.57,31.11,14.43,31.63,29.07-10.11.49-19.47-3.5-29.24-5.06-5.04-.81-21.2,1.27-23.32-4.85-2.37-6.84,3.85-19.01,3.32-27.86-.86-14.37-12.61-33.09-12.19-45.67.37-11.19,12.12-27.66,12.27-33.54.07-2.77-4.96-20.47-8.9-16.78-3.85,14.86-11.22,28.87-15.36,43.62s-12.98,51.63-12.96,66.39c0,4.4,1.71,10.05,3.93,13.82,2.62,4.47,24.71,22.01,20.85,25.78-10.32,2.99-42.48-5.63-44.05-16.8-.71-5.07,2.85-9.37,3.42-14.13,2.81-23.24-13.15-53-4.66-75.08,3.03-7.89,14.21-18.48,15.28-25.21,1.76-11.01-8.46-28.77-8.76-42.24-.19-8.58,2.97-16.35,1.66-26.15-.96-7.14-6.94-16.11-6.76-22.84.38-14.58,7.9-29.38,12.26-42.36,8.08-24.06-4.4-25.37-12.43-44.02-5.34-12.39-7.5-28.44-13.75-41.02-2.02-16.99,42.47-25.75,39.84-44.81-2.15-15.62-16.76-31.82,6.78-43.32,26.86-13.12,37.42,16.86,33.26,38.56-2.25,11.78-18.82,17.33-5.71,24.88,19.14,11.02,15.81-7.05,32.01-7.53,9.83-.3,14.1,6.58,17.61,6.6,4.67.03,9.27-10.73,20.91-9.9,9.4.67,13.05,9.6,16.31,10.22,5.84,1.13,10.83-14,28.66-2.26,2.61,1.72,5.26,6.1,7.1,6.92,4.22,1.88,16.72-10.42,29.13,6.13,12.97,17.29-4.58,47.64-25.27,41.1-5.76-1.82-11.73-10.63-13.46-10.75-2.24-.16-9.84,8.57-19.82,4.38Z"/>
</svg>