<?xml version="1.0" encoding="UTF-8"?>
<svg id="Layer_1" data-name="Layer 1" xmlns="http://www.w3.org/2000/svg" viewBox="0 0 512 512">
  <path d="M374.48,67.84c-13.33,4.12-28.72,3.81-41.8,7.03-8.42,2.07-14.7,7.43-22.25,9.64-10.1,2.96-22.83,2.06-32.34,4.88-16.8,4.98-21.77,28.24-46.63,6-9.17-8.2,3.86-15.82,4.24-27.26.58-17.43-13.01-42.43-32.67-30.69-9.17,5.48-8.99,16.69-11.22,26.33-.9,3.87-.42,7.95,1.54,11.4,7.85,13.78,5.58,20.51-11.09,30.02-7.74,4.42-18.75,5.67-25.6,11.61-3.37,2.92-22.24,24.83-24.5,28.65-1.77,3-12.15,25.77-12.54,27.96-2.26,12.59,17.02,37.18,22.42,48.6,2.92,6.17,8.1,27.91,9.38,29.6,3.6,4.77,14.96-.61,15.12.86-7.91,20.91-15.7,40.53-15.3,63.47.59,33.31,4.44,24.98-7.33,57.43-10.63,29.31.08,48.62-6.56,74.94-3.29,13.03-7.93,14.86-17.83,22.94-3.84,7.45,14.94,5.79,19.14,4.96,19.74-3.92,13.87-19.31,15.65-33.97,2.11-17.46,14.16-30.55,19.63-45.93,4.08-11.49,1.23-12,1.31-21.57.14-16.07,16.55-45.96,22.23-62.97,4.32-12.95,6.27-23.79,9.55-36.61.67-2.61-1.13-4.72,2.9-4.11,3.54.54,3.29,1.5,4.57,4.3,3.52,7.74,5.38,22.38,8.69,32.07,5.53,16.18,19.32,42.64,22.29,57.44,1.78,8.89,0,17.66,1.57,26.78,2.56,14.97,15.91,29.72,19.67,45.89,3.32,14.29-2.13,31.61,13.2,38.17,7.82,3.35,13.26,1.44,21.27.89,2.95-2.83-12.59-17.51-14.56-21.76-10.13-21.98,1.11-44.19-3.4-65.7-3.66-17.43-14.84-28.34-15.12-47.31-.45-29.15,5.17-37.85-5.1-68.91-9.52-28.82-14.53-34.34-14.81-66.53-.04-4.91-2.32-9.8-1.93-14,.77-8.26,13.02-20.81,15.15-31.07,1.72-8.28-.58-16.92.77-24.04,1.62-8.52,33.76-15.98,41.97-20.05,5.51-2.73,9.96-8.53,14.24-10.56,6.47-3.05,16.11-4.05,24.17-7.73,4.9-2.23,29.09-20.94,30.8-11.34.62,7.12-4.69,10.83-6.79,15.11l-.06.12-73.34,145.31.96.45,77.81-143.71c.64-1.17,1.66-2.09,2.9-2.59.32-.13.61-.24.85-.33,24.72-3.72,23.24-29.59-1.22-34.11ZM173.45,208.16c-.18,6.57,3.61,12.01.07,18.55-20.55-2.6-21.07-29.3-29.75-43.72l21.86-27.07c3.77,3.32.36,7.35,1.26,12.81,1.23,7.44,7.94,15.87,8.59,23.48.5,5.94-1.89,10.59-2.03,15.95Z"/>
</svg>