<?xml version="1.0" encoding="UTF-8"?>
<svg id="Layer_1" data-name="Layer 1" xmlns="http://www.w3.org/2000/svg" viewBox="0 0 512 512">
  <path d="M254.31,449.93c-5.72-1.78.5-18.1.82-22.89,1.7-25.78-16.44-38.27-8.88-64.77,3.22-11.28,9.31-16.8,6.75-29.63-1.49-7.44-4.8-5.57-7.53.05-10.06,20.69-19.82,66.11-20.88,89.22-1.32,29.07,8.02,24.51,23.75,44.13-.25,5.24-21.81,1.41-25.71.33-25.65-7.08-12.95-20.78-14.91-40.98-2.07-21.33-15.18-39.81-4.31-61.93,2.61-5.32,12.25-15.2,12.31-20.73.1-8.96-6.7-21.65-7.8-31.02-1.39-11.86,1.13-25.4-.17-37.09-.67-5.98-4.62-11.87-4.8-16.87-.69-19.27,7.49-29.83,12.44-44.9,7.41-22.58-10.79-28.79-15.37-45.67-.92-3.41-5.29-19.67-5.46-21.66-.34-3.94,4.33-15.87-1.34-17.2-7.19,4.64-15.33-1.36-20.21-1.21-4.3.13-8.81,6.75-16.64,4.16-5.43-1.8-4.75-13.69-7.03-16.71-1.68-2.23-8.26-2.15-11.51-3.73-4.17-2.02-6.85-9.29-10.48-4.65-2.27,2.91-2.2,9.23-6.06,12.56-11.46,9.9-23.27-12.17-23.5-22.12-.46-19.96,35.4-47.74,33.97-11.9l2.23,2.35c9.09-4.25,14.09,1.27,21.94,3.94,2.36-.35,3.34-14.03,15.31-11.99,9.73,1.65,7.36,16.41,13.96,18.32,9.95,2.87,27.5.33,38.36,1.73,9.65-3.29.18-22.92-.43-29.56-2.6-28.26,39.59-35.31,43.78-8.15.86,5.57.72,19.33-.29,24.9-1.6,8.78-10.18,10.93-9.75,19.87,7.63,1.59,14.04-3.48,21.15-3.51,8.11-.04,17.66,5.67,25.4,5.32,5.32-.24,8.09-3.92,12.24-4.8,10.14-2.17,24.67,2.15,35.17,3.02,5.15-.47,10.32-15.72,23.67-15.35,4.63.13,21.49,7.56,25.23,10.49,9.99,7.82,10.36,21.37,2.77,31.08-14.61,18.69-39.1,2.45-49.9-12.16-3.81-.44-19,10.06-25.91,11.01-5.42.74-10.41-1.61-16.41-1.4-7.73.27-17.1,3.73-25.19,3.7l-2.6,2.49c2.81,11.03-3.9,20.15-5.21,28.67-2.79,18.21-.19,33.95-.73,50.45-.44,13.4-3.43,14.78,1.11,30.27,7.39,25.2,17.53,36.95,11.01,66.17-5.97,26.71-7.11,31.77-8.08,59.57-.48,13.78-12.21,47.56-7.6,58.47,3.8,9,31.09,14.43,31.31,22.88-6.55,6.87-19.77-2.52-24.58-2.52-5.55,0-21.7,1.15-25.41,0Z"/>
</svg>