<?xml version="1.0" encoding="UTF-8"?>
<svg id="Layer_1" data-name="Layer 1" xmlns="http://www.w3.org/2000/svg" viewBox="0 0 512 512">
  <path d="M343.74,66.81c10.94,10.95,9.03,41.58,1.97,54.13-2.69,4.79-8.25,4.53-8.36,9.98,5.5-.4,14.75-.43,19.7-2.15,5.6-1.95,5.13-9.65,14.83-5.28,3.74,1.69,5.62,7.02,10.92,5.69,2.47-23.59,20.63-46.74,46.18-34.8,16.63,7.78,17.57,29.5,22.02,32.19,6.52,3.94,31.98-8.24,19.91,11.11l-19.98,1.01c-10.91,49.21-59.32,49.06-68.98-.76-9.86,18.09-16.77,37.74-26.21,56-3.28,6.35-8.35,11.77-11.7,18.03-10.13,18.92-17.37,36.15-22.44,57.13,6.58.12,11.68-5.21,18.35-5.24,19.84-.09,46.37,21.21,59.57,34.92,19.04,19.75,11.19,31.47,1.64,54.28-4.87,11.63-30.14,54.75-30.24,62.47-.13,9.61,35.71,17.59,34.77,29.36-.17,2.08-.94,3.55-3.03,4.22-9.47,3.08-24.1-8.59-31.66-9.99-6.43-1.19-18.32,4.08-25.03-3.25-7.1-7.76,1.8-17.57,4.1-25.43,1.81-6.17,4.3-15.26,4.72-21.5.81-12.21-3.5-24.36-1.6-36.6,1.22-7.89,8.58-13.45,12.13-20.21l-29.73-1.77-1.99,96.85-2.71,2.54-32.04,7.34c-4.87,5.71,29.51,26.87,26.23,36.71-21.91,1.95-47.63-3.08-52.62-27.81-10.68-.83-19.26,6.15-30.27,4.98-8.98-.96-59.1-17.34-67.55-21.75-1.92-1-4.2-1.29-4.95-3.8l-1.79-111.43,2.68-2.57,66.3-10.67c2.01-12.65-1.13-24.43,3.43-36.8,5.35-14.51,22.12-17.4,19.73-37.19-.17-1.4-3.51-12.75-4.02-13.61-1.73-2.91-2.2-.84-3.79-.29-10.05,3.51-33.55,20.59-43.84,12.04-3.53-2.93-8.96-22.05-10.12-27.46-2.79-13.07-2.34-26.24-6.59-38.89s-6.7-14.94-20.53-13.6c-1.3,60.24-56.23,64.42-66.37,4.22-18.08-.62-45.03,4.09-62.2,1.04-1.42-.25-2.75-.38-3.61-1.74-.3-.36-.65-7.17-.47-7.96.85-3.73,1.87-5.23,5.89-6.01,8.93-1.73,58.19,2.11,60.28-.06-1.29-40.63,41.82-68.55,61.28-21.9,2.03,4.87,4.62,21.31,7.38,22.46,10.06,1.55,28.85-14.47,36.96-9.1,2.39,1.58,3.3,5.08,5.65,6.62,5.81,3.81,9.66.18,15.48.11,17.73-.22,37.32,2.94,53.49-4.22,32.33-14.32,3.43-30.05,13.6-52.88,7.47-16.77,32.25-21.66,45.2-8.7ZM357.91,141.84c-2.38-2.38-8.54-2.19-11.82-2.15-2.06,1.76,13.13,19.82,14,13.1.02-3.09.04-8.73-2.18-10.95ZM251.63,143.18h-32.36c-14.33,12.73-3.99,30.12,3.53,43.73,8.35,1.97,21.77-38.23,28.83-43.73Z"/>
</svg>