<?xml version="1.0" encoding="UTF-8"?>
<svg id="Layer_1" data-name="Layer 1" xmlns="http://www.w3.org/2000/svg" viewBox="0 0 512 512">
  <path d="M223.83,27.35c1.95-1.41,3.21.59,4.47,2.64,2.24,3.65,6.14,16.86,6.53,21.35s-6.55,10.8-7.46,18.25c-1.38,11.34,2.75,15.31,3.78,23.98.8,6.72-1.62,18.22.21,23.77,2.36,7.15,15.1-1.26,21.89,2.1,4.54,2.25,9.61,16.09,11.09,21.22,4.05.71,3.67-.34,4.58-3.6,1.98-7.1-.04-14,1.34-20.88,1.65-8.21,9.92-20.06,11.67-30.75,1.26-7.67-1.42-15.32-.66-19.06.49-2.38,8.37-14,13.89-17.53,1.84-1.18,4.25.12,4.32,2.3.24,7.48-.42,14.59-2.17,21.98-1.26,5.34-6.28,13.19-6.64,17.07-.46,4.92,4.06,12.97,4.35,18.45.38,7.22-5.61,38.68-8.03,46.42-2.13,6.83-9.53,15.73-9.52,21.59,0,6.72,7.1,14.83,7.29,23.99.27,13.37-5.13,30-5.71,42.51-.35,7.52-.08,21.36.15,29.15.68,23.08,15.15,30.25,8.19,60.27-7.8,33.62-22.13,72.39-19.15,107.68,1.2,14.24,7.36,27.61,8.98,41.74-8.7,3.83-20.98-30.8-25.81-25.81l11.05,29.5c-16.68,2.19-28.69-15.43-32.36-29.47-2.38-9.09,2.95-9.88,2.95-17.43,0-13.22-11.39-31.9-11.23-44.48.13-10.33,12.45-21.99,12.85-31.45.35-8.21-6.87-21.68-7.12-31.52-.35-14.23-.9-29.86-.94-43.99-.04-14.24,9.44-29.14,8.28-42.43-.93-10.67-19.07-32.18-21.79-46.56-2.08-10.95,2.15-19.47,1.46-29.04-.6-8.42-7.76-15.32-7.31-23.91.31-5.88,5-14.83,5.4-22.31,1.55-28.53-.07-50.83,6.14-80.54,1.02-4.89,1.11-12.36,5.06-15.21ZM249.51,417.45c-6.26-6.02-2.49,17.02-1.72,19.27,1.03,3.01,1.35,5.38,5.43,4.7l-3.71-23.97Z"/>
</svg>