<?xml version="1.0" encoding="UTF-8"?>
<svg id="Layer_1" data-name="Layer 1" xmlns="http://www.w3.org/2000/svg" viewBox="0 0 512 512">
  <path d="M380.85,430.8l8.02-37.47c-12.82-17.76,4.6-42.5,3.97-61.39-.45-13.58-15.07-24.94-16.04-35.34-.83-8.94,4.42-15.75,5.35-24.74,1.13-10.9-2.59-22.42-1.64-31.54.65-6.25,5.3-10.85,5.34-17.82.13-19.97-15.74-36.03-14.29-52.96.84-9.81,8.73-19.09,10.24-28.71.7-4.45-.92-8.08-.44-11.26.83-5.52,4.28-12.45,4.4-18.38.12-6.42-5.73-13.48-5.22-15.6.67-2.81,9.07-4.24,8.66-8.95.05-2.45-11.08-17.22-13.08-18.7-8.47-6.27-15.02,6.15-23.95,3.64-2.02-1.81,17.11-21.08-6.5-33.19-8.1-4.16-10.88-5.01-18.8-.02-11.18,7.05-7.86,16-10.3,18.8-.59.68-8.98,1.8-11.86,3.15-7.39,3.46-26.41,17.48-32.7,16.61-3.14-.44-5.82-3.83-9.42-4.88-6.19-1.8-13.16-1.35-18.18-2.99-6.08-1.99-5.95-9.12-15.32-4.96-2.98,1.33-15.46,11.28-12.81,14.54,13.51.13,20.9,5.63,20.44,19.54l-76.1,22.81c-3.94,7.58,5.08,9.18,6.2,15.07.72,3.77.71,33.98-.21,36.78-3.47,6.47-18.49.67-22.51,3.06l1.13,8.66,21.63,1.77v219.71c-8.61,6.73-49.65,6.31-53.85,15-6.97,14.46,13.22,18.73,21.66,9.16,49.47,10.46,100.14,21.76,149.04,35.46,7.93,2.22,33.72,13.33,39.01,11.63,12.2-16.65,3.59-24.26-13.87-27.94-1.47-2.68-1.85-11.32,1.75-11.97,15.93,3.83,32.38,5.7,48.29,9.57,8.8,2.14,27.22,10.26,33.67,10.24,2.67,0,4.59-.42,6.38-2.59l.08-17.78-18.19-5.99ZM253.8,77.25c17.4,2.74,8.05,13.78-3.95,15.51-2.04-7.96-11.57-17.95,3.95-15.51ZM219.82,399.83l-35.29,3.53v-217.06h35.29v213.53ZM295.58,447.36c-1.33,1.26-12.72-2.19-15.03-3.25-2.05-.94-3.23.86-2.49-3.69l16.62-1.71c3.39.41,1.48,8.1.9,8.65ZM237.47,405.1c-2.88-2.66.29-3.11,2.67-3.47,18.59-2.76,37.22-4.75,55.56-8.86.54,7.62-1.56,15.79,1.77,22.92l-60-10.59ZM244.52,282.46c-.48,5.65-.83,11.65-7.05,9.72v-105.88h8.83c-4.91,31.54.93,64.44-1.79,96.17ZM269.02,277.39c-.15-1.43-.49-5.66-1.54-8.1v-66.95l2.5.02,1.02-16.08h8.83v99.72c0,5.23-6.59,4.92-10.6,4.42,0-4.34.25-8.68-.21-13.03ZM265.71,267.77l-1.76,22.65-12.35-.02-1.78-88.23,15.88.16v65.45ZM285.12,277.18v-90c0-3.5,10.59-3.5,10.59,0v105c-7.4,2.21-10.59-9.61-10.59-15ZM222.6,163.24l-2.78,10.69h-35.29v-41.47c.91-2.98,15.95-7.13,19.82-8.41,6.54-2.17,32.7-10.19,37.67-10.05,5.18.15,8.66,18.98,21.79,22.11,5.69,1.35,16.26,1.36,22.16.74,5.46-.57,17.66-6.22,20.34-4.5,2.49,3.56,4.41,7.64,6.12,11.61,7.89,18.36,10.21,55.09,5.73,74.48-.6,2.59-1.87,9.46-4.81,10.19v-57.35c0-.91-2.02-4.07-2.17-5.78-29-4.73-59.16-.88-88.58-2.27ZM324.38,413.5c-3.91,5.49-10.17,8.52-11.11-.35-1.36-12.76-1.56-34.26-1.75-47.66-.4-28.14,3.88-56.1.08-83.89,6.55-1.19,7.11,3.39,8.32,8.43,4.27,17.73,3.82,35.93,6.03,53.98,2.67,21.89,13.19,48.77-1.57,69.5ZM348.66,412.17c-.83-5.92,6.17-3.08,7.11-9.81.99-7.1-4.73-8.1-6.34-13.02-4.83-14.72,9.42-33.7,9.89-46.92.54-15.31-12.49-32.3-13.5-44.83-.2-2.49,1.44-4.1,3.68-3.64,7.49,1.53,17.38,53.92,18.35,62.85,1.83,16.92,4.08,54.51-19.19,55.38Z"/>
</svg>