<?xml version="1.0" encoding="UTF-8"?>
<svg id="Layer_1" data-name="Layer 1" xmlns="http://www.w3.org/2000/svg" viewBox="0 0 512 512">
  <path d="M111.55,308.6c-4.91-18.28,5.43-17.91,20.04-20.06-5.11-11.75-8.14-24.62-6.69-37.56,1.25-11.16,10.17-23.53,10.02-35.89-16.81-.97-23.93,7.93-30.85-11.73-1.6-4.55-7.32-30.31-7.34-34.19s3.81-10.36,4.66-15.17c1.63-9.15-1.94-12.73,4.43-22.29,8.35-12.55,31.19-17.7,38.23-28.56,9.26-14.3-9.66-32.96,6.03-49.07,15.24-15.64,40.19-3.85,41.52,16.82.39,6.09-2.26,21.06-4.42,26.96-2.38,6.5-7.63,9.6-8.75,16,14.19,9.09,27.31,8.32,32.83,27.4,3.48,12.04-.18,21.74,9.73,33.7,12.15,14.65,20.38-11.43,40.76-.67,15.42,8.14,10.36,14.45,14.59,27.15,2.61,7.84,13.69,26.4,8,33.61-2.14,2.72-6.67,2.84-7.21,3.68-2.07,3.24,2.64,26.47,3.06,32.33.36,5-1.74,32.15,2.49,32.47,6.15.46,7.79-7.31,10.11-9.87,5.9-6.51,30.33-4.75,39.18-5.07,1.12-1.18,1.22-26.99,3.45-32.38,1.89-4.55,4.79-4.57,6.18-7.18,3.4-6.42,13.52-42.36,15.68-43.66l9.76-.29-23.4,83.48c1.35,1.91,36.89,4.4,41.91,10.72,10.15,12.79-18.65,12.39-23.46,15.25-6.15,3.66-6.99,14.05-20.82,7.66-1.42.31-1.73,1.48-2.33,2.57-2.21,4-10.65,46.52-10.46,51.52.29,7.47,5.64,5.01,10.14,8.34,8.58,6.35-6.01,28.1-3.15,36.49.86,2.52,17.57,5.79,20.74,5.76,11.92-.12,40.03-14.94,50.03-2.98,2.12,2.53,2.95,6.86,5.17,9.86,2.33,3.17,9.04,3.6,7.4,10.11-14.13,6.06-28.94-2.83-42.13-1.23-10.24,1.24-22.01,7.78-33.01,7.94l3.34,15.01c-18.06,1.93-34.34-3.61-51.76-6.69-3.88-4.68,16.31-14.26,15.03-21.67l-108.95-25.5c-8.15-2.41-11.07-11.72-19.21-14.19-11.06-3.36-38.57-.94-49.28,3.34-5.36,2.14-4.64,7.44-7.07,9.63-4.93,4.45-38.9.21-39.23-4.19,10.24-20.32,28.03-17.02,46.9-21.93.79-26.1-5.59-55.18,14.85-75.77h-36.74ZM261.83,191.72c-6.67,4.85-14.32,3.52-20.49,5.37s-12.11,11.06-23.83,11.43c-9.81.31-9.49-9.44-18.26-10.13-3.62.76-.62,10.87.68,12.64l58.71-3.37c5.38.2,4.71-14.8,3.19-15.94ZM240.13,275.21c-12.28,1.35-12.58,5.66-2.49,11.65l2.49-11.65ZM241.81,301.92l-2.51-8.31-12.52,7.49,15.03.82ZM218.42,397.1c-.41-9.41-11.43-15.9-12.69-25-.6-4.34,2.64-6.47,2.74-10.84.2-9.35-6.49-14.61-9.9-21.95-2.82-6.08-4.78-20.76-12.73-22.32-5.25-1.03-14.68-1.57-13.89,5.38.94,8.24,22.21,46.59,27.83,55.81,4.51,7.41,8.87,17.52,18.65,18.91ZM250.16,316.95h-25.88c-6.26,10.99.03,29.26,4.14,40.95,7.99,22.73,18.99,42.2,46.81,33.38l1.73-4.97c-1.73-11.16-22.86-12.04-24.85-18.78s5.43-13.52,5.54-21.35c.13-9.04-4.77-20.64-7.48-29.24ZM319.46,316.95c-12.19-1.64-27.49,1.2-40.08,0l-2.5,2.5v28.39c0,3.71,10.86,28.39,14.15,30.94,5.11,3.97,18,6.39,24.3,4.15,4.61-2.75,8.62-36.4,5.79-40.92-.61-.98-10.54-7.07-7.49-10.03,3.86-3.74,6.98,7.14,10,4.99l1.43-18.11c-1.97.06-4.29-1.75-5.59-1.92ZM168.32,367.04c-.43-2.76-10.15-21.79-13.34-18.35,1.84,9.86-.25,20.53,13.34,18.35ZM311.93,400.46c-3.91-.39-26.28,1.79-25.03,7.48,3.67,4.65,15.2,8.87,20.44,5.89l4.59-13.37Z"/>
</svg>