<?xml version="1.0" encoding="UTF-8"?>
<svg id="Layer_1" data-name="Layer 1" xmlns="http://www.w3.org/2000/svg" viewBox="0 0 512 512">
  <path d="M128.15,468.22l-1.81-3.47c-.37-5.44,24.98-18.92,21.41-22.09-12.75.78-27.33.5-39.87,1.88-11.25,1.23-26.19,9.65-36.82,2.35-1.2-5.71,35.79-18.82,38.84-29.31,2.29-26.65-2.95-53.21-1.42-79.83.53-9.26,3.55-36.43,7.81-43.33,4.52-7.33,20.3-14.21,21.25-19.74l-18.3-109.5c3.19-6.54-2.47-32.9,5.54-32.83,11.48,2.96,1.39,30.86,10.43,33.92,6.9,2.34,19.94-.84,26.82-3.4,5.28-1.96,13.71-8.57,17.69-9.61,7.67-2,10.84,2.64,20.34-1.82,1.87-.88,25.9-17.78,27.06-18.96,2.55-2.6,6.57-12.48,5.64-15.88-.66-2.41-5.57-6.04-6.96-10.22-3.21-9.61-.08-32.27,6.32-40.5,12.19-15.67,23.19-5.63,38.31-3.45-.23-5.65,5.71-13.66,10.75-15.67,4.21-1.68,20.23-2.78,25.9-3.08,14.24-.74,35.52-1.14,49.49.11,15.99,1.43,21.83,8.57,2.59,10.21l3.47,14.41.92,192.03c4.83,2.25,13.83-.27,15.72,6.12,1.23,4.18,1.32,48.61.41,54.09l-17.1,2.69.22,69.63,79.98,14.98c.46,3.36-.35,9.52-4.28,10.14l-69.12-11.25.02,10.23c11.01-2.24,20.54,8.45,7.14,13.22-11.6,4.13-46.21-8.47-61.07-9.61-29.23,3.07-58.17,11.64-86.87,18.47l-.76,9.44c5.15,4.33,15.98,1.13,19.34,8.17l.09,5.88c-3.72,9.42-39.44-3.85-48.32-5.52-5.59-1.05-12.38-3.26-17.96-2.68-6.66.69-18.17,13.78-23.82,13.78h-28.98ZM313.09,142.64l1.36-66.06-2.14-3.57-12.85,1.46.99,11.98-14.53,4.18,4.17,7.67c3.11-5.02,6.47-9.56,12.97-5.79,3.07,5.81.58,11.05.44,16.61-.07,2.56,1.53,5.58,1.25,8.83-.52,6.05-5.91,10.89-3.65,20.17l12,4.52ZM343.79,72.75h-8.52s-.06,80.83-.06,80.83l8.57,4.4v-85.23ZM294.33,123.96c-6.89-3.53-12.11,1.04-9.47,8.57l7.69,1.49,1.78-10.06ZM202.3,261.96c-5.08-13.1,2.03-24.22,1.84-36.67-.13-8.42-2.84-18.69-3.2-27.24-.19-4.55,3.51-11.17.56-16.28l-23.97,3.57c-6.98,1.25-13.47-6.9-20.08-5.27-1.72.42-1.92,4.4-4.62,5.99-3.3,1.95-9.65,2.22-13.57,2.65l11.91,76.68c7.92-.71,12.99-5.93,21.29-6.82,11.37-1.22,19.01,2.72,29.83,3.4ZM314.82,258.54c-2.98-21.75-1.39-43.89-.17-65.32l-13.46-6.25-1.72,71.6,15.36-.03ZM343.79,195.49l-8.54.85c.05,1.69,3.14-.68,3.58,3.28,1.84,16.57-1.76,34.68-.48,53.01.18,2.54-3.72,8.62,4.56,7.63,4.01-.48.89-4.05.89-4.27v-60.51ZM289.26,268.79c-4.18,27.44-3.19,54.94-3.36,82.74-.09,15.46-1.92,27.75-.15,44.33.84,7.94,6.06,8.21,6.98,0,3.06-27.3-.85-64.26-1.86-92.06-.35-9.65.47-19.41.07-29.07-.09-2.08,1.29-6.34-1.69-5.94ZM313.1,321.63h-13.65s1.7,80.13,1.7,80.13l11.95-.02c1.84-7.37-4.96-8.74-6.83-14.45.94-1.7,6.82-4.13,6.82-5.15v-60.51ZM343.8,325.03l-8.53.03c3.09,19.23,2.28,41.13.43,60.57l9.79,2.47-1.69-63.07ZM253.43,347.19l-.74-13.74c-2.1-3.01-10.89-1.16-14.59-1.59-1.95,1.69,10.16,17.22,15.32,15.32ZM250.03,365.93c-13.87-11.86-27.66-34.78-47.72-32.36l5.48,25.21,42.25,7.15ZM158.58,356.83c-2.36-2.38-3.53-6.81-7.39-7.93,1.29,15.63-9.96,27.49-14.92,42.2-2.87,8.51-10.13,29.21-2.12,35.35,3.15,2.41,23.5,8.32,25.75,4.99,5.97-20.48,5.75-41.82,8.27-62.85-.42-6.85-6.1-8.26-9.58-11.75ZM249.85,379.76l-23.67-3.59,1.7,49.44,19.67-5.04,2.29-40.81ZM200.6,432.43v-47.73c-11.33,13.5-13.83,33.4-20.45,49.42l20.45-1.69Z"/>
</svg>