<?xml version="1.0" encoding="UTF-8"?>
<svg id="Layer_1" data-name="Layer 1" xmlns="http://www.w3.org/2000/svg" viewBox="0 0 512 512">
  <path d="M99.52,142.29c12.54,18.63,29.91,32.51,36.63,54.85l30.94,19.77c6.55-.1,23.78-19.56,30.44-23.66,7.12-4.39,14.36-4.61,21.2-7.87,4.88-2.33,9.64-8.2,15.85-9.82,5.46-1.42,9.62.83,13.22-.37s23.28-15.97,25.18-19.35c2.28-4.06,2.14-8.9,4.07-13.03,6.14-13.09,13.8-24.05,28.95-27.48,15.86-3.59,28.7-3.9,32.25,14.93,2.1,11.15-10.52,16.34-3.54,25.66,10.16,13.57,31.19,2.92,44.44,1.78,14.89-1.29,50.29,2.79,59.91,15.28,7.46,9.69,2.1,13.43,2.48,21.46s2.31,15.05,1.78,24.01c-.84,14.08-6.55,27.96-8.62,41.82,11.78,4.29,22.76-1.53,34,1.92.62,6.12,1.19,14.45-4.02,18.66-3.94,3.19-21.32,4.83-27.44,5.25-4.08.28-6.94-3.44-9.39.72-.47,3.18,5.48,5.66.39,14.03-12.35,20.34-22.51-11.57-30.31-11.56-13.59,12.03-20.91,13.52-38.47,8.62.86,12.58,4.45,22.55-6.01,32.47-14.23,13.49-21.32.88-27.09,2-1.35.26-5.52,4.82-9.24,6.28-15.73,6.19-27.2-4.78-41.87-6.25l-103.9,73.26c-1.81,2.65,9.61,10.59,12.14,12.62,7.02,5.63,47.38,30.75,48.55,33.46,1.83,4.25-9.7,17.85-14.56,16.53-3.74-1.89-6.59-4.88-9.38-7.89-27.65-29.77-77.09-69.18-113.58-86.51-3.3-1.57-8.75-5.63-9.71-9.23-.82-3.07,4.71-14.53,7.28-15.29,5.02-1.49,24.21,18.34,29.84,22.77,4.59,3.61,28.1,21.62,31.5,21.53l45.73-32.38c6.02-5.24,2.84-15.47-.03-21.87-.84-1.87.36-2.59-2.89-2.14l-35.05,19.74c-21.91-14.06-44.43-26.45-52.75-52.83,1.3-8.7,15.38-11.87,18.57-17.23,2.35-3.95,1.02-7.63,2.39-11.29,3.4-9.07,9.4-14.86,16.26-21.33-11.31-5.96-14.83-17.22-22.24-25.62-3.82-4.33-8.41-6.4-12.01-10.22-15.53-16.51-15.14-45.05-21.27-65.95-2.4-4.57-7.06,6.77-8.3,8.01-15.47,15.44-40.97-8.6-42.23-25.97-.66-9.16,4.47-21.22,13.67-24.06,10.11-3.11,15.65,10.17,25.77,8.86,4.32-15.1,4.97-39.25,27.89-28.09,27.07,13.19,30.57,57.29-7.42,51.03ZM402.2,208.98l-22.2,3.43-1.59,30.04c.13,2.54,10.77,13.38,13.24,17.28,4.93,7.79,11.02,32.48,20.39,16.35,12.36-21.3-9.6-34.39-12.19-52.05-.95-6.46,2.28-9.08,2.36-15.04ZM361.16,222.66c-.76-.87-17.83,10.19-19.97,11.65-5.22,3.55-5.47,6.15,1.12,8.15,10.57,3.21,22.61-8.89,18.85-19.8ZM270.54,284.19l22.84,10c3.96-.75,12.07-15.44,17.29-18.58s30.7-7.33,28.08-17.56c-.92-3.59-12.93-11.75-16.93-10.75-13.38,3.33-33.57,25.77-47.76,31.03l-3.52,5.85ZM251.72,320.15c-2.38.07-4.26-2.17-6.76-.95-1.16.56-19.75,14.5-20.56,15.5-2.14,2.66-2,4.46-1.74,7.65,1.49,1.64,31.77-18.95,29.06-22.2Z"/>
</svg>