<?xml version="1.0" encoding="UTF-8"?>
<svg id="Layer_1" data-name="Layer 1" xmlns="http://www.w3.org/2000/svg" viewBox="0 0 512 512">
  <path d="M446.15,175.23l-20.95-2.57-15.59,19.16c-5.77-.96-17.03,3-18.8-3.94-.88-3.43,2.1-7.88,1.38-8.93-1.48-2.15-36.46-12.33-38.07-10.66.11,3.04.1,6.05-.48,9.07-4.02,20.81-6.59,34.49-6.61,56.07-.01,12.37,13.62,19.23,20.94,27.83,27.19,31.94,26.19,83.32,20.62,122.97-2.2,15.69-11.41,40.74-8.04,55.48,2.89,12.66,32.63,23.22,30.89,31.58s-29.97-6.61-35.05-8.33-17.01-.98-19.73-6.39c-2.96-5.87,3.42-12.65,4.3-18.34,4.24-27.41-19.27-45.35-7.66-73.67,2.72-6.63,12.52-17.77,11.37-23.16-.39-1.82-23.17-18.64-27.86-24.67-8.42-10.82-8.87-23.85-13.81-30.9-2.68-3.82-9.53-6.35-12.65-.69-6.79,12.32-8.99,32.91-16.63,45.88-6.74,11.45-22.74,23.01-30.61,35.38-5.7,8.95-24.42,47.05-23.27,55.84,1.27,9.72,15.88,21.05,22.23,28.25.18,5.67-23.72.63-27.01-.74-3.77-1.57-16.34-13.67-17.38-17.43-1.29-4.67,6.87-16.49,7.81-23.66,2.11-15.97-2.76-39.6,7.08-53.7,5.01-7.17,19.66-14.57,21.81-21.6,2.28-7.45.96-19.68,3.37-29.63,2.27-9.37,8.64-19.03,10.54-27.66,2.85-12.92,2.73-24.07,7.25-37.9,2.32-7.1,7.64-14.5,8.72-20.8,4.81-28.14-15.45-42.36-11.75-69.92-12.13,3.87-29.77,5.3-40.92,10.31-6.5,2.92-11.05,10.73-18.68,14.32s-18.49,3.74-25.02,7.82c-4.53,2.83-16.13,20.45-19.02,21.15-1.56.38-15.57-1.94-17.19-3.09-2.63-1.86-14.71-24.78-14.63-29.67l-62.52,2.61,72.94-6.08c-1.14,11.68,1.65,28.32,13.89,32.99,4.24-4.93-14.26-28.09,6.56-30.93,4.09-.56,7.12,1.23,9.75.94,7.21-.77,19.83-23.53,27.96-29.06,11.67-7.94,33.46-15.14,46.46-21.26,5.78-2.72,12.42-9.33,18.63-10.9,7.84-1.97,14.21-.03,23.1-2.95,33.78-11.1,8.95-27.09,14.24-46.54,4.92-18.08,31.73-24.16,43.35-8.52,7.14,9.62,5.89,37.62-1.75,46.66-5.47,6.47-11.01,3.3-5.77,16.45,7.98,20,16.59,19.82,30.15,30.61,8.04,6.4,13.72,19.6,23.96,22.93,6.97,2.26,12.5.54,19.09,1.75,4.15.76,8.85,3.01,13.34,4.02,5.38,1.21,13.13-1.12,15.73,4.23Z"/>
</svg>