<?xml version="1.0" encoding="UTF-8"?>
<svg id="Layer_1" data-name="Layer 1" xmlns="http://www.w3.org/2000/svg" viewBox="0 0 512 512">
  <path d="M382.71,67.95h-7.81c-1.78,0-3.22-1.44-3.22-3.22v-.9c0-1.78-1.45-3.23-3.24-3.23l-44.08.1c-1.76,0-3.19,1.42-3.22,3.18v.88c-.03,1.77-1.47,3.19-3.24,3.19h-.39c-1.78,0-3.23,1.45-3.23,3.23v.44l-67.27-30.28-.02-.04c-2.67-4.41-6.06-10.79-12.57-8.92-1.14.33-3.15.76-4.24,1.45-5.26,3.32-1.96,9.44.17,12.9l4.6,7.89c2.69,35.92,9.15,122.47,10.93,146.8-3.36,3.13-9.01,5.57-12.14,9.76-3.38,4.53-10.52,2.38-13.92-1.7-3.39-4.08-15.28-7.81-30.56-8.15-15.28-.34-29.89,8.15-41.09,19.02-11.21,10.86-13.59,27.16-20.38,33.96-6.79,6.79-12.4,13.28-11.04,23.37.57,4.19,3.17,9.62,6.57,14.38,3.45,4.83-1.13,16.41-.11,29.66,1.02,13.24,10.18,20.37,9.17,31.24-1.02,10.87-8.49,18.34-8.49,34.98s7.13,22.75,6.79,35.99c-.34,13.25-.36,30.65,5.04,32.18,7.81,2.21,12.14,3.74,24.36,3.4,12.23-.34,16.1-2.98,14.41-6.37-1.7-3.4-14.27-5.44-13.93-7.81.34-2.38,2.04-4.08,15.28-1.02,13.25,3.06,18-1.36,17.32-4.42-.68-3.05-10.52-6.45-16.64-9.84-6.11-3.4-11.88-7.47-12.56-13.93-.68-6.45-.68-29.2-.68-36.67s2.38-15.96,4.75-22.42c2.38-6.45,4.42-11.54,5.78-24.45,1.35-12.9-.68-41.77-1.36-48.9s-5.07-13.98-5.24-19.07c-.17-5.1,1.75-9.51,5.66-9.51s9-1.87,15.62-2.72c6.62-.84,6.71,4.81,8.92,9.74,2.21,4.92,8.49,15.45,14.26,15.79,5.77.34,7.64-1.19,8.83-5.77,1.19-4.59,2.21-9.17,5.94-9,3.74.17,6.63,8.32,11.04,8.32s10.82-5.21,12.23-10.19c1.69-6,7.13-11.55,7.81-15.96.68-4.42,1.35-3.74,6.11-10.19,4.75-6.45,6.11-16.81,6.11-20.89s-9.51-4.07-12.9-5.43c-2.09-.83-4.61-4.76-6.68-7.11-1.56-21.39-6.99-94.17-10.32-138.7l43.21,74.01c1.03,1.77,1.58,3.78,1.58,5.83v298.17c0,1.78-1.44,3.22-3.22,3.22h-7.82c-1.78,0-3.23,1.45-3.23,3.23v10.1c0,.61-.17,1.22-.5,1.74l-5.49,8.65c-1.29,2.04.04,4.72,2.44,4.94l87.46,7.72c.95.08,1.89-.26,2.57-.93l23.48-23.49c2.03-2.03.59-5.5-2.28-5.5h-16.83c-1.79,0-3.23-1.45-3.23-3.23v-58.75c0-.89.36-1.7.94-2.28.58-.58,1.39-.94,2.27-.95,1.78-.01,3.24-1.44,3.24-3.22v-116.15c0-1.78-1.44-3.22-3.22-3.22h-.34c-1.78,0-3.23-1.45-3.23-3.23V85.18c0-1.77,1.42-3.21,3.19-3.23l21.92-.26c1.77-.02,3.19-1.46,3.19-3.23v-7.28c0-1.78-1.45-3.23-3.23-3.23ZM147.83,436.5c-2.31-2.43-1.88-13.77-2.3-17.66-.56-5.32-1.67-12.45-1.72-15.25-.06-2.92.79-9.29,2.04-2.55.62,3.36,2.06,10.07,2.4,15.34.34,5.26,2.52,13.69,3.03,18.28.51,4.58-1.84,3.54-3.45,1.84ZM344.22,82.22h1.07c.82,0,1.48.66,1.48,1.48v4.17c0,.81-.66,1.48-1.48,1.48h-.97c-.81,0-1.47-.64-1.49-1.45l-.1-4.16c-.02-.84.65-1.52,1.49-1.52ZM342.7,112.42c0-.83.67-1.51,1.5-1.51h1.75c.83,0,1.5.68,1.5,1.51v55.06c0,.83-.67,1.5-1.5,1.5h-1.75c-.83,0-1.5-.67-1.5-1.5v-55.06ZM250.78,47.7l63.5,28.58v2.48c0,1.78,1.45,3.23,3.23,3.23h7.36c1.78,0,3.22,1.44,3.22,3.22v77.07c0,4.65-3.8,8.46-8.45,8.46h-11.28c-4.66,0-8.45-3.79-8.45-8.46v-28.52c0-2.11-.58-4.18-1.68-5.98l-47.45-80.08ZM327.87,448.16c0,1.99-1.61,3.59-3.59,3.59h-11.16c-1.98,0-3.59-1.6-3.59-3.59v-.69c0-1.98-1.61-3.59-3.59-3.59h-3.34c-1.98,0-3.59-1.61-3.59-3.59l.31-125.81c.01-4.46,3.63-8.07,8.1-8.07h9.42c1.97,0,3.57,1.59,3.59,3.56l.62,79.65c.01,1.9,1.51,3.46,3.41,3.55.96.05,1.81.47,2.42,1.11.62.65.99,1.52.99,2.48v51.4ZM328.29,266.51c0,2.03-1.67,3.67-3.7,3.67s-3.71,1.66-3.71,3.71v.09l.16,6.94c.05,2.08-1.63,3.8-3.72,3.79l-7.48-.04c-5.64-.03-10.19-4.63-10.17-10.27l.36-74.59c.03-5.63,4.6-10.17,10.23-10.17h8.38c5.68,0,10.27,4.62,10.22,10.3l-.57,66.57ZM348.1,449.25c0,.82-.66,1.48-1.48,1.48h-2.39c-.82,0-1.48-.66-1.48-1.47l-.16-53.1c0-.52.27-1,.72-1.27l2.55-1.53c.99-.6,2.24.12,2.24,1.27v54.62ZM348.3,246.79c0,.91-.74,1.66-1.66,1.66h-2.28c-.92,0-1.66-.75-1.66-1.66v-54.24c0-.92.74-1.66,1.66-1.66h2.28c.92,0,1.66.74,1.66,1.66v54.24Z"/>
</svg>