<?xml version="1.0" encoding="UTF-8"?>
<svg id="Layer_1" data-name="Layer 1" xmlns="http://www.w3.org/2000/svg" viewBox="0 0 512 512">
  <path d="M461.05,327c0,7.62-5.86,19.94-15.24,31.08-9.38,11.13-40.85,6.05-48.08,6.64-7.24.59-22.68,29.51-35.19,40.66-12.5,11.13-30.1,27.17-38.11,27.56-8.01.39-12.7,6.05-23.84,14.65-11.14,8.6-46.12,1.57-52.58-1.76-6.45-3.32-17.59-3.32-22.47.39-4.89,3.72-21.7,9.58-28.93,11.73-7.24,2.15-30.49,1.76-35.19,0-4.68-1.76-21.69-3.13-31.07,4.31-9.39,7.42-28.55,6.64-38.7,8.99-10.16,2.35-19.55,9.38-28.93,9.77-9.38.39-11.34-5.48-11.34-9.77s23.06-28.14,34.39-33.62c11.34-5.47,23.85,0,32.06.39,8.21.39,28.14-10.56,42.21-16.02,14.08-5.48,37.92-18.76,38.7-25.4.78-6.65-22.66-28.93-31.26-33.23-8.6-4.31-23.46-10.62-32.64-21.76-9.19-11.14-13.88-4.31-21.89.97-8.01,5.28-22.86,11.17-28.5,7.79-7.82-4.7,8.96-13.65,13.26-19.12,4.29-5.48-9.58-4.11-12.71-2.94-3.12,1.17-14.07,3.78-16.68.66-2.6-3.13.73-6.88,6.46-11.05,5.73-4.17,9.58-6.61,29.91-6.09,20.32.52,10.94-13.03,10.94-25.54s3.65-27.61,15.11-40.13c11.48-12.51,23.98-19.28,36.49-20.85,12.51-1.57,25.01-3.13,38.57-12.51,13.55-9.38,17.72-13.55,16.68-21.36-1.05-7.83-22.94-36.49-38.06-48.47-15.11-11.99-29.18-13.56-30.23-26.59-1.05-13.03,9.9-29.18,15.63-42.21,5.73-13.03,27.23-46.19,38.06-47.95,8.01-1.3,7.89,13.88,5.93,24.62-1.96,10.75-8.79,26.39-9.19,35.19-.39,8.79,8.21,23.64,15.04,27.36,6.85,3.72,61.18,39.68,78.57,51.02,17.39,11.33,35.79,30.58,36.74,34.79,1.73,7.59-1.3,18.63,4.89,20.72,7.16,2.41,4.85,21.17,2.34,27.75-3.37,8.83-29.5,32.45-40.84,41.83-11.34,9.38-12.9,14.65-8.6,14.46,4.29-.2,16.81-2.54,24.62.78,7.82,3.33,25.6,21.31,30.88,23.26,5.27,1.95,15.24,1.17,14.85-3.13-.39-4.31-1.76-13.88.39-18.37,2.15-4.5,11.12-3.26,11.93-5.48,2.41-6.64,2.94-10.15,15.83-8.73,6.91.77,15.84-5.54,28.54-5.34,12.71.2,25.61,10.75,25.61,10.75,6.84,5.66,15.63,21.7,15.63,29.32Z"/>
</svg>