<?xml version="1.0" encoding="UTF-8"?>
<svg id="Layer_1" data-name="Layer 1" xmlns="http://www.w3.org/2000/svg" viewBox="0 0 512 512">
  <path d="M450.89,334.9c-27.51-17.32-47.89-22.41-51.96-28.86-4.08-6.45,1.02-23.77-8.49-30.23-9.51-6.45-21.4-6.11-25.81-4.41-4.42,1.7-12.23,8.49-18.34-.34-6.11-8.83-31.92-27.17-38.71-27.17s-18.68,5.44-23.77,12.91c-5.1,7.47-5.78,30.9-2.04,37.35,3.73,6.45,6.56,7.11,9.88,14.92s5.06,10.21-6.15,10.89c-11.2.68-20.03,6.45-27.84,4.76-7.81-1.7-24.11-26.49-33.62-30.91-9.51-4.41-57.05-5.09-70.3-2.37-13.24,2.71-21.39,4.41-31.92,4.41s-34.98-7.81-42.79-12.9c-7.81-5.1-19.63-10.24-26.15-8.15-7.77,2.49,2.72,15.96,13.93,26.14,11.2,10.19,15.62,14.27,17.65,18.34,2.04,4.08,8.83,5.1,13.93,3.4,5.09-1.7,8.49-8.15,15.62-6.79,7.13,1.35,18.34,6.11,27.51,15.96,9.17,9.85,19.01,23.43,26.15,23.43s10.86-6.45,20.03-6.45,12.57,3.39,11.89,12.22c-.68,8.83,2.03,15.28,7.81,20.72,5.77,5.43,7.47,18.67,4.07,25.47-3.39,6.79-5.09,28.86,2.38,37.01,7.47,8.15,12.9,15.28,33.96,15.28s28.86-9.84,33.62-12.9c4.75-3.06,12.56,0,22.75-1.02s42.11-3.4,55.7-14.26c13.58-10.87,29.88-37.36,40.07-39.39,10.19-2.04,30.9,2.37,41.43-12.57,10.53-14.94,37.01-27.17,9.51-44.49ZM206.38,325.16c-.45,2.39-3.49,1.49-6.28.8-1.28-.32-3.48-.59-4.33-1.53-1.97-2.17.51-3.14,3.74-2.88,2.28.18,7.4.8,6.87,3.61ZM346.52,303.04c-.15,9.1-7.92,6.16-10.3,1.81-1.31-2.39-2.72-6.23-6-8.83-3.29-2.6-14.03-11.31-8.38-13.47,6.79-2.6,6.61,1.13,16.98,4.75,13.57,4.74,7.92,2.48,7.7,15.74ZM416.76,350.02c-.59.88-3.12,1.35-6,.67-2.83-.66-6.06-3.67-9.62-4.18-3.57-.51-9.17,2.2-12.74,1.86-3.56-.34-6.96-4.92-11.55-7.64-4.58-2.71-5.6-8.66-3.56-9.34,2.04-.68,7.13-6.11,8.66-8.49,1.53-2.37,5.94-1.69,8.32-1.01,2.38.67,5.09,3.56,11.55,7.81,6.45,4.24,14.94,8.32,17.82,11.71,2.89,3.4-1.41,6.4-2.88,8.61Z"/>
</svg>