<?xml version="1.0" encoding="UTF-8"?>
<svg id="Layer_1" data-name="Layer 1" xmlns="http://www.w3.org/2000/svg" viewBox="0 0 512 512">
  <path d="M447.83,399.34c-4.41-.42-4.56-7.38-4.56-11.01,0-3.3-.18-288.54-.22-337.58,0-4.01-3.25-7.26-7.26-7.25-11.15.03-31.56.01-34.74-.48-4.41-.68-43.69-2.83-62.94-3.51-19.24-.68-20.49-1.24-20.71,3.29-.23,4.52-.34,7.69,2.49,7.69s2.09,3.4,2.15,6.68c0,.1,0,.2.01.3L127.51,208.92c-1.04-.19-2.13.02-3.05.61l-32.21,20.87c-1.49.29-3.03.47-4.62.47-9.5,0-18.56-1.81-25.35,6.8-6.79,8.6-10.42,16.3-10.42,25.35s9.06,13.59,13.13,17.66,9.33,13.94,13.9,23.21c6.54,13.24,12.8,15.65,16.87,15.84,6.99.34,18.36-6.84,23.09-21.96,3.12-9.99.82-11.76,6.22-11.66,5.66.12,8.38,6.23,7.5,11.32-1.28,7.48-10.69,11.89-17.99,18.17-7.31,6.29-23.69,16.81-27.68,26.83-2.52,6.34,4.41,32.6,7.47,40.75,3.06,8.15,13.41,34.98,15.79,39.23,2.38,4.24,1.87,11.37-4.07,14.26-5.95,2.88-14.1,7.81-18.34,10.02-4.25,2.2-10.53,6.28-7.64,9.34,2.88,3.05,12.05,4.24,19.86,3.05,7.81-1.19,13.08-3.9,18.85-5.09s15.79-3.06,18.17-4.93c.98-.76,1.12-1.67,1.36-2.47-.8-1.47-1.67-3.75-2.63-6.98-1.82-6.11-5.21-20.66-5.89-26.32-.68-5.66,1.36-13.81,1.58-20.37.23-6.57-5.77-21.13-9.51-27.4-1.89-3.17-2.12-5.09-.99-6.9s3.19-2.19,5.89-2.26c4.3-.11,10.52,11.84,11.58,21.51,1.01,9.34,4.59,21.94,7.3,30.06,2.79,8.37,6.48,13.53,4.07,19.64-.99,2.52-5.75,6.74-6.11,10.75-.23,2.49-.53,4.65-.92,6.35,5.68.19,8.51,2.23,5.98,5.93-2.54,3.74-12.05,10.7-13.24,13.59-1.19,2.88-2.55,8.65,12.4,7.98,14.94-.68,18.84-1.87,23.26-6.63,4.41-4.75,3.73-9.84,5.09-12.56,1.36-2.72,7.3-2.72,9-2.04,1.7.68,9.34,7.3,14.94,7.47,5.61.17,18.68,1.87,18.51-3.05-.17-4.93-.68-12.57-2.04-14.27-1.36-1.7-17.32-.34-20.2-.51-2.89-.17-10.19-3.73-9.85-7.64.34-3.9,0-12.05.17-14.94s.51-5.77,10.7-6.79c10.18-1.02,132.83-22.53,138.27-23.66,5.43-1.13,9.51-.91,9.51,4.08v13.35c0,2.49-1.36,9.96,6.56,10.19,7.93.23,15.42,1.3,22.67-.06,7.24-1.35,10.87-10.41,19.47-10.41s31.44-.17,34.61-.17,2.57,5.35,7.41,5.52,10.96.17,12.57.17,3.06-1.02,2.97-3.57c-.08-2.54.76-6.87-3.65-7.3ZM116.93,224.54l5.72-3.7.06,3.74c-2.26-.03-4.22-.04-5.78-.04ZM343.32,368.64c0,1.99-1.43,3.7-3.4,4.05l-148.5,26.4c-2.5.44-4.8-1.46-4.84-4l-.33-22.37c-.03-2.05,1.46-3.81,3.49-4.13l148.82-23.37c2.5-.4,4.76,1.54,4.76,4.07v19.35ZM343.46,318.26c-11.32,1.36-108.67,13.13-113.65,14.04s-11.32.91-10.41-8.6c.9-9.51,2.71-19.93-1.36-28.53-4.08-8.6-12.23-15.85-14.94-25.81-2.72-9.96-.46-28.52-14.95-36.67-10.38-5.84-38.16-7.49-56.93-7.96l-.2-11.7c-.01-.44-.08-.87-.22-1.27L323.45,61.77c1.88,2.39,5.44,2.89,9.46,2.53,5.09-.45,6.02-1.64,8.51-4.58s3-.34,3.48,6.73c0,0,13.59,235.8,13.96,240.95.35,4.96-4.08,9.5-15.4,10.86ZM399.06,68.86l4.11-.07c2.74-.04,4.95-2.23,5.01-4.97v-.09c.07-2.76,2.33-4.97,5.09-4.97h9.86c2.81,0,5.09,2.28,5.09,5.09v214.36c0,2.83-2.31,5.11-5.13,5.09l-24.31-.2-1.61-214.57c.58.22,1.22.34,1.89.33ZM373.66,62.26c0-2.81,2.28-5.09,5.09-5.09h9.83l1.7,225.86-11.57-.1c-2.8-.02-5.05-2.29-5.05-5.09V62.26ZM423.69,394.5h-21.1c-.42,0-.84-.05-1.25-.15l-23.34-5.64c-2.41-.59-4.11-2.75-4.09-5.23l.17-25.87c.01-2.99,2.48-5.38,5.47-5.31l43.77,1.1c2.86.07,5.16,2.39,5.21,5.25l.5,30.42c.05,2.98-2.35,5.43-5.34,5.43Z"/>
</svg>