<?xml version="1.0" encoding="UTF-8"?>
<svg id="Layer_1" data-name="Layer 1" xmlns="http://www.w3.org/2000/svg" viewBox="0 0 512 512">
  <path d="M429.62,195.44l-46.3-49.46s-5.02-15.9-12-18.34c-3.47-1.22-7.24-.68-12.68-1.36-5.43-.68-3.39-7.02-11.09-12.68-7.7-5.66-14.71-7.47-20.37-9.73-5.66-2.27-15.85-14.72-30.57-24.23-14.71-9.51-29.2-13.13-38.71-13.13s-9.64,13.25-9.96,29.09c-.51,24.79,4.77,37.3,12.43,49.13,6.89,10.64,14.04,22.87,8.38,31.92-5.66,9.06-6.32,17.55-7.68,30.68-1.36,13.13-12.23,31.02-26.94,40.07-14.72,9.06-18.57,4.98-22.19.68-3.62-4.3-12.23-12.45-27.62-12.22-15.4.22-20.38,4.3-41.2,25.8-20.83,21.51-21.29,53.43-23.32,70.41-2.04,16.98-10.42,39.85-14.72,44.6-4.3,4.76-26.03,20.15-30.56,28.08-4.53,7.92.22,21.28,7.24,21.28s11.1-4.08,21.74-17.21,19.01-21.28,22.41-18.34c3.4,2.95,2.94,6.57-3.17,12.23-6.11,5.66-26.53,21.15-30.56,31.69-1.79,4.66,3.62,10.64,19.01,10.19,15.4-.45,12.68-3.39,28.76-18.79,16.07-15.39,13.13-25.58,13.35-31.69.23-6.12,9.96-15.4,17.66-23.1,7.7-7.69,21.74-21.73,25.13-35.99,3.4-14.27,13.36-12.91,16.3-7.7,2.95,5.21,10.64,14.26,20.15,14.49,9.51.22,25.36-7.02,35.09-16.53,9.74-9.51,25.59-22.64,38.49-32.37,12.9-9.74,33.73-14.49,40.07-20.61,6.34-6.11,19.93-25.8,26.04-35.99,6.11-10.19,12.9-1.59,28.52-7.7,9.27-3.63,21.89-11.27,28.42-17.7,4.26-4.2,4.45-11.02.45-15.47ZM153.53,346.79c-.68,7.02-8.83,22.41-11.55,27.62-2.71,5.21-12.9,3.85-12.45-3.62.45-7.47,14.39-30.19,18.57-33.96,7.01-6.34,5.97,4.33,5.43,9.96ZM317.06,122.71c-3.02,3.78-2.72,4.67-6.79,4.93-4.4.27-7.83-5.21-12.7-8.83-4.86-3.62-13.35-12.06-10.07-14.89s16.58,3.81,19.81,6.34c6.52,5.11,13.82,7.35,9.75,12.45ZM367.64,182.54c-12.08-.2-17.87-13.29-19.06-17.02-1.18-3.74,4.89-4.29,5.14-10.66.06-1.53.34-1.76,3.57-1.7,6.83.13,3.22-2.03,23.94,16.81,20.71,18.85-.68,12.78-13.59,12.57Z"/>
</svg>