<?xml version="1.0" encoding="UTF-8"?>
<svg id="Layer_1" xmlns="http://www.w3.org/2000/svg" version="1.1" viewBox="0 0 512 512">
  <!-- Generator: Adobe Illustrator 30.0.0, SVG Export Plug-In . SVG Version: 2.1.1 Build 123)  -->
  <path d="M390.6,243.8c-4.5-2.7-7.1-10.5-13.8-13.8-6.6-3.3-11-1.2-11.9-5.5s-5.7-19-17.2-22.3c-3.3-.9-7-5.4-9.7-9.7-2.2-3.4-7.5-10.6-11.8-12.2l-47.9-134.2c3.2-1,5.6-3.8,5.3-9.1-.5-9.3-3.2-14.3-12.2-14.3s-7.4,2.3-9.3,5.4c-1.6,2.5-7.3,2.4-10.3,2.4l-118.5.5c-4.7,0-8.5,3.7-8.8,8.4l-.3,6.2c-.2,4.7-4.1,8.4-8.8,8.4h-6.3c-12.4,0-22.3,10.4-21.8,22.8,0,0,9.2,247.4,13.3,331.9.2,4.1.9,18.1,4.8,19.7,8.1,3.3,53.2,1.1,58.7,1.4,12.3.5,27.9,6,44.2,5.5,9.9-.3,12,.5,14.6-1.9,4.8-4.3-3.6-10.7-9.4-13l-23.8-3.3c-3.5-1.4-5.7-5-5.4-8.8l25.1-352.9c.3-4.6,4.2-8.2,8.8-8.2,0,0,53-.9,54.5-.7.5,0,1,.1,1.5.1l48,134.6c-3.1,4.4-2.9,20.4-1.2,26.1,1.8,6.3-2.1,9.4-2.7,15.1-.6,5.7,6.6,14.5,6.3,18.7-.3,4.2-4.5,8.1-15.7,18.1-11.2,10-16.3,26.6-16.3,34.4s1.2,29.3,9.7,34.4c8.5,5.1,9.7,9.1,9.4,20.2-.3,11.2-12.1,15.1-16.6,26.3-4.5,11.2,3.8,27.1,7,30.2,3.7,3.6,2.3,8.2,2.3,17s-5.1,8.8-10.9,5.4c-5.7-3.3-16.2-5.5-23.7-3.1-7.5,2.4-3.6,10.3-7.5,13-3.9,2.7-3.9-1.8-15.4.6s-16.3,14.5-6,16.9,24.8,7.8,35.3,12.7c10.6,4.8,35.9,21.7,44.1,22,8.2.3,13-1.8,16.9-11.8,3.9-10,3-17.5,6.9-17.2,3.9.3,10.9,4.6,18.8,4.6s13.6-5.1,16-14.2c2.4-9-4.6-33.3-7.4-47.2-2.7-13.9-13.5-24-14.4-28.3-.9-4.2-.3-10.9.6-18.1.9-7.2-.9-17.5-.6-27.5.3-10,9.4-18.5,14.2-28.7,2.7-5.7-4.1-19.6-1.6-18.1,2.3,1.4,14.3,3,22.8,3s30.2,4.2,32-6c1.8-10.3-29.3-33.2-33.8-35.9h0ZM128.1,299.2l-8.9,1.5c-4.3,1.4-8.8-1.8-8.9-6.4l-7.2-223.4c-.1-3.8,5-8.5,8.9-8.5h5.9c3.7,0,6.7,2.9,6.8,6.6l8.2,223.3c.1,3.1-1.9,5.9-4.8,6.8ZM165,292.6l-13.4.4c-2.1,0-3.9-1.6-4-3.7l-8.2-224.6c0-2.2,1.7-4,3.9-4h3.5c6.7,0,12.1,5.4,12.1,12.2v9c0,.6-.5,1.2-1.2,1.2h-1.6c-4.8.2-8.6,4.2-8.6,9l.6,42.5c0,4.9,4.1,8.8,9,8.7h3.2c.6,0,1.2.4,1.2,1.1l7,144.3c.1,2.2-1.6,4-3.7,4h0ZM180.7,206.6c0,.9-1.4.9-1.4,0l-1.2-129.4c0-9-7.3-16.4-16.3-16.6h-3.3c-1.6-.1-2.9-1.4-2.9-3l-.2-8.3c0-1.7,1.3-3,2.9-3l30.6-.2c1.7,0,3.1,1.5,3,3.2l-11.2,157.5h0ZM280.9,450.3c-2.4-.9-4.8-2.9-12.3-3.2-1,0,0-3.1,1.6-3.4,1.5-.3,8.6.5,11.9,1.1,3.3.6,1.1,6.3-1.2,5.4h0ZM375.7,259.6c-2.1.9-10.4-1.6-12.2-4.5-2.8-4.4-2.7-3.9-3.8-7.2-1-3.2,2.5-5.6,2.5-5.6,4.5,4.2,11.5,6.4,13.9,6.6,2.4.3,15.7,9.1,16.3,12.1.6,3-14.5-2.3-16.6-1.4h0Z"/>
</svg>