<?xml version="1.0" encoding="UTF-8"?>
<svg id="Layer_1" xmlns="http://www.w3.org/2000/svg" version="1.1" viewBox="0 0 512 512">
  <!-- Generator: Adobe Illustrator 30.0.0, SVG Export Plug-In . SVG Version: 2.1.1 Build 123)  -->
  <path d="M414.6,423.5c0-1.3,1.1-2.3,2.6-3.2,4.2-2.4,6.7-7,6.7-11.9,0-27.2,0-105.8-.2-145.5,0-19-13.4-34.9-31.8-39.4-2.9-.7-4.7,0-4.7-3.1s3.5-6.4,7.7-7.7c8.2-2.5,9.1-10.2,9.1-18.8v-84.2s1.7-15.6-18.5-33.6c-16.3-14.6-35.1-27.5-45.7-27.8-12.7-.4-9.9,9.5-19.7,9.3-7.7-.2-38.4-.2-45.6-.4-16.1-.4-15.3-31.1-38.8-30.3-23.4.8-29.1,16.2-29.1,16.2l-84.4-.6c-20-.1-36.3,16.1-36.3,36.1v317.8s-.8,5.6,4.8,12.9c5.7,7.3,3.6,9.7,4.1,13.7.4,4-9.7,17,0,21.8,9.7,4.9,34.7,2,39.6-2.4,4.9-4.4,23.4-17,30.3-15.8s-6.5,18.6-2,21.8,32.3-7.3,37.2-11.3,10.1-4.9,14.9-4.4c4.8.4,15.3,5.2,13.3,9.3-2,4-17.4,16.5-8.9,19,8.5,2.4,34.3,0,40-6.9,5.6-6.9,10.1-7.3,10.1-1.6s-21.8,23-14.9,27.9c6.9,4.9,26.7,5.5,34,3.9,7.3-1.6,13.2-17.6,19.7-20.8,6.5-3.2,26.3,2,40.8-2.8,14.5-4.9,40.8-13.3,48.5-13.3s29.1,0,28.8-11.5c-.2-6.5-11.5-8.7-11.5-12.3h0ZM366,163.7c.7-15.5,1.7-20.9,3.6-27.6,1.3-4.4,10.5-12.1,10.5-12.1,3.3-3.6,9.3-1.2,9.3,3.6v65.1c0,3-2.4,5.4-5.4,5.4h-7.9c-3,0-6.4-2.8-7.1-5.7-1.9-7.1-3.8-9.7-3-28.7h0ZM288.9,392.9c-2.6,4-10.2,4-15.3,3.5-2.7-.3-4.6-2.7-4.3-5.4.6-4.5,1.3-11.6,1.6-18.4.1-3.2-.9-11.4-1.6-16.9-.4-2.9,1.6-4.5,4.4-5.3,1.2-.3,5.2-.6,7.3.4,4.3,2,2.1,7.1,6.5,15.6,4.4,8.5,5.5,20.2,1.4,26.5h0ZM306.7,341.2c-.2,1.7-1.6,3-3.3,2.9l-6-.2c-.5,0-1.1-.2-1.5-.6-1-1-2.4-1.9-3.5-2.5-.6-.3-.9-1-.9-1.6l.5-6c0-1.8,1.5-3.3,3.3-3.3h.7c1.8,0,3.1,1.5,3.2,3.2v.5c0,1.8,1.4,3.2,3.2,3.2h1.3c1.9,0,3.4,1.8,3.2,3.6v.9c-.1,0-.1,0-.1,0ZM361.8,430.8c-1,2.6-10.5,9.7-23,8.9-12.5-.8-22.7-.5-23.5-6-.8-5.5,4-17.2,8.5-15.3,6.9,2.8,21.7,4.8,29.8,6.2,8.1,1.4,9.3,3.6,8.3,6.3h0ZM377.2,395.8h0c-5.5,0-9.6,2.5-9.6,8l-.4,2.5c-.2,2.2-2.2,2.8-4.4,2.8-4.6,0-12.1-.2-21.3-3.1-5.3-1.7-13.6-4.3-17.6-5.9s-3.5-6.7-1.4-10.5c4.1-7.4,9.6-20.9,13.9-31.6,4.9-12.4,8-29.3,8.9-38.4.3-3,2.9-5.4,6-5.3l26.2.8c5.4.2,9.6,4.6,9.6,10,0,15.3,0,45.1,0,60.6,0,5.5-4.4,10-9.9,10h0ZM389.1,279.2c0,3.5-2.8,6.3-6.3,6.3h-11.8c-2.9,0-5.2-2.3-5.2-5.1v-3.8c0-2.3,1.8-4.2,4.1-4.2h.5c5.6,0,10.1-4.6,10.1-10.2v-.8c0-2.7,3.2-4.4,5.3-2.7,1.9,1.5,3.1,3.9,3.1,6.5v14.1h0Z"/>
</svg>