<?xml version="1.0" encoding="UTF-8"?>
<svg id="Layer_1" data-name="Layer 1" xmlns="http://www.w3.org/2000/svg" viewBox="0 0 512 512">
  <path d="M429.91,87.29l-.75,10.34-43.7,5.37c-5.21,52.07-54.06,54.22-64.72,3.34l-17.08-.23c-1.08,6.84,6.58,8.92,9.06,14.31,5.08,11.07-.02,13.21-.55,21.23-.31,4.62,2.05,8.34,1.22,13.03-.29,1.66-14.13,26.87-15.92,29.3-9.23,12.54-20.77,5.15-13.7,26.06,4.82,14.25,12.88,32.3,12.36,48.06-.78,23.68-2.07,48.35-2.85,72.44-.7,21.52,7.53,20.76,14.75,37.21,9.09,20.72-1,35.93-2.61,56.39-1.58,20.05,11.23,39.51-13.47,45.46-4.14,1-25.43,4.42-26.41-.45,5.24-10.7,20.34-12.79,22.4-26.07,2.3-14.8-9.72-62.5-14.25-79.11-5.07-18.63-16.71-34.25-18.58-53.36-6.69,6.57-7.69,18.87-13.39,27.11,2.87,12.2,14.81,25.16,15.23,37.93.51,15.57-13.33,30.59-10.34,53.53.66,5.07,5.78,14.63,4.78,18.87-1.76,7.48-17.43,3.94-23.11,4.69-10.85,1.43-21.31,8.13-32.07,5.17-4.8-6.34,32.93-19.37,32.92-26.87-2.27-20.62-9.08-40.89-11.33-61.45-.51-4.63,1.45-9.13.79-14.62-1.98-16.64-12.55-41.37-13.79-59.02-2.02-28.63,17.2-47.87,17.44-71.21.06-6.14-2.34-11.53-1.77-18.95,1.41-18.19,9.49-19.38-15.09-9.88-5.03.08-14.82-22.16-15.72-26.94-1.96-10.53,1.31-22.99-1.15-33.51-4.65-19.87-16.66-18.07-33.92-17.22-1.42,45.55-48.93,51.25-62.37,7.68-27.57,4.48-27.21-10.25-.33-11.45,2.24-20.29,14.22-38.69,37.19-33.94,16.43,3.39,19.53,18.26,26.6,30.67,6.52-2.35,14.13-.61,20.23-1.96,4.95-1.1,8.66-7.58,12.76-7.96,4.47-.42,8.64,6.44,13.5,6.36,9.57-3.78,31.86-.77,39.62-5.31,1.66-.97,3.44-1.59,2.91-3.95-3.82-4.81-9.8-7.83-12.06-13.96-2.73-7.4-4.22-26.93-1.32-34.16,9.51-23.7,46.17-12.97,44.73,13.47-.69,12.71-11.34,17.33,1.54,29.46s26.77,3.25,41.76,3.52c2.54-1.78,1.41-10.88,2.38-14.95,5.15-21.67,25.81-38.15,46.07-21.59,9.92,8.11,10.34,18.77,16.67,28.4,6.91.99,43.01-5.17,45.43-1.24ZM223.94,113.04l-24.07,3.64c-2.03,7.06,2.66,29.98,9.36,32.72,4.15.76,2.1-1.9,2.52-4.34,2.28-13.21,4.66-20.72,12.18-32.02Z"/>
</svg>