<?xml version="1.0" encoding="UTF-8"?>
<svg id="Layer_1" data-name="Layer 1" xmlns="http://www.w3.org/2000/svg" viewBox="0 0 512 512">
  <path d="M81.07,294.4c-10.07.46-37.72-1.02-24-16.32,5.72-6.38,51.97-6.29,62.38-5.85,36.04,1.53,74.55,7.3,111,10.17,2.3.18,3.89.92,5.91,1.75-2.02-16.92-4.45-40.91,4.2-56.4,2.74-4.91,7.81-6.7,8.73-9.99,2.29-8.14-.8-18.55,1.9-28.88,5.36-20.54,23.19-54.23,38.11-69.4,5.02-5.11,14.32-10.71,21.56-11.01,4.55-.19,8.56,1.83,13.39,1.75,7.79-.12,15.32-3.92,23.92-3.66,10.24.31,22.19,5.09,32.33,6.93,11.84-5.25,18.07-18.37,32.57-18.84,24.55-.8,40.49,34.93,26.41,53.85-6.7,9-31.16,14.54-32.1,25.86-.23,2.75,3.04,5.73,3.13,9.9.11,5.59-3.89,12.6-3.41,18.65.31,3.99,3.32,7.53,3.37,12.1.12,10.68-7.3,24.55-4.77,35.51,1.74,7.56,10.79,8.72,15.71,13.3,21.01,19.52,3.76,41.22,4.63,63.96.15,3.97,6.28,10.67,7.54,17.73,4.85,27.17-15.24,29.26-12.81,46.88,1.48,10.76,14.92,19.29,23.78,24.06,5.43,2.93,23.98,7.98,24,13.62l-2.91,4c-15.4,5.11-29.97-7.22-42.92-7.88-6-.31-11.53,2.02-18.28,1.37-22.79-2.2-7.11-22.2-7.53-36.75-.52-18.05-5.42-30.79-24.91-32.98-4.23.71-1.37,22.44-7.59,26.18-10.78,4.55-14.37-5.51-22.21-9.41l11.11,57.99,13.48,5,1.01,5.27-39.33-4.19c-5.55-7.41-6.5-46.35-11.81-49.63-5.93-3.66-7.74,5.5-8.46,10.44-1.62,11.16-2.05,29.22.61,40.07,2.46,10.01,11.41,18.39,11.2,28.9-6.62-.14-32.36-3.13-35.01-8.5-4.11-8.32,1.25-43.68.94-55.57-.12-4.72-1.54-19.23-4.67-20.92l-178.87-27.66c-3.56-.24-2.2.03-2.56,2.53-.87,5.97.63,13.49,0,19.69l31.25-3.16c6.25,2.68,4.56,9.46,4.6,15.1-18.21-3.31-36.62.91-54.63,4.24-12.31,2.28-22.71,8.68-36.38,6.06l-2.62-7.41c2-8.3,31.23-8.04,39.02-9.72v-88.74ZM371.18,234.66c.52-4.47-.65-32.16-4.24-32.38-9.26,6.93-36.43,9.97-40.99,20.41-1.79,4.09-2.61,10.83-4.24,15.37,7.81-.55,11.23-5.85,19.61-6.81,10.13-1.17,20.14,1.06,29.86,3.41ZM371.19,347.3c.6-16.03,9.9-29.5,2.6-46.1l-7.7-1.68-1.61,14.61-30.83,4.17c1.16,4.21.67,18.9,4.29,20.46,6.25,2.7,4.81-9.94,11.11-12.75,17.77-7.94,15.68,8.6,18.7,18.8.74,2.49-.95,2.99,3.45,2.49ZM99.85,304.64v34.99l179.19,26.45v-29.87c0-1.71,6.91-7.15,5.13-11.08l-184.32-20.49Z"/>
</svg>