<?xml version="1.0" encoding="UTF-8"?>
<svg id="Layer_1" data-name="Layer 1" xmlns="http://www.w3.org/2000/svg" viewBox="0 0 512 512">
  <path d="M323.82,243.13c24.84-2.39,29.69,19.68,18.59,38.32-5.61,9.43-13.23,17.58-23.81,8.95l-11.93-16.36c1.86,11.43,6.99,25.38,6.99,36.91,0,8.49-6.11,24.55-5.29,30.78.79,6,15.28,18.4,19.21,25.56,11.77,21.4,1.5,39.94,3.05,62.21,1.09,15.67,15.1,33.89-8.1,39.85-3.8.98-25.93,4.29-26.14-.42,9.26-14.27,20.81-11.59,18.66-32.46-1.51-14.64-12.06-45.08-17.87-59.39-9.37-23.07-27.51-44.92-28.31-70.43-4.8-.8-2.6.78-3.41,2.6-3.12,7.01-14.94,27.68-15.45,32.75-.9,9.02,10.65,24.36,10.17,35.77-.43,10.29-14.17,27.39-14.95,41.87-.39,7.24,5.92,22.7,2.29,27.92-2.83,4.08-14.42.28-18.7.54-10.82.66-21.03,6.03-32.06,4.49-.72-13.7,20.37-12.01,28.47-22.18,7.44-9.34-2.69-44.5-2.83-57.64-.07-6.17,1.91-11.3,1.97-17.16.32-28.42-12.29-50.57-4.11-79.56,3.52-12.49,12.47-24.38,15.48-37.74,3.34-14.82-1.8-26.78,3.94-41.55-4.69-1.33-9.46,2.77-13.16,3-10.08.62-22.31-34.95-26.25-43.49-2.51-1.93-5.28,1.78-7.75,1.98-17.69,1.38-38.34-30.7-20.4-43.65,10.51-7.59,14.43,2.05,24.62,4.88,1.33-9.96-5.16-15.76,2.53-24.11,15.07-16.37,42.17,12.38,36.21,31.08-4.29,13.45-26.76,6.44-26.72,9.37,2.68,10.26,8.35,19.58,16.34,26.56,3.9.02,9.04-25.59,11.93-30.97,5.44-10.09,14.89-12.28,16.32-26.73.98-9.88-3.61-9.53-6.39-15.66-3.15-6.95-4.59-28.77-.75-36.01,8.18-15.41,25.34-14.93,37.25-3.93,15.99,14.78-2.98,35.17,2.11,45.92,5.79,12.23,33.52,10.89,37.88,32.57.89,4.44,3.92,23.24,3.95,27.08.06,7.5-4.91,14.01-5.24,19.01-.27,4.06,3.07,9.69,3.46,15.27,1.27,18.14-2.64,36.07-1.8,54.17ZM310.07,236.25l-13.7-34.33c.3,11.72,5.65,25.59,13.7,34.33Z"/>
</svg>