<?xml version="1.0" encoding="UTF-8"?>
<svg id="Layer_1" xmlns="http://www.w3.org/2000/svg" version="1.1" viewBox="0 0 512 512">
  <!-- Generator: Adobe Illustrator 30.0.0, SVG Export Plug-In . SVG Version: 2.1.1 Build 123)  -->
  <path d="M283.4,402c-2.2,4.4.4,7.5-2.3,12.5-4.4,8.1-18.9,14.6-21.3,22.3-3.5,11,2.9,20.3,1.6,31.2-.5.7-15,5-15.8,5-7.2.1-8.5-8.5-13.2-12.9-14.3-13.4-72.4-50.4-91.2-60.5-7-3.8-14.2-4.6-20.3-9.3,7-6.7,3.3-15.2,3.3-22.6.1-27.9,2.1-60,.2-87.3-.5-7-1.4-16.3-5.3-21.7,9.8,3.1,13.4,1.1,21.8-3.5l1.9,3.6c-1.9,2.3-2.6,4.8-2.8,7.8-2,26.8-2.4,74.8,0,101.3.3,3.5.3,6.6,2.7,9.5,10.6,4.8,35.9,26.3,45.3,27.9,3.9.7,1.4-8.2,4.8-10l34.5-15.5c2-8.7-19.6-56.3-23.6-68.7-1.9-5.8-8-24.1-8-28.7s4.2-10.1,7.1-13.9c3.2-4.2,24.9-20.4,22.6-23.6-13.8-4.4-28.1-9.5-38.3-20.2,3.8-9.3,32.3-35.1,31-43-.6-3.5-10.3-16.1-12.8-22.2-4.8-11.5-5.6-23.8-10-35.3-3.3-8.6-9.5-15.1-11.8-24-11.7,11.9-19,27.2-38.8,24-22.5-3.6-25.6-27.4-30.8-45.5,15.7-13.1,21-30.2,45.6-25.2,17.6,3.6,26,25.2,23.9,41.5l14.1-7.9c8.2.7,8.6,10.1,15.1,12.7,2.2.9,29.3,7,31.4,7.1,5.5.2,15.9-7.1,24.8-1.5,2-2-7.6-13.6-8.4-16.9-.9-4.1-3.5-20.2-3.8-24.3-1.2-20.1,26.7-35.7,43.5-22.5,19.5,15.3,4.9,36.5,9.4,42.9,6.6,3.4,14.4.6,22,2.4,18.9,4.4,24.2,28.2,25.1,44.7,6.9,5,25.9.1,23.7,12.9-1.8,11.1-20.2-2.8-23.7,2.6-2.4,3.7.2,20.2-1.2,26.7-2.1,10.3-10.3,17.9-10.2,31.8,0,16.6,12.1,21.9,13.9,35,1.4,10.4-1,19.4-3.2,29.3,1.6,5.5,28.7,4.2,25.1,20.5-2.1,9.5-32.2,5.4-40.2,10.1v55.9c2.1,4.1,34.1,14.9,41,20.1,17.3,13.1-4.8,24.4-16.3,16.2-4.4-3.1-4-8.7-12.2-8.4l-70.4,17.7h0ZM235.4,148.2c1-.9,10.4-12.1,10.6-12.9,7.4-25.1-22.8-25.6-39.7-28.4-1.7,17.7,14.8,28.6,23.5,42l1.8,1.1c1.4-.3,2.8-.8,3.9-1.8ZM323.1,302.2c-12.8-2.7-24.2,5.1-35.9,6.8-5.1.7-10.7-.5-15.6.1-2.4.3-5.1,1-2.6,3.5,17.9,5,35.5-2.5,53-5.1l1-5.4h0ZM324.9,326.6l-35.8,8.7-9.6,48c.2,3.2,42.4-6.9,45.4-10.4v-46.2h0ZM239.4,440c1.7-8.7-3.5-7.4-8.7-11.3,1.5-4.4,6.6-7.3,8.7-10.5,1.5-2.3,1.6-4-.9-4.4-1.3-.2-25.3,6.5-25.2,7.9l26.1,18.3h0Z"/>
</svg>