<?xml version="1.0" encoding="UTF-8"?>
<svg id="Layer_1" data-name="Layer 1" xmlns="http://www.w3.org/2000/svg" viewBox="0 0 512 512">
  <path d="M477.34,34.66v442.67H34.66V34.66h442.67ZM314.11,230.6c-3.65-9.99-3.91-21.61-7.21-31.53-4.05-12.19-21.33-35.71-20.68-48,.19-3.47,2.87-6.43,2.83-10.17-.08-8.7-6.35-19.23-13.36-24.31-6.58-4.76-20.28-7.01-22.02-16.03-1.35-6.96,3.82-7.28,6.38-11.89,11.98-21.53-1.13-64.71-31.33-45.11-19.28,12.51-7.24,28.37-3.12,45.02-1.66,6.92-26.28,22.43-30.79,28.32-1.35,1.77-11.36,31.67-11.69,34.49-.91,7.84,4.54,18.6,4.93,27.07.87,18.83-8.06,40.74-2,60.19-1.63,6.86-18.39-3.64-25.98,10.12-7.15,12.97-4.5,36.08,11.17,41.25,16.29,5.37,19.88-13.11,24.65-14.13,10.81-2.31,8.96,29.82,9.52,35.03,1.03,9.79,7.78,23.73,6.66,32.79-.76,6.13-10.53,16.12-13.54,22.77-9.25,20.39,5.77,44.24,6.66,65.28.34,8.14-3.09,16.75-1.67,24.03,2.82,14.44,41.04,18.14,41.25,12.11-8.37-16.22-24.78-16.21-24.17-37.98.46-16.38,5.58-43.15,9.52-59.4,1.53-6.3,11.9-41.26,15.57-43,3.47-.78,2.39,1.34,3.34,3.43,5.87,12.91-1.76,15.9-5.08,27.56-7.85,27.53,4.66,32.43,7.61,54.41,1.3,9.67-3.29,28.21-1.29,34.02,2.62,7.62,14.18,2.77,19.25,2.97,10.12.41,22.88,9.89,32.09,2.48.3-6.43-25.55-14.14-30.44-20.32-6.84-8.63,5.95-49.28,6.37-62.41.82-25.92,1.15-32.59,7.86-57.56,3.18-11.84,2.98-24.29.77-36.26,5.39-1.17,10.15,5.07,14.65,5.05,4.26-.01,8.94-6.1,14.06-6.35,7.33-.36,10.99,10.48,24.09-1.03,13.39-11.77,7.92-39.14-9.32-42.16-5.64-.99-10.56,3.16-15.52-.73Z" style="fill: #fff;"/>
  <path d="M314.11,230.6c4.96,3.88,9.88-.26,15.52.73,17.24,3.02,22.71,30.4,9.32,42.16-13.09,11.51-16.76.67-24.09,1.03-5.12.25-9.8,6.34-14.06,6.35-4.49.01-9.26-6.22-14.65-5.05,2.21,11.97,2.41,24.42-.77,36.26-6.71,24.97-7.04,31.64-7.86,57.56-.41,13.13-13.21,53.78-6.37,62.41,4.89,6.17,30.74,13.88,30.44,20.32-9.21,7.41-21.97-2.07-32.09-2.48-5.07-.2-16.63,4.65-19.25-2.97-2-5.81,2.58-24.36,1.29-34.02-2.95-21.98-15.46-26.88-7.61-54.41,3.32-11.66,10.95-14.65,5.08-27.56-.95-2.09.13-4.21-3.34-3.43-3.67,1.74-14.04,36.7-15.57,43-3.94,16.25-9.06,43.02-9.52,59.4-.61,21.77,15.8,21.76,24.17,37.98-.21,6.04-38.44,2.33-41.25-12.11-1.42-7.28,2.01-15.89,1.67-24.03-.89-21.04-15.91-44.89-6.66-65.28,3.02-6.65,12.79-16.64,13.54-22.77,1.12-9.05-5.63-23-6.66-32.79-.55-5.21,1.3-37.34-9.52-35.03-4.77,1.02-8.37,19.5-24.65,14.13-15.67-5.17-18.33-28.28-11.17-41.25,7.59-13.77,24.36-3.26,25.98-10.12-6.06-19.45,2.87-41.36,2-60.19-.39-8.46-5.85-19.23-4.93-27.07.33-2.82,10.34-32.72,11.69-34.49,4.51-5.89,29.13-21.4,30.79-28.32-4.11-16.64-16.16-32.5,3.12-45.02,30.21-19.6,43.32,23.59,31.33,45.11-2.56,4.61-7.73,4.93-6.38,11.89,1.75,9.02,15.45,11.27,22.02,16.03,7.01,5.08,13.28,15.61,13.36,24.31.03,3.75-2.65,6.71-2.83,10.17-.66,12.29,16.62,35.81,20.68,48,3.3,9.92,3.56,21.54,7.21,31.53ZM270.65,191.42c5.86,20.28-4.27,41.42,7.74,60.24,6.15-9.88,10.25-15.36,21.5-19.77-12.37-9.71-16.85-23.61-24.01-36.24-1.33-2.35-1.43-5-5.23-4.23Z"/>
  <path d="M270.65,191.42c3.8-.78,3.9,1.88,5.23,4.23,7.16,12.63,11.64,26.53,24.01,36.24-11.25,4.41-15.34,9.89-21.5,19.77-12.01-18.82-1.88-39.96-7.74-60.24Z" style="fill: #fff;"/>
</svg>