<?xml version="1.0" encoding="UTF-8"?>
<svg id="Layer_1" data-name="Layer 1" xmlns="http://www.w3.org/2000/svg" viewBox="0 0 512 512">
  <path d="M305.72,227.24c-5.69,22.62-29.85,3.26-44.5,3.32-3.55.01-18.87,5.39-19.86,8.25-1.63,4.68,8.2,25.85,9.77,33.4,7.31,35.26-9.95,51.05-12.66,82.22-.56,6.4,1.46,13.93.75,21.67-1.24,13.51-13.7,48.3-9.33,58.59,3.36,7.91,21.44,12.98,27.63,17.69,2.13,1.62,3.76,2.82,2.83,5.86-1.94,6.3-23.81-1.63-28.94-2.41-5.89-.9-22.75,2.11-24.91-4.85-1.13-3.63,5.38-19.23,5.07-27.52-.99-26.1-15.47-33.17-6.16-62.01,2.79-8.65,9.93-17.4,7.02-26.11-6.74,11.4-9.96,26.65-12.53,39.77-3.46,17.66-7.93,46.61-5.83,64.01,2.19,18.13,23.02,15.72,24.46,32.19-10.28,1.87-23.82.79-33.22-4.25-17.3-9.29-6.92-20.04-8.82-36.52-2.46-21.29-17.07-40.12-8.01-62.44,3.13-7.7,13.53-19.79,13.53-26.67,0-6-9.25-23.71-10.37-33.31-1.69-14.45,1.8-27.22-3.31-42.02-1.22-3.53-10.8-20.76-13.07-22.74-3.36-2.93-14.27,1.15-15.19-6.51,2.36-5.33,10.86-4.49,13.5-6.57,1.9-1.5,4.37-11.96,7.37-15.68,2.15-2.65,6.84-3.72,8.33-7.4-1.16-4.61-5.85-7.04-8-10.77-13.2-22.86-11.97-47.96-6.87-72.55,3.26-15.75,32.69-25.96,35.53-36.1,3.07-10.97-14.09-20.37-3.75-38.48,8.51-14.91,31.02-17.82,40.05-1.51,4.49,8.12,4.66,27.16,1.42,36-2.01,5.49-9.65,10.24-8.47,14.46,3.13,11.17,34.61,8.05,36.05,35.65.85,16.25-1.31,24.33,5.66,41.37,2.76,6.74,8.44,9.61,11.43,14.72,4.07,6.94,4.86,17.59,10.69,24.26,4.01,2.58,8.04-3,12.95-2.7s12,7.43,14.06,6.97c5.18-16.13,21.07-22.76,35.7-13,1.87,1.25,12.44,13.19,13.18,14.78,3.09,6.58-9.27,23.37-14.92,26.9-9.96,6.21-24.43,2.13-30.31-7.89-2.51-4.28-1.65-12.44-7.94-12.07ZM263.1,215.76c-9-7.72-17.9-13.51-25.39-23.4.6,6.32,1.84,11.86,1.83,18.37s-3.87,12.43-.19,17.49c4,2.95,22.57-10.19,29.72-6.23-1.54-1.88-4.19-4.69-5.97-6.22Z"/>
</svg>