<?xml version="1.0" encoding="UTF-8"?>
<svg id="Layer_1" data-name="Layer 1" xmlns="http://www.w3.org/2000/svg" viewBox="0 0 512 512">
  <path d="M475.3,36.7v438.6H36.7V36.7h438.6ZM343.89,86.19h26.45l1.73-3.42c-.55-.63-1.3-.99-1.97-1.46-3.08-2.19-27.28-11.89-30.69-12.12-5.72-.38-29.44,2.1-35.59,3.4-3.54.75-4.45,3.21-7.22,4.86l-55-28.06c-6.86-12.93-16.07-9.7-23.83.48,16.18,39.03,47.7,73.36,50.99,117.42,1.03,13.77,1.38,28.83,1.8,42.57,1.12,36.63-.97,73.5-.09,110.14l-9.34-17.09c-9.55-33-20.27-65.74-31.53-98.18-3.57-10.29-15.49-31.26-12.45-41.2,2.31-7.57,15.17-17.35,4.52-24.24-8.24-5.33-12.23,1.68-14.89,1.26-1.39-.22-11.78-6.76-14.07-8.28-2.73-5.35,14.97-26.1-4.23-38.32-9.9-6.3-21.27-5.95-27.91,4.35-8.06,12.49.14,20.64-5.81,31.75-4.26,7.97-9.8,7.33-15.59,11.7-8.82,6.66-5.79,11.03-7.3,20-.39,2.33-2.79,4.48-3,7.3-.8,10.62,12.67,32.94,16.77,42.82,8.66,20.84-7.5,23.89-9.8,44.3-2.08,18.51,4.64,18.28,6.58,28.92,1.23,6.72-2.01,14.04-1.45,21.87.7,9.82,10.32,27.81,10.03,32.52-.55,8.72-16.54,22.24-16.48,33.95.06,11.08,7.03,27.56,7.93,39.59.53,7.15-2.82,22.51-.84,26.45,2.72,5.43,40.1,13.23,45.22,4.24-5.27-9.23-25.4-10.5-28.21-19.54-2.32-7.47.92-28.36,2.62-36.8.55-2.72-.54-5.66,2.59-7.65,8.92,14.93,6.77,32.04,4.17,48.3.36,1.12,3.88,2.89,4.35,2.89h29.87l-6.83,11.93,77.44,3.64,1.9,3.11-2.61,7.65,3.46,5.25c15.76.79,33.27,5.39,48.73,6.01,10.22.41,20.78-10.74,29.25-16.8,3.76-2.69,7.99-5.97,12.48-7.17.64-9.76-22.52-1.79-23.95-7.93l-.07-88.24,7.05-3.92c.66-32.87-1.12-65.92-.16-98.77.29-9.79,6.07-12.07-6.82-17.28v-55.97s1.78-86.25,1.78-86.25Z" style="fill: #fff;"/>
  <path d="M343.89,86.19l-1.78,86.25v55.97c12.89,5.21,7.11,7.48,6.82,17.28-.96,32.85.82,65.9.16,98.77l-7.05,3.92.07,88.24c1.43,6.15,24.59-1.83,23.95,7.93-4.49,1.2-8.72,4.48-12.48,7.17-8.47,6.06-19.03,17.21-29.25,16.8-15.46-.62-32.97-5.22-48.73-6.01l-3.46-5.25,2.61-7.65-1.9-3.11-77.44-3.64,6.83-11.93h-29.87c-.47,0-4-1.76-4.35-2.89,2.6-16.26,4.75-33.37-4.17-48.3-3.14,1.99-2.05,4.92-2.59,7.65-1.7,8.44-4.94,29.34-2.62,36.8,2.81,9.04,22.94,10.31,28.21,19.54-5.12,8.99-42.49,1.19-45.22-4.24-1.98-3.95,1.38-19.31.84-26.45-.9-12.03-7.87-28.51-7.93-39.59-.06-11.72,15.93-25.23,16.48-33.95.3-4.71-9.32-22.7-10.03-32.52-.56-7.83,2.67-15.15,1.45-21.87-1.94-10.64-8.66-10.41-6.58-28.92,2.3-20.42,18.46-23.46,9.8-44.3-4.11-9.88-17.58-32.2-16.77-42.82.21-2.82,2.61-4.98,3-7.3,1.51-8.97-1.53-13.34,7.3-20,5.8-4.37,11.33-3.74,15.59-11.7,5.94-11.11-2.25-19.26,5.81-31.75,6.65-10.3,18.01-10.65,27.91-4.35,19.2,12.21,1.5,32.96,4.23,38.32,2.29,1.52,12.67,8.06,14.07,8.28,2.65.41,6.65-6.59,14.89-1.26,10.65,6.89-2.2,16.68-4.52,24.24-3.04,9.94,8.88,30.91,12.45,41.2,11.25,32.43,21.98,65.18,31.53,98.18l9.34,17.09c-.88-36.63,1.21-73.51.09-110.14-.42-13.74-.77-28.8-1.8-42.57-3.29-44.06-34.81-78.39-50.99-117.42,7.76-10.18,16.97-13.41,23.83-.48l55,28.06c2.76-1.65,3.68-4.11,7.22-4.86,6.15-1.3,29.87-3.78,35.59-3.4,3.41.23,27.61,9.93,30.69,12.12.67.47,1.42.83,1.97,1.46l-1.73,3.42h-26.45ZM241.49,53.79l37.51,69.21c3.55,1.92,6.55-3.78,9.73-5.78s16.31-7.97,16.84-8.76c1.77-2.61,1.5-20.41-.91-23.13l-63.16-31.54ZM331.95,96.43c1.99-10.1-4.58-13.16-12.92-8.58l1.06,8.48,11.86.1ZM331.94,174.94v-58.88c0-3.62-12.94-10.15-13.64-9.38,3.68,9.83-3.78,63.81,1.59,67.51l12.06.74ZM306.34,111.79c-6.18,1.03-20.68,10.27-23.04,15.4-3.12,6.79,7.74,34.45,5.99,44.31l17.05.02v-59.73ZM207.35,149.35c-10.18,1.09-6.16,13.37-6.81,20.46,7.3,1.56,7.92-19.15,6.81-20.46ZM270.42,335.44c-8.33-2.87-48.2-.13-50.86-7.99-.75-2.21-.66-7.54-.19-9.96,2.32-12.01,15.91-.11,22.62-1.19,3.48-.56,16.33-9.95,16.26-13.88l-39.77-117.23c-7.43,12.34-3.65,31.2-23.65,27.55l-2.61,2.44c4.45,10.34-.55,22.57-.11,32.05.48,10.25,8.72,23.26,11.08,33.44,6.86,29.62-14.64,88.45-16.26,122.13-.87,17.98,7.24,13.01,19.92,21.1l2.24-.54c18-24.99,30.66-54.63,60.61-67.5l.74-20.42ZM306.11,190.54l-16.84-1.96c2.58,10.05-2.78,19.62-3.42,28.15-1.59,21.24,1.21,44.29,0,65.72l15.47-2.76c1.2-13.21-1.92-29.83-.2-42.57.76-5.61,4.42-6.2,5.19-10.17.66-3.37.75-34.88-.21-36.42ZM330.24,226.13v-29.87c0-.87,2.71-3.58,1.7-5.96l-11.95-.02-1.71,35.86h11.96ZM285.87,301.22v127.14c2.18,3.61,19.32,5.43,20.49,4.27-1.89-23.73,2.47-51.07.1-74.35-.76-7.52-4.35-7.52-5.2-11.86-1.6-8.13,1.96-41.42-.24-44.97l-15.15-.23ZM331.94,352.42h-13.65v83.62h13.65v-83.62ZM270.51,371.2c-4.13,1.28-10.71,6.42-13.64,9.4-11.6,11.79-19.72,30.11-30.7,42.65,1.2,1.68,2.21,2.21,4.24,2.56,12.67,2.17,27.19,1.53,40.1,3.42v-58.02Z"/>
  <path d="M270.42,335.44l-.74,20.42c-29.95,12.87-42.61,42.51-60.61,67.5l-2.24.54c-12.68-8.09-20.79-3.12-19.92-21.1,1.62-33.69,23.12-92.51,16.26-122.13-2.36-10.18-10.6-23.19-11.08-33.44-.44-9.49,4.55-21.71.11-32.05l2.61-2.44c20,3.65,16.22-15.21,23.65-27.55l39.77,117.23c.08,3.93-12.77,13.32-16.26,13.88-6.71,1.08-20.3-10.82-22.62,1.19-.47,2.42-.56,7.75.19,9.96,2.66,7.86,42.54,5.12,50.86,7.99Z" style="fill: #fff;"/>
  <path d="M285.87,301.22l15.15.23c2.19,3.55-1.36,36.84.24,44.97.86,4.35,4.44,4.35,5.2,11.86,2.37,23.28-1.98,50.62-.1,74.35-1.17,1.15-18.3-.67-20.49-4.27v-127.14Z" style="fill: #fff;"/>
  <path d="M241.49,53.79l63.16,31.54c2.41,2.72,2.68,20.52.91,23.13-.53.79-13.82,6.86-16.84,8.76-3.18,2-6.17,7.71-9.73,5.78l-37.51-69.21Z" style="fill: #fff;"/>
  <path d="M306.11,190.54c.96,1.55.87,33.05.21,36.42-.77,3.97-4.43,4.56-5.19,10.17-1.72,12.73,1.4,29.36.2,42.57l-15.47,2.76c1.2-21.43-1.6-44.48,0-65.72.64-8.54,6-18.11,3.42-28.15l16.84,1.96Z" style="fill: #fff;"/>
  <path d="M270.51,371.2v58.02c-12.91-1.88-27.43-1.25-40.1-3.42-2.02-.35-3.04-.88-4.24-2.56,10.97-12.55,19.1-30.87,30.7-42.65,2.93-2.98,9.51-8.12,13.64-9.4Z" style="fill: #fff;"/>
  <rect x="318.29" y="352.42" width="13.65" height="83.62" style="fill: #fff;"/>
  <path d="M306.34,111.79v59.73l-17.05-.02c1.76-9.86-9.1-37.52-5.99-44.31,2.35-5.13,16.86-14.37,23.04-15.4Z" style="fill: #fff;"/>
  <path d="M331.94,174.94l-12.06-.74c-5.37-3.71,2.09-57.68-1.59-67.51.7-.77,13.64,5.76,13.64,9.38v58.88Z" style="fill: #fff;"/>
  <path d="M330.24,226.13h-11.96s1.71-35.85,1.71-35.85l11.95.02c1.01,2.39-1.7,5.1-1.7,5.96v29.87Z" style="fill: #fff;"/>
  <path d="M331.95,96.43l-11.86-.1-1.06-8.48c8.34-4.58,14.91-1.52,12.92,8.58Z" style="fill: #fff;"/>
  <path d="M207.35,149.35c1.12,1.32.49,22.02-6.81,20.46.65-7.09-3.37-19.37,6.81-20.46Z" style="fill: #fff;"/>
</svg>