<?xml version="1.0" encoding="UTF-8"?>
<svg id="Layer_1" data-name="Layer 1" xmlns="http://www.w3.org/2000/svg" viewBox="0 0 512 512">
  <path d="M379.52,176.12c-4.04,3.02-16.54.52-19.74,8.05,9.77,14.46,22.69,28.5,19.76,47.49-1.07,6.92-6.33,15.15-6.49,22.71-.19,9.08,3.48,21.33,2.01,31.3,17.12,5.38,34.94.73,50.2-7.69,15.3,5.18,6.2,20.41,7.78,30.9.95,6.31,9.53,20.27,8.1,27.3-.63,3.1-5.05,3.42-6.56,5.66-4.39,6.52-6.34,25.53-20.56,22-4.33-5.49-2.81-37.34-7.68-38.52-2.57-.62-40.28,14.22-51.09,13.52-7.96-.52-8.96-8.8-12.33-9.96-8.14-2.81-14.61,12.49-29.47-1.24-11.61-10.73-22.18-57.27-20.24-72.91,1.73-13.98,12.61-24.71,6.09-37.75-2.9-5.81-11.62-20.64-15.38-25.64-11.64-15.49-11.07-3.74-14.57-2.83-12.26,3.18-14.38-8.2-21.56-8.12-2.58.03-15.84,3.5-16.4,5.64l35.92,176.63,56.22-3.22c.52.49-3.71,12.92-4.26,13.67-4.18,5.67-46.51,3.82-48.68,6.92l9.32,47.82,80.02,2.04c7.47,1.66,10.35,10.01,11.47,16.72-27.41-.27-55.3-3.58-82.88-1.68-44.33,3.06-92.58,17.12-136.99,21.99-3.91.43-7.82.22-11.74.22-4.17-.54,5.97-14.28,5.58-16.32-.41-2.76-33.01-12.22-38.07-12.77-15.4-1.68-28.6,3.77-43.61,3.43-.26-22,21.4-13.61,34.27-19.94l-.04-145c1.26-15.38,8.49-37.76,19.65-48.73,3.91-3.85,18.18-11.08,19.35-14.89,2.41-7.85-9.94-37.26-8.2-39.73,6.29-3.23,13.03.9,19.25-2.21,2.5-1.25,2.63-3.79,4.17-4.77,4.46-2.86,10.92-2.17,10.67-9.13-.14-3.95-8.1-22.07-2.25-23.39l31.91-3.14c4.76,1.54,7.03,15.51,6.29,20.32,11.71-3.26,23.13,1.76,33.38-3.42,4.54.02,6.63,6.41,7.92,9.97l8.28.27c2.44-2.37-7.64-21.59-9.06-25.98-1.55-4.8-1.91-15.46-3.78-18.44-1.23-1.97-6.75-3.39-9.45-5.94-7.14-6.77-18.23-27.18-19.75-36.79-3.29-20.76,26.44-38.79,44.36-22.01,10.69,10.01,5.09,21.33,8.77,28.84,1.58,3.22,21.66,7.19,25.53,6.81,5.15-.52,12.52-7.97,19.7-9.5,23.65-5.03,35.28-6.7,59.56.48,5.6,1.66,20.66,8.13,22.28,13.67,4.01,13.67-17.51,60.25-20.12,76.44l13.63,5.26c2.45,1.01.36,4.97-.45,5.58ZM359.43,109.83h-29.06c-.88,11.14,7.04,23.07,8.39,33.47.84,6.43-.93,10.5-1.12,15.74-.1,2.8-.82,3.48,2.12,5.46,19.6-13.59,15.21-34.2,19.66-54.67ZM212.27,188.58l-5.02.77,7.71,26.46,4.33-2.71-7.02-24.52ZM203.85,220.96c-10.62-2.4-24.81,7.74-29.62-5.43-5.93-16.24,3.47-29.25-23.38-25.35l22.25,114.54c6.05-3.52,2.74-13.45,3.42-19.64,1.87-17.17,5.41-34.96,15.67-49.29,1.74-2.43,13.63-13.08,11.65-14.83ZM114.96,269.68v151.3l61.3-8.78.39-2.3-34.64-177.52-2.26-2.83c-12.47,8.13-23.03,25.29-24.79,40.14ZM195.31,278.22c-2.26,22.37,1.68,48.2,0,70.95,11.4-1.56,27.3-5.12,38.52-3.43,4.74.71,2.58,7.12,1.27,9.88-4.02,8.5-29.76,4.85-38.67,7.48-4.65,1.37-1.11,6.78-1.03,10.78.26,12.26-.37,24.58-.08,36.82,7.52,2.07,21.98-15.29,27.44-11.23,8.31,19.92-12.91,21.94-26.69,26.52l-.74,17.19,66.77-11.32-39.45-198.95c-15.73,5.22-25.77,29.79-27.34,45.3ZM176.5,439.78l-.25-9.17-2.24-2.37-26.56,3.01c2.27,3.24,9.91,5,13.68,5.95,5.07,1.28,9.99,3.12,15.37,2.58Z"/>
</svg>