<?xml version="1.0" encoding="UTF-8"?>
<svg id="Layer_1" data-name="Layer 1" xmlns="http://www.w3.org/2000/svg" viewBox="0 0 512 512">
  <path d="M375.36,350.27c-.74-1.18-6.12-1.49-4.89-6.27l-.77-285.27c-3.57-6.34-34.96-19.45-39.38-18.64-4.62.85-5,7.9-4.54,11.74l-100.03,7.65c-1.9,1.3-1.57,4.92-.2,9l-7.39,139.47c-4.56,3.43-6.73,9.62-14.71,9.28,6.15-20.15-2.69-29.7-12.05-45.69,9.01-10.96,12.5-15.36,9.9-30.57-4.59-26.82-39.05-18.35-37.43,2.83.53,6.91,7.24,10.68,4.77,18.79-1.97,6.46-17.24,13.18-20.42,17.96-8.13,12.21-11.98,48.89-3.39,61.24,2.33,3.36,7.42,3.26,6.9,10.66-.39,5.61-9.29,13.57-10.36,22.46-1.24,10.38,3.08,17.67,3.31,26.08.21,7.68-2.48,16.48-1.53,25.64.92,8.83,6.06,15.19,5.03,23.96-.96,8.21-9.85,17.36-11.56,24.8-1.96,8.5,8.76,31.45,9.74,42.79.49,5.68-1.77,16.24-1.25,18.42,2.11,8.75,37.28,13.41,37.61,7.23l-6.83-12.93c9.96,3.56,20.33,6.11,31.01,5.16-.17-2.03.9-3.69-1.08-5.29-6.96-5.61-26.55-5.13-26.59-19.7,2.91-16.27,2.61-35.65,5.39-51.55,3.25-18.53,15.6-41.71,13.2-60.01-.94-7.17-5.44-14.59-6.28-21.26-.67-5.29,2.15-31.12,4.98-34.35.68-.77,16.85-8.72,18.51-9.06,6.22-1.24,20.46,2.64,20.5-6.42.02-5.07-8.71-10.98-13.29-17.01l7.13-134.64c2.25,3.89,4.75,7.01,6.3,7.47,19.4,5.82,9.49-19.55,23.82-13.53l.81,2.63,27.8,379.15,2.39,2.49,33.56-3.4c-3.5,4.49-4.65,22.33,2.49,22.4,9.18.09,36.01-28.99,48.97-29.54-2.21-13.51,3.82-87.76-.18-94.19ZM162.95,423.97c-2.02.04-4.54-19.67-4.35-21.51.29-2.95,2.13-4.81,5.21-4.3-2.36,8.33,5.01,19.24-.85,25.8ZM301.78,431.64l-27.7-364.33,49.19-3,2.52,3.87v371.34c-9.14-1.14-22.67,4.55-24.01-7.88ZM353.36,347.33l-2.82,4.06-10.96.24V63.87c6.78,4.72,13.71,12.89,13.87,21.45l-.08,262Z"/>
</svg>