<?xml version="1.0" encoding="UTF-8"?>
<svg id="Layer_1" data-name="Layer 1" xmlns="http://www.w3.org/2000/svg" viewBox="0 0 512 512">
  <path d="M367.61,404.32c-.1-5.54-2.92-21.03-.65-24.57.95-1.49,4.15-1.92,5.11-3.41,2.17-3.39,2.17-76.83,0-80.22-.95-1.49-4.16-1.92-5.12-3.42-3.47-5.41.74-21.42.92-28.09,1.89-68.17-1.53-136.66-.11-204.86-.15-10.38-38.58-20.26-42.42-17.73-2.18,1.43,1.97,6.69-9.77,8.1-29.73,3.58-60.39,3.36-90.29,5.33-1.48-.02-4.04,1.4-4.27,2.6-.14.71,1.21,4.3,3.06,8.43l-5.37,126.34c-.26.46-.52,1-.8,1.64-3.06,7.17-3.32,15.42-5.63,22.92-18.49,2.39-17.97-24.21-23.94-34.52-3.81-6.57-17.32-13.2-14.85-22.06.69-2.49,4.72-4.6,5.81-7.96,2.65-8.17-.44-22.55-6.65-28.54-8.47-8.18-21.83-4.89-28.17,3.95-9.4,13.1,6.97,20.03,4.56,31.77-2.14,10.43-18.6,12.54-18.63,32.83-.02,20.41,10.43,26.35,15.88,40.58,5.48,14.34-7.29,28.78-7.19,43.07.05,6.53,4.18,14.42,4.15,22.18-.03,6.26-2.65,12.15-2.33,18.5.43,8.5,7.11,20.87,6.83,27.54-.36,8.89-11.49,19-12.19,29.08-.92,13.2,10.18,32.56,9.47,46.8-.2,3.98-3.23,6.86-2.62,11.17,1.07,7.56,30.72,13.99,37.64,9.42l-6.81-13.63c1.41-1.28,25.8,7.15,30.68,3.33l-.98-5.2c-9.97-3.91-24.81-4.97-26.32-17.73-1.21-10.25,3.44-37.8,5.61-49.08,3.12-16.25,14.53-44.03,14.55-58.5.02-11.85-9.44-27.89-9.77-41.24-.16-6.54,3.04-13.96,1.57-21.07,4.83.25,12.06-1.08,16.11,1.83,4.51,3.24,1.97,14.7,8.64,11.82,4.56-1.97.67-12.66,5.31-13.52l5.8,1.59c-3.48,3.33.16,11.22,4.23,10.23,4.25-1.03,5.2-16.97,3.51-20.54,0,0-3.74-8.82-4.5-12.02-.34-1.41-1.3-5.14-1.87-9.59-.51-4.02-1.39-10.92-2.86-14.59l5.05-118.78c1.81,3.36,3.5,5.98,4.4,6.29,10.44,3.51,17.02-5.46,17.85-14.89l6.39.02c2.94,1.81,3.12,41.65,3.66,48.39,7.55,93.92,15.57,187.64,22.19,281.64,1.24,17.59,5.41,36.64,3.4,53.77l35.83-1.69c-1.42,7.71-3.08,14.5.07,22.14,5.64,3.93,40.12-28.67,48.66-30.59,7.04-7.42-1.79-9.8-3.59-15.35-2.57-7.97.87-13.68.76-19.92ZM158.73,417.29c-3.31-1.31-1.91-18.91-2.58-22.18h5.11c-.13,5.38.23,10.85,0,16.24-.09,2.05,1.27,7.45-2.53,5.94ZM323.42,436.08l-21.11-1.94-2.79-4.03-29.04-363.55,52.94-4.29v373.82ZM337.09,63.98c2.31-2.45,10.87,8.94,11.52,11.5,1.09,4.29,1.8,19.46,2.11,25.2,3.36,63.41-2.28,129.79-.22,193.48l-13.42,1.96V63.98ZM354.23,423.36c-.71,7.61-6.33,15.56-14.56,14.43-3.99-.55-.88-4.05-.88-4.27v-48.65c15.75-4.53,16.4,28.26,15.44,38.49Z"/>
</svg>