<?xml version="1.0" encoding="UTF-8"?>
<svg id="Layer_1" data-name="Layer 1" xmlns="http://www.w3.org/2000/svg" viewBox="0 0 512 512">
  <path d="M333.41,138.65l-1.65,7.5-18.51,5.18c.7,13.49-2.39,35.78-20.53,30.73l-2.61,2.4c10.32,11.19-.11,28.8,5.92,39,1.15,1.94,16.3,12.98,19.05,14.24,27.57,12.62,58.72,9.83,84.37,22.17,10.72,5.16,43.08,30.93,46.43,41.86,1.67,5.46-3.2,28.25-4.77,35.35-2.35,10.68-13.98,42.16-12.87,50.36,1.57,11.55,38.59,14.18,35,30.86-14.97,1.33-27.02-9.67-41.65-10.91-2.82,2.04-1.99,14.14-.89,17.66,2.14,6.82,11.23,6.55,10.89,14.01-2.18,7.23-25.28-3-28.94-5.96-6.72-5.43-5.15-30.49-7.99-39.45l-26.3-10.32c-2.28,2.21-2.04,36.36-.94,41.72,2.47,11.95,15.14,23.36,20.83,34.05-12.76,8.58-26.27,5.67-33.5-8.05-9.68-18.38-4.16-28.06-8.52-46.41-2.91-12.25-8.64-23.96-9.86-36.75l-2.27-2.73c-25.79-9.35-50.74-25.84-76.14-35.4-3.95-1.49-9.85-4.16-13.8-4.59-10.07-1.08-34.99,11.38-44.47,16.84-3.37,1.94-9.74,8.72-12.33,9.44-5.03,1.39-17.26-5.15-13.49-11.15l31.42-14.68c-1.66-17.16,3.69-38.55-4.38-53.67-20.62-5.12-30.26-20.44-4.17-26.93.46-12.16-7.55-15.41-2.71-28.55,4.09-11.12,13.13-8.44,16.19-17.9-2.31-2.05-27.63,4.68-32.82,4.49-3.11-.12-5.16-2.39-8.08-2.78-5.84-.79-35.3,7.57-40.59,10.9-1.24.78-2.53,1.53-2.75,3.12,8.39,36.56-22.67,45.9-36.68,12.43l-38.37,11.46c-20.27-12.56,30.12-16.29,33.76-21.21.17-9.56-3.26-19.63,3.33-28.27,9.05-11.87,22.44-4.84,29.72,4.96,2.54,3.42,3.96,11.49,8.36,11.56,16.52-7.31,35.3-9.19,50.11-19.96,2.93-2.13.64-6.53,8.07-4.97,2.49.52,4.46,3.07,6.53,2.98,4.58-.22,25.67-12.95,32.28-14.31,4.58-.94,9.37-.02,14.18-.8,10.65-1.72,20.37-11.63,32.9-9.56-6.15-35.78,22.83-43.36,40.98-13.46,7.16-3.28,13.92-7.89,22.27-6.51ZM259.93,182.16c-4.26-.58-21.77.49-22.94,4.15-.43,1.35,4.16,24.08,4.9,28.03.37,1.95.68,3.01,2.44,4.14l19.74-8.67-4.14-27.66ZM220.22,281.8c-.91,5.16-2.59,11.17,2.83,14.65l117.03,52.86c6.44,1.86,16.49-2.31,7.81-7.91-38.26-24.72-86.46-39.98-127.67-59.59ZM390,371.69c5.31-16.75-18.56-30.98-17.56-8.34l17.56,8.34Z"/>
</svg>