<?xml version="1.0" encoding="UTF-8"?>
<svg id="Layer_1" data-name="Layer 1" xmlns="http://www.w3.org/2000/svg" viewBox="0 0 512 512">
  <path d="M421.09,54.01c-3.47-3.48-8.29-5.39-13.19-5.24l-20.81.62c-3.46.1-6.7,1.02-9.55,2.58-6.5,3.57-14.29,4.02-20.91.68-1.34-.67-2.78-1.37-4.32-2.1-9.12-4.3-22.22-9.47-29.14-9.9-7.54-.47-11.65,3.66-14.66,6.68-2.74,2.74-4.31,4.17-7.34,4.17-5.42,0-10.09-2.36-15.49-5.09-3.42-1.73-6.96-3.52-11.01-4.87-9.08-3.03-15.7,3.64-19.12,9.59-.26.44-.75.67-1.25.56-1.51-.34-3.55-.37-6.14-.35-.05,0-.1,0-.15-.01-.92-.12-11.33-1.36-11.82,2.05-.51,3.57,1.19,5.94,4.25,7.81,3.05,1.87,1.87,4.25,10.02,4.42.7.01,1.32.01,1.89,0,.64-.02,1.16.5,1.17,1.14l.51,76.28-55.89,9.73c-3.82.21-7.08.46-9.42.15-5.21-.68-4.98-11.55-11.55-18.11-6.56-6.57-13.13-8.15-18.11-7.25-4.98.91-18.56,5.66-20.37,9.96-1.81,4.31-8.15,8.15-12.91,8.15s-15.17,2.95-20.83,7.25c-5.66,4.3-22.41,14.49-23.54,18.56-1.13,4.08,3.85,14.72,9.73,19.93,5.89,5.2,14.5,12.9,21.51,13.35,8.72.57,10.47,4.14,12.45,7.14,3.79,5.7,18.57,29.77,23.32,34.29,4.76,4.53,9.47,15.57,9.28,19.25-.36,6.9-6.79,20.83-7.01,26.49-.23,5.66-.23,17.78,1.33,21.62,1.33,3.28,7.8,9.62,7.58,14.6-.23,4.98.67,14.37.45,18.22-.23,3.84-9.82,18-10.04,29.1-.23,11.09,5.43,29.43,5.2,35.31-.22,5.89-4.98,16.53-2.49,20.83,2.49,4.3,13.13,3.62,21.96-.45,8.83-4.08,14.49-2.26,17.21-5.89,2.72-3.62-.45-10.18-5.89-10.64-5.43-.45-13.13.23-14.03-5.2-.91-5.44,4.98-21.51,5.2-28.08.23-6.56.23-9.73,3.17-16.07,2.95-6.34,2.46-10.1,4.08-12.91,3.14-5.43,6.79,1.81,8.6,7.47,1.81,5.66,9.06,14.04,8.38,18.34-.68,4.3-7.7,15.17-8.15,24.23-.45,9.05,6.79,22.64,8.83,28.3,2.04,5.66,7.7,13.13,6.79,18.33-.91,5.21-5.66,10.19-4.3,14.72,1.36,4.53,8.6,4.98,16.98,4.75,8.37-.22,31.01-4.75,31.69-9.28.68-4.53.23-12.22-15.39-12.22s-13.81-7.93-13.59-10.19c.23-2.26,4.53-21.96,3.63-31.02-.91-9.05-4.98-18.79-4.53-23.77.45-4.98,4.75-20.15,5.21-26.03.22-2.85.54-10.53.66-18.47l102.55-18.91c.62-.12,1.03-.73.91-1.35l-1.15-6.09c-.12-.62-.73-1.03-1.35-.91-.07,0-4.37,1.01-4.44,1.01-.63,0-1.16-.51-1.16-1.16l1.3-175.26,27.6-4.81c.75,2.18,1.75,4.05,3.39,4.93,1.76.94,5.76.78,9.21.41-.39,67.22-1.22,169.93-1.79,236.17-.01.43-.25.82-.64,1.02-21.35,10.81-46.4,19.3-51.84,21.1-.6.19-.92.84-.73,1.44l1.89,5.91c.19.61.84.94,1.45.74,6.01-1.97,34.47-11.57,57.57-23.94,10.61-5.69,19.86-11.2,27.13-15.74,1.52-.95,2.94-1.86,4.28-2.72,3.4-2.18,6.21-4.06,8.32-5.49,3.42-2.33,5.54-6.18,5.67-10.32l8.9-276.34c.16-4.91-1.74-9.72-5.21-13.2ZM138.01,176.96c-4.42-3.05-18.34-3.56-22.92-2.88-4.59.68,5.51-10.87,10.01-12.57,1.39-.52,4.33-.76,6.37-.59,2.04.17,3.82-1.79,7.9,2.8,4.07,4.58,9.33,8.32,9.33,11.04s-6.28,5.26-10.69,2.2ZM304.22,63.76c.06-2.13,1.79-3.83,3.91-3.86l5.52-.09c1.12-.03,2.21.41,3.02,1.21.81.8,1.25,1.87,1.24,3.01l.11,7.43c-.02,2.22-1.62,3.57-4.04,3.96l-5.86.49c-2.42-.03-4.34-2.04-4.27-4.46l.37-7.69ZM262.07,57.06c1.16-2.48,4.83-9.15,9.91-7.46,3.46,1.16,6.71,2.8,9.86,4.39,1.91.97,3.85,1.95,5.86,2.83,1.44.64,2.37,2.06,2.37,3.64v7.49c0,2.38-1.94,4.3-4.31,4.27l-19.33,2.12c-2.17-.02-3.92-1.78-3.93-3.95l-.54-12.84c0-.17.03-.34.11-.49ZM254.3,324.93l-25.03,4.23c-.04-5.35-.24-10.01-.7-12.34-1.36-6.79-7.25-16.75-11.32-23.55-4.08-6.79-10.42-23.77-11.78-30.56-1.35-6.79-4.3-24.22-4.3-31.92s2.95-17.66-.45-22.41c-3.4-4.76-6.34-8.83-5.21-14.95,1.13-6.11,3.88-12.28,7.73-14.54,3.85-2.27,18.99-6.74,18.76-12.17-.21-4.86,1.95-10.62-5.04-12.92l37.1-6.46,1.17,176.45c.01.56-.39,1.04-.93,1.14ZM277.72,256.8c-.74.42-1.23,1.22-1.22,2.13l.54,14.56c.02,1.33-1.05,2.42-2.38,2.44l-2.66.52c-1.33.02-2.39,1.11-2.38,2.43l.05,42.14c0,.55-.39,1.03-.93,1.13l-3.65.72c-.71.14-1.36-.4-1.37-1.12l-.75-175.96,14.88-2.59-.13,113.6ZM262.95,141.48l-.21-49.56c-.02-2.22,1.79-4.03,4.02-4l11.16-.93-.06,51.9-14.91,2.59ZM298.52,254.73l-16.55,1.7.13-113.97,16.42-2.85v115.12ZM282.11,138.15l.06-51.51,16.35-1.37v50.02l-16.41,2.86ZM316.08,312.19c-.01.54-.4,1.01-.94,1.12l-2.72.52c-.7.13-1.36-.41-1.36-1.13l.08-39.07c-.01-1.32-1.06-2.39-2.38-2.42l-2.28.47c-1.34-.03-2.4-1.13-2.38-2.46v-12.08c0-.96-.53-1.79-1.33-2.2v-116.07l14.32-2.49-1.01,175.81ZM302.77,134.55v-49.63l10.65-.89c2.2.02,3.96,1.81,3.95,4.01l-.25,44.02-14.35,2.49ZM325.92,130.52l.49-66.43c.03-3.45-1.31-6.68-3.76-9.11-.49-.49-1.01-.93-1.57-1.33-2.02-1.44-1-4.66,1.48-4.52h.08c7.6.48,26.81,8.85,37.13,14.95,4.04,2.39,6.52,6.73,6.54,11.42.02,6.35,0,16.59-.06,29.68-1.37,1.24-3.73,2.78-7.34,3.3-6.34.9-13.81,3.17-13.35,7.02.45,3.85,4.52,2.94,5.88,7.24.31.99.59,2.08.88,3.19l-26.4,4.59ZM383.52,361.02c-1.8,1.02-3.72,2.09-5.76,3.23-.77.43-1.72-.13-1.71-1.01.12-14.11.56-39.78,1.13-70.34l7.06-2.12-.72,70.24ZM384.84,233.01c-.38.55-.6,1.22-.61,1.92v7.28c-.02.91-.62,1.7-1.48,1.96l-4.68,1.41c1.23-65.44,2.57-136.97,2.55-165.67h.07l.19-9.88c.08-4.35,2.35-8.15,5.75-10.37l-1.79,173.35ZM399.23,351.8c-3.16,1.96-6.9,4.17-11.44,6.77l.72-69.08,11.4-3.43-.68,65.74ZM400.52,227.42l-11.41,3.44,1.79-172.97c.73-.16,1.49-.25,2.26-.27l9.11-.21-1.75,170.01ZM408.9,343.28c-.05,1.43-.78,2.76-1.95,3.55-1.06.72-2.19,1.47-3.43,2.27l.66-64.33,6.67-2.01-1.95,60.52ZM412.38,235.32c-.22,0-.45.05-.68.12l-2.7.81c-1.36.41-2.72-.62-2.69-2.04l-.08-3.59c.03-1.24-.57-2.31-1.46-2.97l1.75-170.34,1.63-.04c2.64-.07,5.07.9,6.92,2.75,1.84,1.85,2.81,4.31,2.73,6.92l-5.42,168.38Z"/>
</svg>