<?xml version="1.0" encoding="UTF-8"?>
<svg id="Layer_1" data-name="Layer 1" xmlns="http://www.w3.org/2000/svg" viewBox="0 0 512 512">
  <path d="M263.63,94c27.72-4.87,29.59,19.63,38.73,38.47,2.52,5.19,7.22,9.04,9.65,14.1,9.2,19.17,4.06,46.36,25.63,57.54,4.87.76,4.78-17.61,6.58-23.6,7.66-25.39,35.13-32.09,53.16-12.44,5.78,6.3,7.35,13.52,12.08,20.14,19.71-6.93,23.87,7.73,1.93,9.42,1.18,22.14-10.95,47.9-36.86,44.32-22.3-3.08-29.22-31.65-33.91-32.46-8.92,4.23-14.09,11.52-25.1,9.99-2.98-.42-5.29-2.91-8.28-2.89-2.43.02-21.33,3.74-24.02,4.69-2.07.72-3.94,1.4-5.25,3.3,7.83,17.57,20.42,28.75,24.26,48.82,2.84,14.83-.99,18.96-1.35,30.15-.4,12.61,1.24,29.38-.08,42.17-2.66,25.84-14.13,49.21,1.53,73.46,4.74,7.34,14.1,11.46,13.9,20.86-16.61,3.7-18.36-8.19-26.54-15.01-5.23-4.36-16.73-5.4-18.59-12.07-1.42-5.09,4.76-8.43,5.8-13.16,3.36-15.32-13.75-33.99-13.33-47.06.33-10.16,9.74-20.82,11.94-30.47-.17-2.67-15.19-23.87-18.16-27.66-1.08-1.38.04-3.13-3.87-2.14,6.04,20.51-5.2,39.73-9.68,59.02-6.31,27.14-16.35,60.43-8.5,87.22,2.97,10.13,8.76,17.55,13.07,26.77-8.54-.24-21.42,2.02-27.18-5.88-1.39-1.91-8.24-23.22-8.35-25.64-.19-4.3,2.73-7.75,3.17-11.86,2.17-20.27-9.68-41.27-6.54-60.83,1.57-9.81,14.74-22.09,14.94-28.88.16-5.46-6.33-23.24-7.73-31.13-2.11-11.87-2.43-23.44-4.06-34.96-1.34-9.49-7.57-19.73-3.27-29.8l-22.04,3.39c6.88,59.4-50.61,76.35-66.19,15.24-7.81.78-37.33,9.55-42.48,6.03-3.18-2.18-1.75-7.44.82-9.54,5.16-4.22,30.6-6.14,38.29-6.65-5.75-63.1,51.41-71.56,68-12.01,5.03-1.08,25.56-4.64,25.01-10.59-.91-9.84-15.03-17.2-20.75-23.39-4.23-4.58-19.95-24.97-21.04-29.88-1.82-8.2,6.57-33.31,10.66-41.21,1.66-3.2,16.27-21.32,18.93-23.48,8.81-7.17,17.92-3.44,26.95-8.66,4.58-16.34-11.2-33.53,4.13-46.76,7.33-6.32,12.28-6.92,21.34-4.27,23.74,6.96,14.83,31.02,12.63,49.27ZM285.66,149.98l-5.05,4.25-1.72,58.52c18.25.14,39.14-1.15,29.2-24.96-3.37-8.07-12.89-13.86-17.04-21.97-2.37-4.62-3.29-10.89-5.39-15.84ZM221.22,204.26c.25-5.29.38-9.65-1.29-14.81-1.11-3.42-12.42-20.92-15.32-25.39-3.81-5.87-7.54-4.49-7.13,1.89.13,2.03,16.35,35.2,17.84,36.59,2.12,1.98,3.02,2.07,5.9,1.72Z"/>
</svg>