<?xml version="1.0" encoding="UTF-8"?>
<svg id="Layer_1" data-name="Layer 1" xmlns="http://www.w3.org/2000/svg" viewBox="0 0 512 512">
  <path d="M224.94,469.09c-6.72-1.19-21.91-19.33-23.03-25.43-.96-5.25,2.54-8.85,3.04-13.53,2.21-20.76-8.5-40.45-5.02-61.12-35.3,2.71-38.56-61.51-14.42-75.66,4.56-2.67,16.18-3.78,17.89-6.75,2.08-7.46-3.45-13.73-3.62-21.99-.14-6.8,2.54-13.25,3.58-19.82l-26.9,6.84c4.55,22.8-1.57,61.61-29.32,65.46-20.25,2.81-32.26-9.03-41.78-25.21-2.52-4.29-7.23-18.41-10.13-19.32l-49.59,10.29-2.52-13.71,49.6-12.5c-9.09-75.45,61.97-87.18,81.41-15.37,19.97-2.46,32.46-9.78,47.35-22.38,2.95-2.5,4.81-7.02,8.67-10.31,4.46-3.79,20.72-12.28,22.49-15.58,2.61-4.87-9.13-20.49-10.55-27.49-6.34-31.35,40.33-48.11,51.49-15.26,3.02,8.9,6.88,29.46,4.33,38.09-1.24,4.18-7.77,5.85-8.27,10.68.56,2.36,24.77,9.67,28.57,9.62,7.94-.1,7.6-14.57,23.93-12.12,3.66.55,6.23,3.42,10.41,3.45s9.72-3.05,14.74-1.78c-5.14-32.74,15.69-70.65,52.94-55.54,16.42,6.66,20.78,20.59,29.88,34.1l17.81-2.79c2.23.56,4.11,7.9,1.21,9.58l-17.08,4.53c.41,16.17-.46,31.86-11.41,44.66-14.28,16.69-40.34,15.43-55.32.02-4.36-4.49-15.68-28.35-18.86-27.64-7.85,1.75.87,22.88,1.99,28.99,2.35,12.84,8.89,58.97-12.11,58.44-9.44-.24-31.1-8.55-39-14.23-6.03-4.33-9.79-10.95-14.78-16.25-3.94,8.08-8.83,13.23-16.38,18.1-.75,3.54,1.4,2.42,3.76,3.08,5.95,1.67,11.32.67,17.05,1.97,5.17,1.17,25.5,8.91,29.83,11.58,5.2,3.2,11.52,10.89,12.51,16.97,2.28,14.01-24.03,49.93-31.72,63.39-2.97,5.2-13.15,21.51-13.86,25.91-2.1,13.09,40.79,20.68,31.72,33.35-5.35,7.47-29.61-8.52-35.44-9.71-3.33-.68-6.6,1.22-10.8.65-29.05-3.96.39-34.42.39-50.59v-28.47c-13.74,3.73-31.48-4.39-43.04,6.13-5.25,4.78-4.42,11.92-6.5,17.65-6.15,16.99-20.07,45.45-13.41,62.47,5.54,14.14,23.7,20.13,24.99,34.53-8.14-.99-19.05,1.37-26.74,0ZM350.04,222.36c-9.63,1.14-16.71-.89-24.14-6.91,9.73,21.48,16.9,56.6,24.14,6.91Z"/>
</svg>