<?xml version="1.0" encoding="UTF-8"?>
<svg id="Layer_1" data-name="Layer 1" xmlns="http://www.w3.org/2000/svg" viewBox="0 0 512 512">
  <path d="M234.87,94.42c28.55,2.71,30.79,30.81,45.27,50.21-.57,5.21-6.23,14.29-12.04,13.75l-18.01-14.86c-5.16,37.68,18.69,78.71-1.7,113.31,6.68.59,12.82-3.65,19.4-3.44,18,.59,34.61,23.23,33.26,40.46,6.03,2.71,37.29,2.78,38.68,9.54.25,2.59-1.86,4.01-4.19,4.26-5.25.55-24.3-5.97-32.38-6.6-23.62-1.82-23.75,5.63-41.22,17.63l4.67,9.82c-.13,4.59-7.01,4.71-8.09,13.74-.85,7.14-.72,67.11.85,70.25,22.02,10.68,47.83,14.05,71.28,21.93,8.61,2.6,38.79-24.55,42.8-12.47,2.09,6.28-8.17,11.05-12.88,13.87-8.65,5.19-52.41,29.79-59.02,30.72-2.55.36-5.15.48-7.52-.74-9.45-6.36,18.68-18.34,20.35-22.86l-145.04-40.27c-5.81-1.25-29.97,14.15-32.56,5.53s25.54-14.81,31.13-17.52l-.7-118.61c-7.11-.53-27.92,8.2-32.29,2.66-5.07-6.43,6.86-17.88,6.82-23.81-.04-5.57-9.46-12.76,2.1-16.6,15.77-5.24,36.22-7.69,52.68-11.59l2.72-2.47c-3.74-17.1-1.21-32.73,8.59-47.09-6.43-4.89-9.98-.05-15.96-7.77-10.35-13.35-8.67-40.85-1.31-55.21,3.28-6.4,21.09-23.42,22.1-27.1,2.15-7.86-17.35-24.38,3-35.76,21.62-12.09,33.39,18.71,25.26,35.39-2.1,4.31-6.93,6.51-6.01,11.71ZM243.31,383.72v-49.9l-21.85-9.44,3.24-13.38c-5.99-3.27-28.53-2.49-31.37-6.72-3.95-5.88,6.89-25.9,6.01-27.11l-20.32-5.91,3.52,96.28,60.79,16.18ZM243.04,397.53c-1.23-1.84-38.51-10.78-42.9-10.6-5.9.25-5.65,4.21-9.26,7.79l51.6,16.01c3.24-.29,1.32-12.06.56-13.2Z"/>
</svg>