<?xml version="1.0" encoding="UTF-8"?>
<svg id="Layer_1" data-name="Layer 1" xmlns="http://www.w3.org/2000/svg" viewBox="0 0 512 512">
  <path d="M153.87,468.05c-25.75-2.86-6.77-15.54-5.94-28.59,2.26-35.22-28.09-60.05-24.15-98.43.78-7.53,5.94-17.65,6.22-22.99.62-11.96-8.87-13.54-.35-33.46,6.89-16.11,17.21-15.98,31.94-21.64l-18.87-52.2c6.87-21.51-5.9-44.31,13.85-61.97,8.65-7.73,18.16-7.1,26.5-11.58,2.64-1.42,4.63-4.7,7.44-6.41,4.87-2.96,24.86-13.91,26.67-16.63,4.77-7.17-6.03-20.21-7.06-29.53-2.54-22.94,8.6-44.78,33.78-44.27,35.76.73,35.83,43.32,27.29,68.98-1.78,5.33-8.52,14.38-7.24,18.27,15.3,18.49,43.51,2.68,49.62,30.13,5.1,22.95,4.55,35.23,17.39,57.04,10.3,17.5,23.84,20.51,7.25,42.9.68,3.32,12.73,2.75,17,3.82,11.09,2.78,25.6,15.03,24.48,27.17-.93,10-16.94,38.46-22.76,48.34s-46.52,66.76-46.42,71.38c-.16,2.28,1.31,2.93,2.83,4.06,7.83,5.84,36.18,14.97,40.45,20.12,2.1,2.53,3.28,8.28.13,10.47-8.2,5.71-32.27-6.6-40.93-7.73-10.34-1.35-22.8,4.4-31.79-2.87-13.6-11,2.86-27.28,8.06-38.47,8.64-18.61,8.78-30.19,10.52-50.23.17-1.94.76-3.43-1.3-4.77-1.66-1.08-23.75.77-26.51,1.36-7.68,1.64-16.95,12.34-26,15.55-18.36,6.51-33.64,2.5-50.41-5.68-1.02,13.63-21.42,11.78-24.4,15.69-.99,1.29-3.85,15.65-4.1,18.4-2.28,25.3,9.93,57.87,11.91,83.75-8.06-.63-17.2.88-25.1,0ZM286.28,224.01c-1.32-1.93-12.6-3.24-10.36,4.28,1.79,6.02,14.19,1.34,10.36-4.28Z"/>
</svg>