<?xml version="1.0" encoding="UTF-8"?>
<svg id="Layer_1" data-name="Layer 1" xmlns="http://www.w3.org/2000/svg" viewBox="0 0 512 512">
  <path d="M472.06,90.78l-21.51-.3c-1.82-24.75-17.07-44.09-35.62-44.09-17.19,0-31.54,16.6-34.99,38.74-1.91-4.03-7.32-6.63-18.89-5.26-7.48.89-9.33,5.25-9.3,9.21l-84.88-1.19v-.04c-.45-6.34-4.08-24-10.41-31.24-6.34-7.25-20.38-9.51-31.7-4.08s-16.68,19.84-16.75,24.9c-.06,3.85-6.8,1.08-19.25,2.66-3.03.39-4.53,3.19-5.17,6.62l-12-.17c-1.93-29.14-18.29-51.89-38.18-51.89s-35.85,22.2-38.11,50.82l-56.56-.8c-3.13-.02-5.7,2.46-5.75,5.59-.04,3.13,2.46,5.7,5.59,5.75l56.56.8c1.53,29.76,18.08,53.2,38.27,53.2s36.33-22.87,38.19-52.12l12.08.17c.03.21.07.41.1.6.91,5.04,26.94,26.94,40.07,37.81,13.14,10.86,16.76,19.75,21.74,31.52,4.98,11.78,18.56,16.76,33.96,26.72,15.39,9.96,39.39,26.71,33.5,28.98-5.88,2.26-17.2,7.24-30.79,19.01-13.58,11.78-14.94,41.21-20.37,52.07-5.43,10.87-4.53,49.36-4.53,72.9s9.51,47.55,9.51,59.77-10.41,19.47-22.19,21.28c-11.77,1.81-25.81,8.15-24.9,16.3.9,8.15,21.28,6.34,30.34,7.7,9.05,1.36,21.28,4.98,31.69,4.98s13.59-8.15,13.59-16.3-5.44-18.56-4.99-26.26c.46-7.7,6.34-26.26,11.78-34.41,5.43-8.15,7.69-34.41,7.24-44.38-.45-9.96-6.96-23.77-7.41-28.75-.46-4.98,1.81-11.32,8.15-12.68,6.34-1.36,8.32-9.28,12.85-8.83,4.52.46,6.79,13.13,8.15,21.74,1.35,8.6,0,14.49,0,25.35s1.35,17.21,5.43,28.08c4.07,10.86,4.07,26.26,1.36,38.48-2.72,12.23-3.17,9.97-13.13,10.87-9.96.91-16.3,8.6-15.4,14.04.91,5.43,15.4,2.26,21.28,3.62,5.89,1.36,6.79,6.79,13.13,9.06,6.34,2.26,16.3-.91,18.57-5.89,2.26-4.98-.91-28.53-.45-37.13.45-8.6,4.98-19.47,9.96-28.98,4.98-9.51,4.07-31.98.9-43.3s-14.94-18.56-14.03-27.62c.9-9.05,6.56-8.37,20.6-21.73,14.5-13.8,13.81-29.6,18.79-35.03,4.98-5.44,15.85-18.57,16.75-27.62.91-9.06,0-25.36-9.51-37.59-9.5-12.22-27.62-16.75-37.58-21.28-9.96-4.53-16.3-15-10.41-15.45,5.88-.45,20.37.68,37.13.68,10.54,0,10.41-7.53,8.42-14.69,3.74,1.82,7.76,2.81,11.95,2.81,18.2,0,33.22-18.61,35.5-42.69l21.47.3h.09c3.09,0,5.62-2.48,5.66-5.59.05-3.13-2.45-5.7-5.59-5.75ZM348.82,109.3c-5.07-3.72-10.52-6.77-15.36-9.13l23.47.33c2.65,3.52,6.04,8,7.97,11.06,3.85,6.12-2.49,7.7-16.08-2.26Z"/>
</svg>