<?xml version="1.0" encoding="UTF-8"?>
<svg id="Layer_1" data-name="Layer 1" xmlns="http://www.w3.org/2000/svg" viewBox="0 0 512 512">
  <path d="M195.39,194.48c1.5,1.51,2.82,8.55,5.47,12.34,7.61,10.91,24.77,17.51,31.33,28.04,4.47,7.18,2.91,14.35,10.43,21.8,2.33,2.31,16.26,11,18.91,11.69,5.49,1.43,9.63-1.35,14.76-1.39,31.72-.25,45.08,14.21,72.19,26.34,6.97,3.12,45.67,19.1,50.04,18.88,10.8-.55,24.3-30.34,31.31-34.23,2.04-1.13,2.88-.85,4.37.85l32.77,59.97-55.49,67.88c5.32,6.23,6.49,30.76,14.2,31.8,4.54.61,12.93-4.79,16.89,1.64,1.23,2,3.47,17.73,2.58,18.63-8.41,1.27-16.47-1.54-24.52-1.78-114.87-3.48-232.12,2.09-347.01.9-7.39,16.74-21.77,13.86-18.22-6.36,4.26-24.31,16.04-28.4,14.87-59.79-.19-5.21,1.1-16.32-.22-20.12s-8.21-1.85-8.35-7.04c-1.18-6.19,9.06-5.23,6.98-13.46-.91-27.15-6.15-54.5-6.96-81.59-.14-4.69,1.49-8.18,1.75-12.62-1.8-1.89-21.96,17.35-20.21-2.34,1.07-12.08,8.2-28.79,17.63-36.73,3.41-2.88,8.69-2.73,10.95-6.02,2.86-4.15.99-10.55,3.09-15.57.38-.9,10.66-15.31,11.59-15.6,2.76-.85,11.9,8.83,15.45,11.47,4.55,3.38,21.35,17.09,25.12,12.2,1.19-6.08,5.48-12.44,12-13.53,3.12-.52,18.06,1.38,21.19,2.4,3.6,1.18,5.78,5.79,9.32,6.14,4.28.43,17.56-13.13,25.81-4.79ZM109.25,211.05c2.79-3.02-19.24-17.28-22.02-18.66-2.79,3.02,19.24,17.28,22.02,18.66ZM139.78,270.42c-.03-4.38,3.45-9.41.88-13.55-1.56-2.52-22.62-16.74-27.1-20.42-4.32-3.54-23.07-24.38-28.04-21.26-2.04,1.28-9.36,12.84-5.22,15.47l59.49,39.77ZM146.57,292.47c1.87-1.92-5.35-8.01-6.88-9.22-20.65-16.4-44.66-29.58-66.03-45.06-.51,3.6,2.87,5.54,5.22,7.49,20.09,16.74,46.15,31.61,67.69,46.79ZM134.7,304.38l-59.35-40.74,3.27,70.2,8.48,5.49c-10.03,11.88-3.92,22.22-4.97,36.26,9.88-4.95,15.46,1.36,23.98,2.29,4.18.46,8.27-.98,12.49-.72,7.42.46,14.97,3.17,22.88,1.81,1.03-4.68-4.36-3.93-7.64-6.76-14.97-12.97-23.55-30-13.36-49.01,4.14-7.72,11.62-11.26,14.21-18.83ZM375.59,346.78c-7.74-2.55-14.62-.77-22.45-3.86-8.62-3.41-17.88-18.1-22.85-19.56-11.83-3.49-25.04,4.48-41.21-1.2-2.32-.81-6.88-5.55-8.47-4.23-3.29,2.73,2.62,3.64,3.39,4.17,17.41,11.97,33.82,25.33,51.85,36.42l2.42,6.89c-2.4.05-4.89.25-7.26-.35-10.53-2.68-45.59-33.95-58.35-41.73-2.65-1.62-5.82-3.79-9.01-3.69l80.97,59.14c4.26.62,7.82-4.4,10.68-7.38,7-7.3,13.96-16.66,20.31-24.62ZM316.21,373.92l-72.94-47.51c2.18,3.62,6.24,8.67,6.39,13.01.1,3.05-3.1,5.29-2.22,7.35s31.93,24.53,35.99,26.82c10.91,6.14,18.16,6.55,30.25,3.66,2.56-.61,2.99,1.19,2.53-3.33ZM236.49,377.27l-38.17-28.79c-5.38,12.45-12.16,21.86-24.61,27.96,5.92,4.74,12.63.7,17.83.84,10.51.28,23.25,2.1,33.92,1.87,3.79-.08,7.28-1.74,11.03-1.87ZM269.84,374.46c-2.7-2.62-28.15-20.89-29.94-19.21-.86,3.68,2.06,3.76,3.87,5.44,7.37,6.82,18.01,11.83,25.83,18.28,4.58,1.06.91-3.86.24-4.51ZM82.97,438.36h237.49c.75,0,3.87-3,.76-4.15-22.49-11.36-39.93-31.31-63.93-39.55l-159.14-.49-5.04,1.74-14.33,39.94c-.17.52,3.74,2.45,4.2,2.51ZM336.56,419.73c-15.05-6.44-25.9-22.62-42.39-25.46,11.3,11.76,27.35,20.97,41.54,28.84l.86-3.38ZM355.24,394.25h-39.02c4.91,11.06,51.05,24.01,25.45,33.07,5.72,4.19,15.11,15.9,21.65,8.56-2.07-14.52-10.26-26.69-8.09-41.63ZM399.32,421.4c-2.38-1.74-12.76,12.89-15.25,15.25,7.32.31,13.07,2.53,20.36,0l-5.11-15.24Z"/>
</svg>