<?xml version="1.0" encoding="UTF-8"?>
<svg id="Layer_1" data-name="Layer 1" xmlns="http://www.w3.org/2000/svg" viewBox="0 0 512 512">
  <path d="M419.41,138.78c-.06,3.1-2.58,5.56-5.66,5.56h-.12l-10.41-.2c-3.15,18.85-16.55,33.02-32.6,33.02s-30.05-14.8-32.8-34.29l-8.7-.17c-3.09,1.53-7.13,2.43-10.8,2.43-4.23,0-6.36-1.54-8.17-2.79h-.01l-7.4-.15c-2.68,1.94-5.5,5.51-8.53,8.54-4.42,4.41-16.87,3.62-24,3.62s-9.62,3.28-16.41,6c-6.8,2.72-27.51.68-32.95-1.7-5.43-2.37-9.84,7.19-11.2,13.3-1.36,6.12-4.76,23.78-5.44,36.34-.67,12.57-6.45,24.45-6.11,30.22.34,5.78,10.53,4.42,19.36,12.57,8.83,8.15,14.6,16.98,19.36,26.49,4.75,9.51,1.35,17.66,6.11,29.2,4.75,11.55,4.75,21.06,3.39,26.15-1.35,5.1-1.69,9.85-1.35,23.77.34,13.93-5.44,34.98-6.46,44.83-1.02,9.85-.68,17.32,7.47,23.43,8.15,6.11,23.78,9.51,24.12,16.3.34,6.79-5.44,8.49-15.29,8.49s-11.2-6.79-17.99-7.47c-6.8-.68-12.57.34-18,0-5.44-.34-7.13-10.19-5.44-15.62,1.7-5.43,2.72-15.28,3.06-21.06.34-5.77-4.41-12.56-7.81-19.35s-4.08-27.85-3.4-33.62,10.53-16.64,11.21-20.72c.68-4.07-9.51-9.51-15.62-16.98-6.11-7.47-8.15-2.37-7.81,5.1.34,7.47-1.36,24.11-4.42,28.18-3.05,4.08-6.11,9.17-6.45,18.68-.34,9.51-1.02,23.09-5.77,32.26-4.76,9.17-4.76,13.59-4.42,25.81.34,12.23,8.15,15.96,14.61,20.38,6.45,4.41,13.58,11.54,13.24,15.96-.34,4.41-6.79,4.07-19.02,3.73-12.22-.34-16.3-2.37-21.05-6.11-4.76-3.73-10.19-8.83-10.19-16.3s1.02-15.62,1.7-23.77c.68-8.15-2.04-13.58-4.42-22.07-2.37-8.49-2.71-21.74-1.02-33.28,1.7-11.55,8.49-16.64,14.27-21.74,5.77-5.09-.34-10.87-4.76-15.28-4.41-4.42-13.24-18.34-14.26-27.17-1.02-8.83-4.08-13.58-8.83-19.35-4.75-5.78-8.49-13.59-8.83-23.78-.34-10.18,0-21.39,4.42-28.86,4.41-7.47,14.26-20.04,15.28-26.49,1.02-6.45-3.74-10.87-9.17-18.34-5.44-7.47-4.08-13.24-7.81-30.22-1.48-6.7-1.36-10.81-.66-13.5l-27.3-.53c-3.13-.06-5.62-2.65-5.56-5.78.06-3.13,2.69-5.64,5.78-5.56l31.63.61c1.43-7.2,4.57-20.28,8.67-26.18,0,0,5.1-4.42,8.49-8.15,3.4-3.74,3.06-11.89,1.36-15.28-1.7-3.4-3.06-15.28,0-22.42,3.06-7.13,16.3-11.88,22.75-12.22,6.46-.34,15.47,3.26,22.98,13.24,6.91,9.17,6.12,24.68,4.08,31.47-2.04,6.79-9.74,8.83-6,20.83,1.99,6.39,9.17,9.17,22.07,9.51,12.91.34,18,5.43,23.43,9.51.99.74,2.52,1.36,4.38,1.87l26.01.5c.66-.18,1.21-.39,1.65-.62,5.09-2.71,15.28-2.71,26.49-2.38,11.2.34,12.56-6.79,25.81-6.11,9.2.47,11.63,5.68,12.13,10.4l3.17.06c1.65-21.02,15.86-37.45,33.15-37.45s32.07,17.11,33.22,38.74l10.01.19c3.13.06,5.62,2.64,5.56,5.77Z"/>
</svg>