<?xml version="1.0" encoding="UTF-8"?>
<svg id="Layer_1" data-name="Layer 1" xmlns="http://www.w3.org/2000/svg" viewBox="0 0 512 512">
  <path d="M312.97,233.97c1.18,1.62,18.41,6.42,22.06,9.47,6.77,5.64,15.68,29.99,22,33.21,31.84,8.66,68.13,10.35,99.57,19.21,7.21,2.03,11.81,2.01,11.98,10.91.25,12.93-15.01,11.05-24.48,13.15l-3.59,82.1,28.61-3.24c4.11,1.4,4.86,11.64,4.61,15.49-23.24-1.53-48.23,7.82-65.68,22.76-56.31-9.34,9.87-19.26,14.09-28,1.67-3.46,1.78-27.12-.81-28.94l-34.95-7.74c-4.92,22.3-30.07,43.51-51.44,25.92-15.02-12.37-9.77-39.64-13.35-42.62l-46.16-11.21c-3.73,1.08-4.2,21.86-5.94,27.38-3.69,11.71-20.77,33.9-34.29,33.6l-46.61-14.87c-7.35,12.75-28.77,36.82-29.63,51.03-.37,6.03,4.18,10.39-.99,16.35-2.58,2.97-22.65,14.14-26.94,15.02-5.59,1.15-31.79,3.38-31.65-3.63,3.23-6.62,12.75-9.97,18.4-14.87,26.62-23.13,34.84-57.05,42.94-90.05-2.64-3.26-12.22-15.48-15.78-13.09-4.47,25.03-28.9,34.49-40.54,56.54-7.07,13.39-2.01,11.45-3.07,23.07-1.28,13.97-19.08,6.25-28.6,8.23-4.04.84-34.47,17.02-36.24,7.43,2.09-11.26,13.54-12.25,20.88-17.56,7.85-5.68,18.34-14.04,23.58-21.89,13.47-20.19,14.22-49.08,25.42-70.74-20.2-6.34-30.45-23.21-28.06-44.38-5.83-.12-25.19-5.55-17.31-13.34,5.53-5.47,15.36,3.75,19.18,1.91,4.13-1.99,5.94-9.09,8.79-12.35,10.72-12.26,23.26-18.67,39.16-11.17,19.22,9.06,15.42,34.07,19.71,36.68,13.06,6.82,45.27,3.26,51.3-11.54,1.56-3.84-12.24-4.68-13.16-9.64-6.35-15.35,34.58-16.08,42.98-18.23,4.95-10.15,7.26-22.37,19.47-26.07,11.37-3.44,20.46,6.93,31.04,4-3.12-16.61-5.11-29.16.61-45.73,6.69-19.4,24.41-21.73,38.85-8.34,18.86,17.5-4.79,36.09-5.97,55.78ZM423.02,363.56v-34.1l-2.95-2.3-32.05-4.68c4.27,10.94,2.98,21.07,4.33,32.4l30.67,8.68ZM328.59,335.58c-9.12-.26-18.08-2.39-27.05-3.7-2.64-.39-3.88-2.46-6.17,1.07,8.07,1.55,17.27,5.23,25.34,6.12,3.44.38,9.32,1.6,7.88-3.5Z"/>
</svg>