<?xml version="1.0" encoding="UTF-8"?>
<svg id="Layer_1" data-name="Layer 1" xmlns="http://www.w3.org/2000/svg" viewBox="0 0 512 512">
  <path d="M135.47,401.82l-23.33-23c-.7-6.62,10.35-13.41,11.29-17,1.16-4.44-3.14-8.37-.6-13.89,4.32-9.43,11.73.96,15.87-1.88,5.24-15.17,1.88-32.2,23.54-25.34,6.77-17.46,11.84-27.87,30.08-34.83,5.27-2.01,11.41-1.85,16.11-4.12,8.18-3.96,14.45-27.77,23.41-37.28,3.5-3.71,14.57-10.09,15.82-12.98,1.41-3.25-1.05-6.54-.64-10.45,1-9.56,17.49-24.15,25.79-28.32,4.8-2.41,13.02-2.99,15.24-4.99,9.49-8.53,16.61-49.55,23.58-64.08,10.87-22.67,29.59-29.21,51.14-39.04-4.8-30.08,20.72-54.07,47.42-32.54,13.48,10.88,7.61,20.2,4.16,32.7-1.23,4.47.21,8.42-2.31,12.86-.37.64-6.49,7.46-10.25,11.34-1.64,1.69-4.04,2.4-6.34,1.88l-10.48-2.36,6.6,12.77c1.63,10.51.61,19.67-1.69,29.98.36,1.82,11.15,2.37,9.96,11.62-.4,3.1-16.21,34.51-18.19,35.86-4.57,3.12-4.24-5.83-9.71-7.37-4.72-1.33-12.85,2.77-19,.46l-47.31,53.93-1.57,6.02h29.5l2.52,4.19c-5.57,8.2-25.76,1.33-29.6,4.11s1.55,14.66-1.59,20.34c-1.19,2.15-21.47,11.02-17.68,15.17l52.86,5.31,2.77,8.18c-2.23,2.33-57.22-3.71-63.25-9.66-9.6,9.41-22.9,13.09-29.46,25.71,4.69,2.22,7.17,5.4,6.72,10.93-5.43-.02-11.46.03-10.12-6.74l-8.33,6.1c17.69,22.3,50.75,32.28,48.8,66.4h34.56l1.83-3.44-3.63-28.65c5.1-1.81,17.05-6.06,19.16,1.24l9.48,94.94-20.95-.03-1.67-43.01-2.78-3.97-138-.24c-4.93.53-4.49,6.25-7.67,9.24-6.57,6.16-11.22-4.8-16.13-7.34-13.02-6.72-67.17,2.83-71.43-.23l9.49-20c1.49-.25,2.69,1.48,3.15,1.48h32.87ZM234.93,317.55l-21.74,9.43c-11.34,14.04-32.78,23.52-44.59,34.64-1.23,1.16-3.38,1.49-2.77,3.93l10.1,6.89,59-54.88ZM186.04,401.82h88.5c2.27,0,3.34-6.57,2.18-8.85-10.02-20.82-32.65-32.79-49.15-48.34-6.69,10.19-36.85,29.86-40.76,38.72-1.68,3.82,2.99,12.92-.78,18.47Z"/>
</svg>