<?xml version="1.0" encoding="UTF-8"?>
<svg id="Layer_1" data-name="Layer 1" xmlns="http://www.w3.org/2000/svg" viewBox="0 0 512 512">
  <path d="M288.2,247.54c3.76,3.32,3.41,9-.29,12.39-3.31,3.02.61,10.11.54,17.01-.11,10.73-8.26,36.35-11.4,48.13-6.63,24.81-22.24,65.36-23.48,90.11-.82,16.32,8.41,34.37,11.93,50.16-25.64,20.81-40.29-17.38-53.77-33.27-.33-3.83,6.21-6.31,7.57-9.33,6.1-13.49-9.42-44.64-7.79-58.3,1.46-12.29,19.54-27.07,19.29-36.74-.21-8.03-7.83-18.9-9.83-27.05-2.8-11.4-.15-18.8-.91-28.68-.95-12.52-11.01-23.55-10.13-37,.23-3.53,4.47-7.42,4.4-13.6-.24-20.31-12.71-59.15-10.63-76.52.61-5.12,4.72-8.15,5.61-11.49,1.84-6.95-.44-12.45,4.17-20.28,3.94-6.7,22.83-22.89,23.94-28.64,1.17-6.06-12.07-16.87-7.67-31.94,3-10.28,19.07-17.62,29.15-16.43,17.31,2.05,27.57,36.53,17.23,48.85-3.36,4.01-10.78,4.69-10.5,11.98.53,13.65,21.88,23.22,24.31,38.73,1.68,10.67-3.02,15.5-4.68,24.79-3.23,18.15-9.39,51.97-7.43,69.41,1.09,9.69,5.67,13.57,10.37,17.72Z"/>
</svg>