<?xml version="1.0" encoding="UTF-8"?>
<svg id="Layer_1" data-name="Layer 1" xmlns="http://www.w3.org/2000/svg" viewBox="0 0 512 512">
  <path d="M239.31,45.05l-.86,12.9c-.23,3.53,2,6.76,5.39,7.76,2.86.84,5.72,1.58,8.6,1.77,5.06.33,9.41-3.54,9.63-8.6l.71-16.1c.04-.85.39-1.68,1.06-2.21,1.06-.84,1.81-.12,3.41.24,8.61,1.94,13.46,14.07,16.21,21.67,6.7,18.52,23.53,65.56,21.45,83.21-1.16,9.84-10.47,19.28-11.81,27.8-2.96,18.86-.36,41.15-6.17,60.93-4.86,16.53-8.85,20.22-7.24,40.01,1.96,24.04,17.06,31.89,24.94,52.5,5.13,13.43,5.13,27.27,9.9,40,4.53,12.09,14.88,21.59,19.37,33.97,7.43,20.47,4.39,33.72,17.89,54.38,3.05,4.66,9.18,6.98,8.31,13.18-7.9,3.23-19.66.16-24.17-7.65-3.14-5.43-3.21-15.63-6.49-22.76-5.33-11.58-17.43-21.29-23.35-33.44-3.84-7.89-5.49-15.98-10-24.42-11.44-21.39-29.23-41-40.21-63.03-7.8-11.54-16.37,13.62-20.67,20.4-15.8,24.91-25.22,38.21-37.66,65.58-5.51,12.12-15.63,20.38-21.85,31.49-8.9,15.89-6.9,40.32-32.41,33.82-1.81-8.06,5.9-10.27,9.36-15.58,12.1-18.57,9.45-34.44,16.14-52.69,4.4-12.01,16.06-21.49,20.06-33.29,4.69-13.84,4.09-28.03,10.41-42.93,5.28-12.46,17.56-23.5,20.69-34.38,1.98-6.88,4.34-30.16,3.71-36.84-.52-5.5-7.7-15.98-9.37-23.03-4.35-18.35-1.24-39.29-4.27-55.95-1.29-7.08-7.61-12.86-10.01-19.24-7.98-21.19,5.5-50.59,12.17-70.6,4.81-14.43,6.27-37.39,22.01-42.81,2.62-.9,5.32,1.13,5.14,3.9ZM261.62,131.65c3.56,3.55,4.09,27.34,11.68,20.33,2.2-2.04,7.77-26.16,7.79-30.2.04-5.29-4.76-37.65-6.62-41.71-5.58-12.17-31.97-12.15-42.34-5.4-8.68,5.65-7.21,22.27-8.44,31.13-.64,4.62-3.67,11.08-3.87,14.2-.16,2.46,5.87,27.97,7.06,30.04,7.44,12.99,9.49-10.41,10.64-13.21,3.74-9.12,17.65-11.63,24.11-5.2Z"/>
</svg>