<?xml version="1.0" encoding="UTF-8"?>
<svg id="Layer_1" data-name="Layer 1" xmlns="http://www.w3.org/2000/svg" viewBox="0 0 512 512">
  <path d="M397.86,363.64l-122.4-15.19c-.82-.1-1.29-.97-.94-1.71,2.98-6.19,5.87-14.63,5.82-21.16-.06-10.57-9.18-26.37-7.62-34.94,1.69-9.23,17.41-22.5,22.04-32.26,3.51-7.39,4.65-16.01,8.9-23.17,2.98-5.02.8-11.52-4.49-14-10.83-5.08-24.93-12.81-23.01-21.93,2.2-10.42,19.53-23.01,3.54-37.24-19.32-17.21-34.94,4.44-34.86,24.56.04,7.72,4.03,11.66,4.45,18.34.04.65-.44,1.23-1.09,1.29l-15.53,1.43c-.67.06-1.27-.44-1.31-1.12l-8.58-132.92c-.01-.16.01-.31.06-.46,2.59-7.65,4.87-15.36,6.53-23.21.13-.63-.26-1.25-.88-1.41-5.28-1.36-14.79-5.73-18.22-1.59-3.59,4.34-11.27,35.63-14.8,44.43-2,4.99-3.46,10.55-7,14.64-1,1.15-2.81-.26-1.9-1.48,1.01-1.35,2.64-2.73,2.64-4.28,0-3.6-9.43-6.97-12.9-7.49-7.69-1.14-25.23-1.77-33.66-1.88-9.99-.13-19.58,1.07-29.42,1.67-.9.05-1.42,1.03-.97,1.81l1.49,2.52c.21.35.58.58.99.59l10.43.37c.65.02,1.16.55,1.16,1.2l.07,312.5c0,.56-.39,1.05-.93,1.17l-15.19,3.51c-1.02.24-1.28,1.58-.41,2.17,8.17,5.56,21.52,3.1,28.97,6.38,4.59,2.03,2.73,6.5,14.1,7.91,3.48.43,28.59,2.19,30.01,1.7,4.72-1.66,2.8-8.54,3.3-11.03.07-.36.32-.66.65-.82l2.49-1.22c.26-.13.56-.16.84-.08l54.2,14.44c.94.25,1.77-.66,1.44-1.58l-4.04-11.06c-.2-.56.03-1.18.55-1.47l5.38-2.97c.41-.23.66-.68.62-1.15-1.36-16.35-2.31-32.6,1.33-48.78.14-.61.72-1.01,1.34-.93l100.64,13.02c.27.03.51.16.7.35l3.66,3.72c.16.16.27.36.32.58l16.42,72.36c.06.27.03.56-.1.81l-3.42,6.78c-.35.7.05,1.55.82,1.72l20.31,4.36c.86.18,1.62-.59,1.42-1.45l-19.51-84.74c-.17-.73.36-1.42,1.1-1.47,14.31-.92,55.63-8.06,24.75-20.05-.09-.04-.2-.06-.3-.08ZM171.17,173.81l-11.16.03c-.68,0-1.23-.56-1.21-1.24.53-14.7.4-38.03,1.45-50.1.05-.62.58-1.09,1.2-1.09h9.48c.7,0,1.24.59,1.19,1.29-1.15,16.84,4.08,33.55.23,50.17-.13.54-.62.93-1.18.93ZM161.59,187.44h9.48c.64,0,1.17.51,1.2,1.15l.85,18.33c.02.52-.29,1.01-.78,1.18-16,5.83-11.77-8.06-11.95-19.43-.01-.68.52-1.23,1.2-1.23ZM155.58,173.85l-16.01.04c-.67,0-1.21-.54-1.21-1.2v-53.21c0-.75.68-1.32,1.42-1.18l16.21,2.95c.57.1.99.61.99,1.19l-.2,50.22c0,.66-.54,1.2-1.2,1.2ZM139.57,187.5c4.67-.38,13.18-3.64,16.27-.64.26.25.4.6.37.96l-1.23,18.59c-.04.58-.48,1.04-1.05,1.11l-14.22,1.76c-.72.09-1.35-.47-1.35-1.2l.09-19.4c0-.63.49-1.14,1.12-1.19ZM156.86,326.97c-8.17,11.22,8.85,67.61,8.83,77.48,0,.76-.73,1.36-1.46,1.16-5.11-1.41-8.83-9.75-14.6-8.12-5.59,1.59-2.25,14.74-10.24,13.59-.59-.08-1.03-.6-1.03-1.2l-.02-96.03c0-.64.5-1.17,1.15-1.2l33.49-1.59c.87-.04,1.5.83,1.18,1.64-1.67,4.3-16.22,12.77-17.3,14.27ZM160.5,108.59c-.11-.45-.47-.82-.92-.91-3.8-.76-2.31,4.09-5.32,5.06-3.96,1.3-9.64-.82-14.23,1.03-.8.32-1.66-.24-1.66-1.1l-.02-10.29c0-.69.57-1.24,1.26-1.2l33.39,1.59c.54.03,1,.4,1.12.93,3.23,14.71-10.52,17.23-13.62,4.9ZM194.15,173.63c.32-31.06,13.42-59.23,24.2-87.89.46-1.21,2.24-.94,2.32.35l7.33,120.52c.04.66-.47,1.24-1.13,1.28-4.47.28-8.76-2.06-13.14-1.93-5.32.17-12.31,4.5-17.73,4.49-5.45,0-2.64-16.29-1.43-20.12,1.76-5.54,14.45-9.95.35-15.57-.47-.19-.78-.64-.78-1.14ZM193.09,218.41l1.75-1.08c1.21-.74,2.65-1,4.04-.73l8.13,1.59c.28.06.55.2.72.43,1.02,1.4,1.77,5.39,1.8,6.94.06,4.34-10.01,35.39-12.32,40.18-.95,1.96-1.6,3.07-3.48,3.07-.66,0-1.2-.54-1.2-1.21v-48.18c0-.42.22-.81.57-1.02ZM192.52,402.76v-39.98c0-1.05,1.27-1.61,2.03-.88,11.74,11.31,15.13,31.01,22.54,45.7.42.83-.2,1.79-1.12,1.76-5.36-.23-19.74-3.1-23.01-5.67-.28-.22-.43-.57-.43-.93ZM200.25,305.82c-11.35-1.79-7.47-11.77-7.48-20.77,0-.53.33-1,.83-1.16,10.01-3.09,19.69.05,29.13-5.47.83-.49,1.87.12,1.82,1.08-.91,17.85-1.99,29.84-24.3,26.32ZM233.29,402.23c-5.75-2.08-9-19.59-8.87-25.25.02-.83.86-1.38,1.64-1.08,1.3.5,2.85,1.08,3.26,1.58,1.61,1.94,5.26,18.53,5.61,23.54.06.88-.8,1.52-1.63,1.21Z"/>
</svg>