<?xml version="1.0" encoding="UTF-8"?>
<svg id="Layer_1" xmlns="http://www.w3.org/2000/svg" version="1.1" viewBox="0 0 512 512">
  <!-- Generator: Adobe Illustrator 30.0.0, SVG Export Plug-In . SVG Version: 2.1.1 Build 123)  -->
  <path d="M259.9,48.9l.8,96.6c5.7,7.9,13.8,2.4,22.6,10.1,16.8,14.6,5.7,29.1-7.2,40.5-.9,4.7,10.5,16.1,13.1,20.8,1,1.8,8.6,19.6,8.7,20.7.9,5.9-8.4,16.1-9.7,22.4s.9,14.9,0,21.6l16.1,20.2,10.4-6.9c23.7,5.3,2.8,16.4,3.1,21.6l16.6,22.4c-7.3,3.6-19-17.3-23.2-17.7l-35.3,31.4c1.6,2.5,3.4,2.4,5.9,2.7,39.4,4.5,88.2-8.5,123.8,14,16.4,10.4,23.8,25.5,36.5,39.4l.9,4.1-30.3,59.3-15.5-6.6c9.2-16.3-10.2-35.6-22.6-44.5-14.8-10.7-33.7-12.6-51.4-14.1-35-2.9-71.7-.7-106.7-5.2-9.5,1.5-21,23-27.6,23.4l-92.2-18.2c-2-10,15.8-11,14.7-19.1l-45.7-111.7,59.8-29.1,3.9.5,3.3,5.1,4.3.9c3.6-1.5,5.6-9.6,7.9-12.7,11.6-15.1,20.5-1.6,24.1-3.4,1.2-.6,8.8-13.1,9.3-14.8,4.5-13.7-.2-47.3-.8-62.7l-.9-111.2c2-3,37.7-10.4,43-10.3,5,0,37.8,8.1,40.1,10.8h0ZM165.1,290.1l-3.8-1.5c-14.5,6-4,23.2,0,33.7,3.7,1,14.6-9.7,17.6-12.9l-13.9-19.4h0ZM258.6,337.8c2.2,2,10.9-5.3,12.9-6.9,3.4-2.7,26.1-21.8,26.6-23.5,1-4.1-11.6-15.4-14.5-19.4l-25,49.9ZM372.3,370.5l-94-3.5-8.4,1.6-1,5.3,101.4,3.2,2-6.6h0ZM411.9,436c.8-7.3,8.8-15.5,10-22,3-15.1-23.8-37.6-38.1-39.9l-18.4,23c9.2,7.2,20.9,12.4,29.3,20.7,3.1,3.1,14.1,20.3,17.2,18.1h0Z"/>
</svg>