<?xml version="1.0" encoding="UTF-8"?>
<svg id="Layer_1" xmlns="http://www.w3.org/2000/svg" version="1.1" viewBox="0 0 512 512">
  <!-- Generator: Adobe Illustrator 30.0.0, SVG Export Plug-In . SVG Version: 2.1.1 Build 123)  -->
  <path d="M221.5,93.3c-.2-1.4-2.1-3.8-2-5.9-14.5-.8-22.7,3.4-20.5-14.8,1.4-11.5,4.3-18,17.2-17.3l-1.6-14,87.4-8.6c26.4,3.6,48.5,22.3,45.1,50.9,2.3,2.3,24.1-9.6,36.8,8.2,11.1,15.6,2.4,21.8,1,36.5-1.6,17.5,8.7,32.9,11.9,49.7,3.6,5.7,15.7,5.1,15.8,10.7l-60.1,106.2c2.1,7.3,21.4-5.9,21.1,1.8-.2,6-18.6,3.1-23.9,7.9-2.9,2.6-7.4,17.9-7.9,22.2-2.8,25.6,7.3,17.1,20.3,29.2s13.9,42.4,18.9,58.9l13.8,9.2-20.7,16.5-18.5-4.7-106.3,26.5c-4.5,1.5-2.4,8.8-5.1,11.6-7.5,7.9-35.1-8-25.1-20.7,2.7-3.5,15.7-4.4,12.4-10.7-3-5.8-16.5-5.2-22.8-9.1-5-3.1-7.4-10.6-12.7-12.1-4.3-1.2-1.9,5.3-3.5,8.8-2,4.4-26.3,12.2-32.3,13.6-16.3,3.9-26.2,2.8-40.9-4.9-1.1-11,14.4-8.7,19.3-16.7-7.3-4.4-11.8-4.4-10.8-14.8-2.3-3.9-35.1,11.7-36.9,2.4-1.8-9.6,30.3-19.4,36.6-26.1,3.2-3.4,6.4-22.6-.3-22.5-3.3,0-4.8,4.5-7.4,5.1-4.6,1.2-27-9.9-28.5-15.2-2.3-7.9,13.1-37.1,17-45.8.4-3.7-10.8-28.4-11.8-35.2-2.2-14.1,1.1-32.7-.1-47.6-.6-7.3-4.8-14.3-3.5-22.1,12.9-.5,21.4,12.4,31.2,17.4,11.9,6,39.1-10.6,53.3-10.7,2.4-1.7,1.8-22.8,12.3-25.9,8.5-2.5,22.6,12.7,32.3,12.1v-99.9h0ZM221.5,237.4l-.8-24.9-20.4-5.2,5.3,12.4c-3.9-2-7.3.9-7.1,5.3l23,12.4h0ZM101.3,341.7c7.8,7,37.5-33.7,12.5-31.7l-12.5,31.7ZM186.1,354.1c-1.4-2.7,6.2-19.8.9-19.4l-9.7,15.1,2.9,4.1,6,.2h0ZM295.8,364.8c-3.8-.6-33.6,1.2-26.5,8.8,8.4-4.2,22-.5,26.5-8.8ZM267.5,392.1v44.2l3.6,2,97.3-26.7c.3-5.4-5.6-33.1-7.7-38.5-.9-2.2-2-3.9-4.3-4.6l-16.5,1.5c-.1,4.4,5,5.5,7.1,9.7,1,2.1,2.5,3.3,1.8,6.2-26.9-3.5-51.7.8-78.4,3.8l-2.9,2.4h0ZM253.4,393c-14.6-1.8-14,6.2-12.3,18.5.9,6.4,5.4,12.6,12.3,13.4v-31.8h0Z"/>
</svg>