<?xml version="1.0" encoding="UTF-8"?>
<svg id="Layer_1" xmlns="http://www.w3.org/2000/svg" version="1.1" viewBox="0 0 512 512">
  <!-- Generator: Adobe Illustrator 30.0.0, SVG Export Plug-In . SVG Version: 2.1.1 Build 123)  -->
  <path d="M460.4,212l-36.2,10.4c-.5,3.4-.3,2.8,2.1,3.9,7,3,19.8.6,28,1.3,4,.3,21.3,1.6,19.9,7.7-.6,2.6-41.7,9.7-49.6,14.3-16.5,9.6-25.4,82.8-35.8,103.9-4,8.2-8.6,7.2-14.4,12.9,7.5,10.5,16.1,19.8,13.1,34.1-2,9.5-20.8,36.8-26.4,47.8-4.3,8.5-6.6,17-11.1,25l-20.8-.8-1.6-14.8c-53.4.1-108-2.7-161.5-.8-4.1.1-7.9,1.6-11.9,1.9-4.7.3-12-1.8-15.7-.5s-3.1,4.3-4.9,5.6c-5,3.7-17,.7-23.5,1.6l1.6-11.3c15.2.7,22.5-3.3,32.9-13.7,0-2.3-28.9-26-31.9-33.6-6.2-15.9,0-41.7-4.2-59.2-20.1-8.9-15.1-18.8-10.6-36.4l-3.7-2.4c-19.2,4-49.8-1.6-54.1-24.4-2-10.6,7.5-28.9,18.2-32,19.5-5.8,31.9,12.4,50.9,9.5,13.1-2,23.8-21.1,33-22.3,7.1-.9,23.9,8.5,29.9,13.1,5.1,3.9,6.1,10.4,12.2,9.3-3.5-17.9-1.3-37.6-1.6-56.1-.6-30.6-8.4-89.1.8-116.3,7.4-21.8,25.2-28.1,46.4-29.5,17.8-1.2,60-2,74.6,6.6,14.6,8.6,20.9,29.9,21.3,46,1,42.4-2.5,86.9-3.6,129.4-.1,5.7-1,36.3,1.7,38.1,1.9,1,4,1,6.1.9,4.6-.2,32.7-16.6,34.6-20.9,3-6.9-9.3-38.8-7.8-48.9.9-6.2,8.7-11.7,14.3-13.5,13.8-4.5,16.2,8.7,21.1,9.2,3.2.3,7.4-3.4,11.1-4.5,7.8-2.3,23.8-7.4,31.2-6.9,8.8.6,23.5,7,25.8,16.4h0ZM212,279.3v-47.4l24.9-11-1-137.1c-1.5-4.6-19.6-1.5-24-.4-11.6,2.8-16.2,11.3-17.2,22.5-4.6,51.9,6,109.6,1.8,162.3l2.1,7.3,13.4,3.8h0ZM270.7,82.6c0-1.4-25.1-4.1-27.6.9v136.3c6,4.2,21.4,4.2,27.6,0V82.6ZM308.6,275.8l1.6-175c-1.3-7.9-11.2-15.3-18.5-17.7-4.9-1.6-13.2-5-14.2,2.1l-1.8,132.8,1.7,3.4,21.6,9.4.8,42,8.7,2.9ZM200.5,345.4c-9.9,11.2,18.4,11,18.3-1.2-4.2-7.1-14.1-3.6-18.3,1.2ZM294.8,438h42.3l21.6-40.5c-3.3-4.3-8.9-1.9-13.9-3.4-7.5-2.3-15.9-11.4-24.1-8.7,4.5,7,16.1,5.7,13.6,16.2-6.6,2.3-14.2,5-21.4,3.6-3-.6-14-16.5-19-8.7-4.2,6.5,2.5,32.6.9,41.5h0ZM162.8,389.7c-10.4-2.1-26.8,1.5-37.9,0l-1.8,3.5c1.4,6.1,23.5,27.6,29.5,32.7,5.1,4.3,14.2,12.6,20.6,12.3,11.2-.6,24.1-33.2,31.9-41.6-8-1.6-3.6,5.9-10.8,9-19.6,8.5-19.5-13.6-31.5-15.9h0ZM281,396.6h-50.9l-25,41.4h77.6l-1.7-41.4Z"/>
</svg>