<?xml version="1.0" encoding="UTF-8"?>
<svg id="Layer_1" data-name="Layer 1" xmlns="http://www.w3.org/2000/svg" viewBox="0 0 512 512">
  <path d="M249.84,36.95v179.46l17.25-24.09c11.68-20.4,9.88-25.67,13.44-46.38,4.15-24.12,25.09-25.53,44.93-29.86-6.66-17.02-9.33-43.65.99-59.69,13.81-21.46,50.09-10.48,48.18,16.38-.69,9.77-7.29,16.64-8.69,25.75,11.42,3.49,43.82,8.88,52,15.75,6.64,5.58-7,22.16-6.25,29.99,7.23,1.78,30.71,5.22,35.23,9.65,1.94,1.91,4,8.24-.92,7.99-7.14-.36-34.63-14.57-37.73-12.29-3.8,12.99-9.88,25.49-13.38,38.57-.66,2.48,1.03,5.3.53,7.55-2.94,13.41-12.15,20.48-16.29,32.98-4.66,14.09-13.27,48.09-14.92,62.49-.8,7.02-1.59,26.55-.09,33.1.56,2.45,9.51,2.38,8.85,7.31-12.97,4.21-8.49,14.78-8.8,26.4-.15,5.47-4.73,11.99.79,16.85,6.77,5.95,23.71,3.16,21.78,17.89-1.11,8.46-5.69,11.63-13.94,9.4-3.89-1.05-5.91-8.83-12.14-7.36-33.37,18.65-67.88,35.34-101.47,53.55-7.7,4.17-45.14,27.97-49.32,28.18-4.75.25-12.08-17.69-7.1-22.16l54.07-26.86-88.85-45.83-71.26,32.79-6.83-15.62c3.52-7.36,15.48-5.43,15.8-14.4.35-9.84-4.15-27.89-5.44-38.74-.54-4.55.68-9.24-.29-13.78l-15.27-9.36.6-32.22c-2.04-4.41-11.43-9.59-14.41-12.89-1.64-1.82-2.02-5.09-4.03-7.4-3.47-3.98-12.06-7.16-9.35-12.73,1.92-3.94,7.44-3.75,7.54-10.28.09-6.1-7.35-8.97-4.96-17.06,3.06-10.35,15.33.11,21.31-1.52,3.3-.9,12-12.47,17.93-15.63,21.38-11.42,33.39-1.17,36.17,21.14l17.6-6.08-1.04-166.42,97.75-24.53ZM212.87,61.57l-22.67,5.46-.17,10.38,24.57-5.33-1.73-10.5ZM234.01,102.05c-10.16-1.23-11.59,2.32-12.4,11.35-2.4,26.7,1.49,57.63.69,84.66,1.22,2.68,10.05,5.41,11.71,1.63v-97.65ZM216.41,107.33l-12.32,1.76v93.25l12.32-1.76v-93.25ZM200.57,110.84l-12.41,2.79.11,95.74c.61.6,15.14-4.22,14.16-7.94l-1.86-90.59ZM181.01,114.57l-10.34-1.96,1.77,103.8,10.62-4.67-2.05-97.17ZM154.82,246.33c-15.77-1.04-2.54,15.92-18.55,19.26-3.31,5.16,3.14,8.11,7.58,8.58,10.48,1.09,2.7-10.15,4.09-14.36,1.02-3.09,10.3-4.66,6.87-13.48ZM158.35,363.33v-29.91c-1.27-1.61-1.82-2.3-4.01-2.34-9.6-.17-25.72,10.11-36.28,10.43l3.36,40.29,36.93-18.47ZM214.64,334.31l-38.75-2.76c-3.71,2.65-.82,20.4-1.7,25.62,10.76-5.12,26.17-9.25,35.76-16.12,2.41-1.73,5.29-3.17,4.68-6.74ZM346.62,336.05c-1.49-1.48-36.43,3.74-41.63,5.04-2.44.61-4.88-1.09-4.11,2.86l43.95,22.02,1.78-29.92ZM263.92,406.43v-43.11c-7.27-6.28-16.49-11.59-25.51-14.83l-48.4,21.86,73.91,36.07ZM300.87,367.73v36.95c2.97-2.03,41.2-20.41,38.71-22.85l-38.71-14.09Z"/>
</svg>