<?xml version="1.0" encoding="UTF-8"?>
<svg id="Layer_1" data-name="Layer 1" xmlns="http://www.w3.org/2000/svg" viewBox="0 0 512 512">
  <path d="M307.84,117.24c.73.66,4.47,2.55,4.63,2.32,3.65-14.27-7.63-10.62-13.94-18.19-13.75-16.49,3.54-50.85,26.56-35.71,2.29,1.51,3.24,6.38,7.68,6.68,3,.2,7.3-5.2,16.67-2.74,23.61,6.18,9.62,46.56-8.11,44.74-3.94-.41-15.86-9.83-16.68-4.3-.17,1.12,4.55,15.05,5,19.3,2.62,24.49-2.13,51.69-31.9,33.68l-2.65,4.35c1.34,9.51-1.86,18.67-1.85,27.81.02,10.56-.6,26.93.13,36.48,1.21,15.82,12.88,32.44,15.21,47.36,4.39,28.12-8.89,49.1-10.98,75.11-.52,6.42,1.53,14.26.94,21.79-1.09,13.92-9.7,40.83-8.65,52.01,1.55,16.53,31.91,15.22,33,30.56-10.67,1.07-20.54-2.99-31.03-4.19-6.23-.71-14.91,2.94-21.27-2.17-.99-11.6,3.18-21.64,1.72-34.29-3.12-26.97-17.19-26.76-6.35-58.87,3.15-9.33,12.91-20.58.48-29.09-1.89,1.25-2.87,2.84-3.89,4.82-3.66,7.16-9.71,26.81-11.8,35.13-3.63,14.46-13.06,64.15-8.23,76.05,4.13,10.17,22.73,14.02,21.29,26.51-10.31.84-39.02-1.2-41.43-13.45-1.23-6.24,2.87-14.84,2.71-21.7-.51-20.96-15.72-46.63-7.34-67.38,3.49-8.64,14.21-17.21,14.87-26.98.65-9.55-8.46-26.13-8.82-38.28-.28-9.25,2.96-17.53,1.61-27.59-.83-6.22-5.63-13.41-5.93-19.21-.78-15.01,6.78-30.29,11.38-43.42,8.9-25.42-7.69-30.67-15.71-52.37-12.28,2.51-38.97,12.24-43.11-5.44-4.11-17.53-.96-35.22,1.38-52.65-16.5,2.25-21.68-2.62-26.9-17.42-6.19-17.54,8.9-43.9,27.38-31.32,2.7,1.83,5.06,8.79,9.3,10.38,4.54.8,9.3-17.99,25.04-13.04,19.98,6.29,18.49,49.9-2.8,51.4-5.78.41-10.28-6.1-16.39-5.21-1.08,1.13,1.27,24.86,1.92,28.49,3.03,16.93,12.5-7.68,16.47-12.7,10.18-12.86,13.63-9.17,26.33-13.65,21.68-7.65,5.55-22.75,4.29-36.54-2.01-21.95,34.74-35.51,44.38-11.21,3.25,8.21,3.83,27.33-.55,35.03-2.7,4.74-10.57,6.69-6.86,14.05,2.73,5.42,14.57,2.64,21.31,4.8,7.26,2.34,7.63,6.8,11.46,10.24Z"/>
</svg>