<?xml version="1.0" encoding="UTF-8"?>
<svg id="Layer_1" data-name="Layer 1" xmlns="http://www.w3.org/2000/svg" viewBox="0 0 512 512">
  <path d="M275.8,127.76c15.59-1.5,33.7-1.12,48.96-3.52,6.02-.95,8.14-6.27,12.23-6.86,4.73-.68,8.66,2.92,13.62,3.56,9.25,1.18,19.16-1.09,28.31-1.93.55-50.21,43.56-57.81,55.12-7.5l33.4-1.04c10.11,16.03-25.45,8.64-31.69,12.88-2.19,14.22-2.89,27.92-16.24,37.12-20.12,13.87-37.72-14.98-38.76-32.68l-30.97,2.54c-8.14,4.79.64,28.77,1.52,36.37.95,8.1,2.31,37.34-6.15,39.92s-31.27-5.69-38.3-10.95c-4.19-3.13-4.94-8.22-10.4-9.38,1.58,8.53-2.69,17.3-2.79,25.24-.08,6.08,2.92,12.79,2.91,18.66,0,6.3-2.66,11.15-1.71,18.78,1.64,13.16,15.46,31.28,18.56,48.55,3.91,21.77-6.93,30.65-4.76,51.25.54,5.12,2.86,9.84,3.32,15.61,1.23,15.2-4,31.79-1.69,46.44,2.1,13.28,23.27,16.08,22.13,30.83l-4.17,2.91-34.16-19.48c-.76-7.81,3.36-11.8,1.94-20.63-1.91-11.89-16.04-26.49-16.75-36.77-.6-8.75,7.05-15.63,6.5-21.74-.87-9.73-12.74-25.91-15.99-35.77-3.23-9.79-1.33-21.71-7.78-29.21-1.09,17.68-4.7,39.68-9.43,56.86-2.75,9.99-10.79,22.08-12.59,30.44-.92,4.27.3,8.91-.78,12.99-5.77,21.78-17.02,35.67-13.26,60.54,1.33,8.8,10.05,17.26,8.51,26.79-7.86.51-21.58-.49-23.73-9.84l-2.13-82.29c1.85-15.18,15.43-15.84,13.59-35.9-1.18-12.9-4.34-21.93-3.2-36.33,1.91-24.16,16.01-60.61,15.35-82.41-.04-1.45-1.44-7.72-2.57-8.08-7.15-2.25-9.48,10.9-18.67,10.43-17.23-.87-17.27-19.24-16.5-31.84.98-15.99,5.92-30.55,1.71-47.36l-51.65,3.46c1.65,11.38,1.34,47.51-14.77,48.21-8.68.38-15.02-13.42-17.44-20.3-1.62-4.59-4.18-21.96-6.64-22.57l-63.51,6.79c-4.39-.33-4.82-3.93-4.44-7.82l1.78-3.49,67.17-7.73c-8.43-60.72,33.64-58.63,36.13-1.7l45.52-3.54c13.79-9.58,24-4.08,36.14-3.58,1.99.08,14.26-1.87,16.07-2.63,9.75-4.07-3.71-21.13-4.46-27.72-1.88-16.41,13.83-34.71,30.52-25.21,14.3,8.14,11.41,37.24,7.04,50.61ZM291.29,132.93c.16,7.22,9.49,6.14,14.41,8.83,2.14,1.17,9.05,7.95,10.6,10.06,5.5,7.5,4.61,16.9,11.97,20.76,5.45.03,6.46-20.22,6.08-25.01-.3-3.82-3.41-14.23-6.89-15.55-1.16-.63-2.18.9-2.6.9h-33.56Z"/>
</svg>