<?xml version="1.0" encoding="UTF-8"?>
<svg id="Layer_1" data-name="Layer 1" xmlns="http://www.w3.org/2000/svg" viewBox="0 0 512 512">
  <path d="M402.44,480.13c-24.66-3.48-26.16-42.54-35.73-60.71-.9,16.56-17.14,18.58-30.37,19.61-32.29,2.53-70.63-12.37-100.09-3.66-9.17,2.71-33.83,19.97-40.01,17.14-2.21-1.02-4.24-3.52-2.84-6.3,3-5.94,16.09-12.97,20.63-18.77,4.24-5.41,7.04-19.63,10.71-21.5,6.85-3.48,14.62,6.09,22.35,6.44,3.39.15,30.28-5.99,31.23-7.28-5.8-15.83-27.77-13.45-39.14-24.2-2.14-.47-33.52,15.16-40.53,16.87-27.25,6.66-42.47.51-67.64,2-7.81.46-64.98,7.98-66.99,10.72,1.61,4.89,3.52,11.8,6.33,15.96,4.96,7.34,17.76,7.88,13.94,16.15-21.14,6.85-21.74-8.06-30.95-18.78-4.99-5.81-25.03-15.8-20.63-25.79,3.06-6.94,35.04-11.6,44.28-14.78,24.95-8.59,34.83-23.23,63.89-16.61,5.92,1.35,17.15,7.34,21.86,6.06,14.33-13.44,21.61-26.61,41.12-34.02,4.19-1.59,13.05-1.9,15.54-4.11,3.69-3.27,3.39-13.34,14.83-20.89,3.42-2.26,22.49-11.24,25.8-11.85,5-.92,8.53,1.97,12.97.77,4.9-1.32,22.29-13.4,29.7-16.89,17.48-8.24,26.08-9.27,44.01-13.14,3.84-.83,7.05-4.61,11.18-4.89s26.48,4.32,31.54,5.8c9.68,2.84,27.94,16.18,34.72,16.87,7.33.75,21-10.88,32.81-9.53,25.02,2.85,32.37,36.06,12.54,50.25-8.08,5.78-12.1,3.12-20.2,4.78-3.28.67-6.18,3.98-9.28,4.18-4.53.3-19.41-7.57-20.58-6.36,1.41,15.78-14.78,23.43-17.45,37.03-2.22,11.31-3.56,43.13,1.71,52.82,3.06,5.62,13.29.86,17.48,7.48-4.46,7.05-15.6,1.03-18.75,4.39-2.9,8.11-7.14,16.25-6.23,25.09,7.67-2.89,42.45,9.91,44.64,15.2,1.06,2.55-3.61,4.44-4.45,4.44-10.08,0-24.61,1.31-33.93,0ZM358.69,396.19v-29.47c0-.62-3.94-10.6-4.55-11.52-4.49-6.84-19.68-4.48-28.38-5.43-7.3-.8-13.85-6.59-20.67-.89.11,5.71,10.7,7.47,14.86,10.15,16.01,10.31,27.11,22.27,38.74,37.16Z"/>
</svg>