<?xml version="1.0" encoding="UTF-8"?>
<svg id="Layer_1" data-name="Layer 1" xmlns="http://www.w3.org/2000/svg" viewBox="0 0 512 512">
  <path d="M438.46,215.58l-21.54-2.1c-1.84-.17-3.43,1.27-3.43,3.12l.04,30.49-67.44-14.1c-3.16-.66-6.39-.81-9.6-.45l-46.81,5.22c-1.12-3.92-4.78-9.47-4.78-13.65,0-5.09,2.03-14.26,2.71-22.07s3.06-16.98,3.4-24.45c.34-7.47-8.15-21.4-7.81-28.19.34-6.79,4.07-15.96,6.45-20.04,2.38-4.07,3.06-16.3,2.38-22.07-.68-5.77-10.53-13.92-10.19-16.98.34-3.06,2.38-5.09,5.09-7.81,2.72-2.72,3.74-6.79,4.08-10.53.34-3.73-1.36-13.92-5.77-18.68-4.42-4.75-9.85-10.52-22.76-10.18-12.9.34-18,15.96-17.66,24.45,0,0,.06,1.7-.17,5.09-.22,3.4-4.07,4.98-10.18,8.15-6.12,3.17-31.93,26.26-38.04,36.68-6.11,10.41-6.11,22.18-6.34,38.49-.22,16.3-.22,35.99-7.47,44.6-7.16,8.51-9.23,31.63-5.34,39.36l-8.75-.85c-2.06-.2-3.85,1.42-3.84,3.49v9.12s-82.13,9.15-82.13,9.15c-3.46.39-6.13,3.23-6.29,6.71-.17,3.48,2.22,6.56,5.63,7.27l82.86,17.33.05,38.56c0,1.79,1.34,3.28,3.11,3.48l12.16,1.39c-4.06,8.98-6.47,21.94-5.16,29.8,1.59,9.51,9.06,30.56,9.51,38.49.46,7.92-7.47,7.92-8.15,14.71-.68,6.8.68,23.55,5.89,32.61,5.21,9.05,26.03,19.47,37.35,17.43,11.32-2.04,7.7-13.81,4.53-19.92-3.17-6.12-4.98-19.7-4.75-29.44.22-9.73,3.17-18.11,7.7-26.48,4.52-8.38,10.69-33.51,12.05-46.08,1.36-12.56,8.15-21.39,8.49-25.81.34-4.41,2.72-12.22,4.76-16.98,2.03-4.75,9.5-21.39,10.18-31.24.31-4.54-.89-11.02-2.47-17.35l3.13-.35c2.05,3.38,8.58,4.74,13.95,4.46,5.8-.31,9.13-2.54,10.47-7.18l50.51-5.63c1.71-.19,3.43-.11,5.12.25l70.36,14.7.05,33.6c0,1.59,1.19,2.92,2.77,3.1l21.43,2.45c1.86.22,3.48-1.23,3.48-3.1v-78.93c0-1.61-1.22-2.96-2.82-3.11ZM128.18,270.02l36.54-4.07.02,11.71-36.56-7.64ZM256.06,241.5c-.56-1.79-1.04-3.32-1.39-4.49-2.04-6.79-4.41-11.88-5.09-17.31-.68-5.44.68-7.81,2.38-14.61,1.69-6.79,5.43-12.9,8.83-7.81,3.39,5.1,8.82,15.96,10.18,20.72,1.36,4.75,0,10.53-3.73,16.3-1.27,1.95-2.22,4.1-2.92,6.28l-8.26.92Z"/>
</svg>