<?xml version="1.0" encoding="UTF-8"?>
<svg id="Layer_1" data-name="Layer 1" xmlns="http://www.w3.org/2000/svg" viewBox="0 0 512 512">
  <path d="M461.43,246.62c.63,26.12-14.99,27.91-36.64,27.26-7.2-.22-20.38-.9-27.14-1.84-4.93-.69-9.16-2.54-12.01-6.76-6.21-9.16,3.29-10.79,6.29-17.4,5.95-13.1,1.26-30.27-.42-43.88-6.39-1.68-8.61,6.82-13.13,8.19-9.16,2.79-18.91-5.88-19.27-15.01l-5.09.84-44.32,35.81c4.18,1.38,6.86-1.27,11.99-.2,11.03,2.29,14.22,14.75,15.06,24.27,2.26,25.56-15.88,44.16-40.67,46.72,3.6,23.74,11.89,51.72-21.43,52.86-9.7.33-15.13-5.74-23.69-8.66-7.15-2.43-14.23-2.34-21.5-5.77-9.42-4.43-20.5-23.23-31.02-21.19-3.24.63-15.38,10.64-19.12,13.45-21.54,16.22-42.37,33.92-63.14,51.14-.14,7.53-2,18.1,2.53,24.27,5.55,6.95,44.49,31.85,45.81,36.57,2.01,7.19-15.46,16-21.05,20.38l-13.77-11.36c-.94-2.14,3.64-3.4,1.97-6.8-1.22-2.47-17.72-16.42-21.42-19.65-5.66-4.94-42.19-35.87-45.39-36.17-5.62-.53-10.92,4.39-16.09-4.63-3.27-5.71.02-15.15,3.75-20.28,11.13-15.29,28.33,13.25,38.93,17.64l-2.86-33.71c-11.35-14.64-37.89-21.71-34.53-43.74,2.04-13.41,11.34-14.63,18.73-22.2,4.76-4.88,6.81-11.31,10.96-16.31,7.91-9.54,17.89-16.28,28.15-22.97-14.45-14.64-19.22-37.77-28.6-54.91-2.35-4.29-11.12-12.62-11.93-15.33-3.96-13.26,11.83-62.6,9.88-65.27-12.92-1.52-22.95-1.46-27.67-15.82-10.45-31.8,52.02-58.51,63.55-26.06,5.91,16.64-7.62,21.2-12,35.03,10.61-.43,20.49-3.83,29.87,3.38,16.89,12.97,3.6,36.88-10.55,45.8-6.88,4.34-21.33,4.05-15.99,13.13,1.7,2.89,16.1,22.55,18.1,24.54,7.31,7.28,8.13-.19,11.76-3.25,19.93-16.82,20.49-14.27,43-23.57,15.79-6.52,31.01-18.97,44.01-29.3,5.13-4.08,16.5-7.59,17.83-14.56,1.8-9.46-1.84-19.06.53-30.18,4.84-22.66,17.95-37.62,39.52-45.73,14.07-5.29,22.41,19.53,22.7,30.41.14,5.33-4.17,9.07-4.03,13.15.1,2.89,3.71,6.98,4.04,10.61.39,4.24-2.47,9.38-1.33,14.09,14.4-4.46,34.38-30.79,49.83-28.64,9.42,1.31,42.79,24.5,52.31,31.35,4.78,3.44,8.24,9.19,13.2,12.37,7.61,4.86,30.31,10.84,33.78,19.06s-6.28,37.46-9.74,46.45c-6.34,16.49-17.4,32.22-25.13,48.15,1.18,1.67,2.21,2.22,4.22,2.54s11.02,1.71,11.93,1.71h26.42ZM263.65,272.2c-2.59-1.81-24.78,16.26-27.25,20.44l27.26,11.95c.15-10.96,4.09-21.54,0-32.39Z"/>
</svg>