<?xml version="1.0" encoding="UTF-8"?>
<svg id="Layer_1" data-name="Layer 1" xmlns="http://www.w3.org/2000/svg" viewBox="0 0 512 512">
  <path d="M229.42,69.89c1.32,1.36,27.84-13.1,30.79,9.59,2.2,16.95-13.6,23.1-15.08,29.35-.62,2.61,2.71,13.02,4.31,15.51,5.52,8.61,15.04,2.64,22.9,4.68,4.37,1.14,16.79,11.57,18.82,9.5-.52-20.22,20.52-59.51,44.5-41.93,13.37,9.81,10.33,26.68.09,37.62-5.39,5.76-15.35,7.22-16.35,16.34l13.79,12.04c5.26-3.17,9.38-6.34,15.14-8.93,8.37-3.76,12.5-6.43,19.88,1.28,8.14,8.5-2.68,13.98.46,19.28l14.58,10.38c3.42.53,8.45-12.15,20.09-4.74s3.78,31.68-4.59,38.79c-2.84,2.42-10.6,2.49-12.42,5.61-2.82,4.83-1.14,21.15-10.2,25.12-9.51,1.18-56.18-22.78-52.39-38.83-1.92-.07-3.42-.32-5.17.83-6.09,4-13.67,22.33-20.49,27.56l-.05,2.46,66.37,48.55c4.77,5.47-1.5,14.99-8.56,12.98-3.9-1.11-20.23-17.2-27.5-20.64-4.84-2.29-6.38-3.38-12.22-3.17-47.56,1.67-80.07,50.99-104.81,85.73l-.88,5.78c20.71,11.47-.19,31.84-2.93,45.28-2.6,12.7-1.45,42.91-14.58,50.6-4.1,2.4-20.78,5.71-21.82.43,6.89-9.75,4.34-16.12,5.01-25.66,1.09-15.5,4.95-24.6-5.83-38.66-2.54-3.31-29.22-28.28-31.27-28.86-9.26-2.64-12.37,15.09-17.08,16.68l-22.88-5.83c5.09-16.45,18.78-19.94,32.73-25.87.59-3.6-8.27-17.93-10.76-21.79-4.78-7.43-24.77-29.41-23.75-36.25.94-6.33,34.27-39.83,41.38-44.55,20.43-13.57,40.25-10.82,58.73-20.22,19.3-9.81,39.73-57.62,43.79-79.03l-23.04-28.6c3.64-15.53-3.55-30.15,2.7-44.66-12.03,1.37-22.59,11.17-30.64-4.52-8.8-17.13,15.6-45.03,33.23-33.23,13.13,8.79,3.91,21.84,6,24.01ZM362.7,195.63c-2.77-2.25-6.42-2.35-9.79-2.22-2.43,2.4,8.54,20.4,13.7,15.42,1.71-1.65-1.55-11.28-3.92-13.2ZM304.87,268.86c1-6.75-6.18-10.56-11.99-10.27,1.71,7.85,3.07,12.21,11.99,10.27ZM150.38,306.71c-7.98-4.95-4.62,8.61-.65,13.55,1.87,2.33,24.03,20.67,25.67,20.61,6.69-3.64-5.89-11.84-9.51-14.47-3.55-2.56-9.45-2.7-12.05-6.82-1.93-3.06-2.42-12.23-3.45-12.87ZM152.2,328.91c-3-2.67-4.04,2.76-4.25,5.06-.94,10.23,4.29,21.15,10.29,29.2l12.74-14.31c-.46-2.65-13.89-12.67-17.06-15.65-1.42-1.34-1.46-4.07-1.72-4.3ZM189.95,411.22c-.67-5.93-8.84-38.06-13.06-39.35-2.65-.81-8.97,2.69-10.2,5.06-2.66,5.13,9.07,13.14,12.01,17.25,3.89,5.44,4.85,13.75,11.24,17.04Z"/>
</svg>