<?xml version="1.0" encoding="UTF-8"?>
<svg id="Layer_1" data-name="Layer 1" xmlns="http://www.w3.org/2000/svg" viewBox="0 0 512 512">
  <path d="M232.91,144.84l-13.68-6.01c.12-6.69,6.63-7.38,11.97-6.82l-.19-15.21c-26.78-8.67-1.06-10.79-.03-12.38.89-1.38.57-11.84-.56-13.53-1.73-2.58-13.86-2.89-12.89-10.17l13.46-4.51.97-33.24,14.65-1.61c2.04,41.74-2.73,86.03-.08,127.48.95,14.91,1.33,28.84,18.5,32.83,13.45,3.13,11.23-6.8,16.74-14.84,7.35-10.71,24.92-20.95,34.68-7.55,9.37,12.86,3.28,17.21.12,30.3,18.5,7.64.84,9.85,1.94,21.51,6.15.72,11.83,2.78,14.44,8.64,6.2-6.76,14.53-16.29,23.55-19.2,7.5-2.42,14.48.2,21.42-3.4.71-5,2.97-10.76,2.08-15.81-.7-3.95-5.2-5.49-5.22-8.6-.02-3.75,5.57-5.52,6.57-8.9,1.31-4.44-.19-10.38.48-15.11l-5.38-6.76c12.34-13.98,7.31-35.01,10.31-52.74.64-2.92,12.95-3.92,15.57-2.1l1.67,5.14-13.81,160.76c1.16,8.98,25.02,11.88,24.12,22.28-1.06,12.35-22.53-7.57-25.77-4.23-2.91,32.39,12.5,62.39,15.22,93.88-12.15,4.67-16.58-14-22.91-20.36-4.49-4.51-41-29.14-46.36-30.76-3.2-.97-6.92-.01-9.25-.84-4.35-1.53-7.7-7.67-12.06-6.9l-112,50.45-.78,2.52c9.37,14.18-2.17,27.8-3.25,41.33-.58,7.22,2.43,10.94,2.37,16.22-.18,17.95-8.95,36.14-29.88,32.29-.83-8.7,6.24-14.99,9.06-22.57,5.59-15.03,4.76-23.91.34-38.98-2.41-8.2-2.96-19.15-12.86-16.34-2.93.83-31.28,14.11-32.47,15.45-3.95,4.42.12,12.69-2.52,18.01-2.03,4.09-11.45,6.89-14.42,2.4-4.62-6.96-3.03-41.04-5.28-43.47l-22.22,1.71c-.69-2.8.57-3.96,1.66-6.02,6.12-11.52,13.37-22.92,22.01-32.69l-17.72-41.85c17.26-20.71,40.98-34.63,68.43-35.87,6.96-.31,9.67,3.93,18.43-.25,3.45-1.64,26.94-22.45,27.85-25.15,2.58-7.59-3.55-17.86-4.36-26.65-.83-9.07.55-19-.04-28.18-5.95-.02-9.37,4.79-15.28,6.06-20.58,4.43-34.89-12.54-32.45-32.45.44-3.58,3.34-7.72,3.2-10.47-.24-4.86-12.47-9.91-6.82-13.65l14.24.7c15.43-22.42,52.31-16.82,52.64,13.05.07,6.11-3.55,12.43-.97,17.9,1.39,2.95,10.71,13.11,14.51,10.28.37-1.33-1.71-2.06-1.71-2.55v-32.49ZM218.62,186.99c-8.39,2.77,4.34,27.56,11.67,25.39,4.43-1.31,2.7-19.89,1.88-24.04l-13.55-1.35ZM289.34,285.92c-1.86-4.01-4.58-22.76-9.19-22.06-3.45.52-8.99,6.31-7.99,10.7.23,1,16.04,12.59,17.19,11.36ZM301.32,315.03c-14.44-3.27-13.71-19.85-26.12-24.36-3.54-1.28-16.85-3.45-20.12-2.36-25.25,20.03-43.45,43.29-56.37,72.85l102.61-46.12ZM373.13,289.36c-12.28,5.84-20.4,14.87-35.9,14.52,6.86,6.97,33.59,14.69,11.23,19.69l-.18,3.46,31.68,22.17c-2.81-19.96-8.76-39.42-6.84-59.84ZM145.17,372.6c1.5-1.28,2.49-4.46,4.7-6.38,8.89-7.76,25.14-20.97,23.23-34.88-.83-6.05-7.31-9.55-12.96-6.17-2.96,1.77-24.45,24.54-25.47,27.52-3.26,9.48,1.7,13.81,4.26,22.13,1.05.75,5-1.16,6.25-2.23Z"/>
</svg>