<?xml version="1.0" encoding="UTF-8"?>
<svg id="Layer_1" data-name="Layer 1" xmlns="http://www.w3.org/2000/svg" viewBox="0 0 512 512">
  <path d="M172.14,95.76l15.44,1.79c2.62-11.66-1.15-37.72,17.23-23.08.9,5.67-6.78,24.34-.46,26.31,5.39,1.69,21.03,2.47,27.51,2.87,2.25.14,4.76-1.81,7.91-1.68,7.82.32,12.55,5.22,18.12,5.95s9.13-1.62,13.54-1.52c6.44.15,13.38,4.99,19.68,6.3,22.99,4.77,48.69,7.35,72.05,9.23,11.44-46.56,52.14-43.41,51.5,6.57,2.36,3.83,44.89,4.13,50.99,8.74,3.7,2.8,2.87,9.39-.44,12.41l-53.36-7.13c-3.41,12.91-10,23.47-20.25,31.93l-13.59,95.46,48.52,83.06c9.5,9.2,34.22,8.7,43.87,14.56,3.04,1.85,2.51,6.43.35,8.81-7.61,6.47-36.33-8.51-46.41-8.32-19.81,9.38-40.86,24.65-60.95,32.59-4.95,1.95-14.39,6.27-17.43-.06l26.88-215.54c3.61-12.98-4.58-17.28-8.19-26.39-3.06-7.73-3.92-17.91-4.13-26.16l-76.54-10.7c-11.7,18.83,8.66,41.71,10.21,60.58.62,7.52-2.83,13.04.65,21.85,3.94,9.98,14.97,6.97,17.02,21.07,1.15,7.9-.13,13-2.95,20.24.94,4.31,27.99,4.79,29.43,14.02,1.76,11.22-15.94,14.8-24.16,16.57l-1.22,58.78c1.59,7.17,27.16,8.79,33.74,12.23,1.06,25.41-18.73,7.87-30.58,3.75-7.19-2.5-30.1-10.06-36.3-10.47-7.44-.49-10.32,3.87-18.27-3.55-17.76,7.88-38.96,13.3-54.21,24.69,3.26,17.16-7.66,35.09-9.32,52.05-1.58,16.17,2.14,27.44,3.33,41.77,1.29,15.52-16.12,14.92-27.58,16.22-1.07-11.02,4.01-21.26,5.17-32.06,2.28-21.27.17-44.31-5.19-64.9l-41.51,16.47c-7.51,9.82-1.28,36.26-10.42,43.25-3.66,2.8-31.22,12.87-31.12,5.2,1.97-3.51,7.36-5.31,9.4-7.88,3.51-4.42,12.42-70.15,13.05-80.42.17-2.8.97-11.78-.99-13.17-13.77-7.56-15.15,9.68-16.09,20.31-1.68,19,4.32,22.58,6.35,36.58,2.24,15.42-17.35,9.47-27.79,11.23-7.1,1.2-29.48,11.74-35.95,7.43-3.28-2.83-1.44-3.88.91-6.12,5.7-5.45,35.3-15.67,36.81-23.56-1.4-8.58-2.79-17.2-4.9-25.64-3.51-14.02-20.37-56.39-18.61-67.21,2.18-13.37,39.53-38.04,52.19-43.17,21.52-8.72,42.94-8.99,65.82-10,1.95-.43,2.34-4.61,2.67-6.29,6.13-30.88,10.16-80.22,12.31-112.39.33-4.88-.15-9.84.03-14.71l-15.32.29c-13.6,41-54.36,33.16-53.93-8.95-9.18-.1-28.02.86-25.98-12.1l26.57,1.44c2.95-1.03,5.8-10.47,8.35-14.15,20.25-29.2,49.22-3.45,46.56,24.72ZM225.7,111.45l-24.17-3.44-13.93,122.89c22.58,1.44,15.53-10.44,17.53-24.9,2.15-15.56,6-35.97,8.89-51.71,2.67-14.53,8.95-28.34,11.68-42.84ZM239.98,209.7l25.48,4.89c5.31.07,3.76-9.82,3.34-13.81-.75-7.04-4.42-13.36-5.07-20.88-1.1-12.7,3.72-22.54,3.58-32.89-.06-4.34-4.83-29.05-8.06-30.17-7.37-2.56-18.26,5.85-24.64,9.55-2.27,10.9,2.22,22.29,1.59,32.71-.32,5.32-3.43,10.41-3.39,13.83.06,4.23,6.04,11.28,6.66,17.47.69,6.9-3.06,12.76.52,19.29ZM298.41,284.57c-14.73,5.7-34.05,10.3-47.98,16.93-1.3.62-4.73,2.78-3.95,3.82,17.89,3.74,32.43,12.74,49.36.04l2.56-20.79ZM107.97,303.63c-5.81.48-12.55-.74-18.2-.02-2.41.31-5,.92-2.56,3.44,3.17.73,5.89,1.98,9.31,1.71,2.28-.18,10.53-2.37,11.45-5.13ZM400.55,346.88l-25.94-41.54-10.4,77.89c1.79,1.4,38.7-18.95,39.8-21.65,1.5-3.66-2.53-2.25-4.24-2.61-4.46-.95-27.3-3.37-20.93-12.16,6.67-4.52,14.46.95,21.72.07ZM256.86,322.64c-13.17-17.14-40.35,7.39-57.58,8.65l-2.5,4.39,5.7,7.85,54.38-20.88ZM296.5,322.83l-11.9,4.16,11.1,5.98c4.42-2.59,2.19-6.29.8-10.14ZM133.96,371.12c1.27,1.32,31.84-11.65,33.82-13.76,7.98-8.44-3.09-18.24-13.91-17.44-21.97,1.63-17.73,13.69-19.92,31.19Z"/>
</svg>