<?xml version="1.0" encoding="UTF-8"?>
<svg id="Layer_1" data-name="Layer 1" xmlns="http://www.w3.org/2000/svg" viewBox="0 0 512 512">
  <path d="M234.3,163.97c-1.12-5.08-9.01-5.44-6.88-10.37.84-1.95,4.69-1.92,5.18-3.87,1.89-7.54,1.18-25.07-6.95-29.17.05-1.29,9.59-2.86,6.99-13.6-.75-3.11-8.03-.8-7.07-5.52,0-4.18,5.58-4,6.71-7.19,1.93-5.45-1.2-10.82-1.15-15.4.2-16.27,25.08-15.02,20.53,2.65l10.43-2.66-3.47-5.19c-.39-2.73-.14-2.95,2.57-2.58,6.1.82,28.06,7.34,31.2,12.24l29.5,147.61,16.52,7.78c9.03-8.83,20.62-12.31,32.98-13.17-2.07-7.25,2.68-19.42,1.95-25.09-.6-4.67-7.39-2.99-5.39-10.11,10.63-5.57,8.6-12.77.08-19.41,10.86-6.87,5.49-20.15,9.08-30.83,2.78-8.29,13.61-7.77,20.13-4.47l2.04,11.87c1.29.93,14.24-6.07,16.88-6.6,11.09-2.24,32.63,13.51,43.06,18.7l-1.83,5.26-16.45-5.22c2.79,12.31-1.38,40.94,6.83,49.6,5.42,5.72,18.4,6.26,20.96,15.5-4.73,4.47-20.63-9.97-22.58-7.79,1.5,16,1.17,33.31,3.95,49.07,2.26,12.8,21.24,10.15,25.56,22.1-9.96,2.24-15.18-7.66-24.31-6.91,1.76,13.17,2.74,23.03,8.61,35.41-1.22,3.93-15.77,4.91-18.25,1.11l-16.42-163.29c-9.83-.41-17.47,7.73-26.71,10.24l-8.02,120.87c1.75,9.21,33.47,12.16,27.79,28.64-10.58,2.21-16.05-8.84-26.03-8.67,2.73,8.78.89,21.86,3.84,30,1.62,4.47,11.04,6.74,10.03,10.77-35.9,27.62-22.53-9.75-31.74-21.2-.66-.82-16.92-10.39-18.15-10.64-6.5-1.3-9.92,4.39-15.37,4.93-13.43,1.34-24.2-12.39-26.78-24.28l-3.63,14.56c-7.1,4.75-12.22,15.15-21.1,8.04-3.88-3.1-5.28-13.14-11.71-11.51l-111.05,54.95c-1.44,5.41,4.65,7.53,6.1,11.97,4.85,14.83-9.18,35.39-9.59,48.04-.2,6.12,4.47,7.84,2.64,18.13-1.85,10.44-8.02,27.8-18.63,31.73-32.95,12.24-11.11-12.85-5.85-26.68,8.93-23.48,4.32-44.06-4.21-66.88-1.92-1.91-3.07.25-4.47.86-24.85,10.65-14.99,16.06-20.28,37.05-2.43,9.65-23.23,16.54-32.6,15.15l-.07-5.84c17.56-5.88,12.49-27.76,15.68-42.77-7.21,4.74-16.91.78-23.27,1.74-3.73.56-30.61,14.24-32.28,6.03-2.41-11.83,33.38-18.09,34.11-24.2-1.88-9.05-4.76-17.8-7.59-26.58-3.82-11.88-13.99-32.58-15.8-43.39-.94-5.59,3.66-12.16,7.78-15.78,7.83-6.87,32.96-21.75,42.83-24.89,23.62-7.52,49.56.49,69.01-10.86,10.79-6.3,5.46-14.42,6.94-24.31.91-6.07,12.23-37.1,8.57-40.9-11.58,2.22-15.99,15.99-29.03,18.69-31.18,6.46-41.94-25.91-31.62-50.51-5.61-4.53-14-5.77-12.27-15.07,9.2-2.69,12,5.24,19.69,5.31,28.86-39.42,73.59-8.63,53.24,34.61,12.44-4,16.37,6.94,24.44,12.88,7.66,5.64,16.2,9.81,24.16,14.9-1.52-10.24,2.06-26.19,0-35.59ZM289.84,131.85l-8.55-42.69c-3.35-2.41-28.58,5.33-29.33,8.98l-.19,103.92c1.36,10.02,12.88,11.24,19.9,16.4,5.91-14.2,13.91-15.5,26.84-21.5,0-3.12-15.42-3.53-11.26-11.29,2.1-3.92,9.7,4.81,13.02,3.47-2.75-9.96-4.64-44.75-11.18-50.44-3.23-2.81-12.47-3.63-14.84-9.47-2.56-6.31,14.57,1.64,15.59,2.63ZM230.82,204.8c-9.7-.47-21.34-13.65-29.43-14.93-8.79-1.39-6.34,29.43.76,33.83l28.68-18.9ZM274.22,288.13c-3.02-.3-5.79-.03-8.72.81-11.19,3.23-75.16,34.84-83.15,41.86-1.98,1.74-4.29,2.66-3.61,5.93,28.39-13.08,57.98-25.53,85.73-40.13,1.24-.65,12.8-6.17,9.75-8.47ZM96.89,349.12l-6.71-.21,3.52,17.33h5.15s-1.97-17.12-1.97-17.12ZM131.84,355.85c-6.92-.98-10.93.57-12.15,7.77,3.5,7.5,13.79-6.39,12.15-7.77Z"/>
</svg>