<?xml version="1.0" encoding="UTF-8"?>
<svg id="Layer_1" data-name="Layer 1" xmlns="http://www.w3.org/2000/svg" viewBox="0 0 512 512">
  <path d="M219.69,122.57c1.38-4.42,13.28-2.9,14.92,1.97,2.78,26.16-2.75,56.95.24,82.52.39,3.33,1.01,5.93,3.38,8.44l43.5,31.01c6.84.98,20.44-20.42,38.23-11.4,15.29,7.76,7.33,28.19,1.14,39.5,4.52,5.23,12.42.67,18.46,3.39s8.46,12.82,11.83,16.88c1.23,1.49,16.64,14.29,17.78,14.28l9.56-79.9c1.29-4.38,14.14-3.71,15.87-1.23l-7.69,81.18c11.34-5.91,19.07-21.64,32.91-11.81,12.45,8.84-.21,27.88-5.18,38.84,2.6,2.52,5.08,5.12,7.86,7.46,11.07,9.34,33.26,19.83,41.96,28.97,6.78,7.13,3.8,16.01-6.16,11.23l-52-35.55-12.5,12.63c-2.16,7.76,13.13,4.59,7.43,14.1-.37.62-10.6,8.56-11.47,8.93-10.67,4.5-8.06-8.24-10.49-12.28-1.56-2.6-8.21-3.56-10.87-6.01-4.23-3.9-4.65-13.44-11.84-15.31s-3.42,10.32-14,9.13c-8.38-.94-31.16-9.27-38.32-14.12-4.12-2.79-7.33-9.83-12.69-9.27l-127.7,98.79c-6.17,6.99,7.59,8.01,6.1,14.61-1.53,4.97-6.65,5.44-10.23,8.28-4.89,3.88-6.93,10.52-14.83,8.16-3.4-1.02-6.84-7.8-11.36-9.02-.01-4.14,10.97-9.85,12.81-17.59,3.29-13.83,1.58-31.49,5.77-45.73l-18.61,18.01c-1.25,7.08,10.77,10.24.82,20.77-3.46,3.66-9.43,3.3-13.48,6.79-7.45,6.42-12.77,24.28-26.85,23.59-2.58-.13-15.93-4.8-17.09-6.61-1.68-2.61-.13-2.59.91-4.32,4.83-7.98,24.32-20.38,26.38-27.78,1.87-6.7-11.54-10.04-16.67-9.76-9.33.51-33.53,21.24-40.25,12.41-11.08-14.56,28.84-23.59,28.82-28.87-5.32-8.28-21.6-13.13-17.69-24.39,4.94-14.2,18.3-5.71,19.39-6.87-3.9-19.18-14.72-52.86.62-68.63,3.15-3.24,19.83-16.01,24.16-18.91,31.36-20.97,67.04-7.73,101.9-10.42,2.21-1.96-13.21-18.52-13.32-24.45-.23-11.84,19-29.02,14.13-39.69-1.36-2.98-24.42-19.79-27.27-20.06-10.53,8.47-27.07,25.32-40.99,12.33-11.34-10.58-4.1-27.15,1.44-38.43-3.87-6.11-39.23-23.73-33.61-31.52,5.92-8.21,32.86,19.53,39.79,20.29,5.39.59,5.2-4.11,8.57-6.57,32.15-23.47,48.04,7,30.11,35.25l25.71,18.34,2.21-.52c2.88-5.96,9.98-8.8,8.4-16.13-12.71.65,3.85-10.21.05-16.92l-5.63.03c-5.48-4.61,5.61-7.09,5.61-9.32,0-6.11-1.26-24.68,0-28.71ZM221.37,219.68c-3.18-.14-3.47-.8-3.43,2.57.07,6.97,2.66,16.2,3.4,23.36,1.36,2.36,9.5,2.25,6.85-3.14-3.65-7.44-7.77-13.63-6.82-22.79ZM256.84,241.63c-1.67-4.47-18.41-17.91-21.96-15.17,4.29,10.23,9.56,17.61,21.96,15.17ZM370,327.77c.1-3.44.77-6.3-1.69-9.27-.65-.79-15.06-11.77-16.26-12.45-2.38-1.36-4.52-2.33-7.36-1.91-5.36,8.71,24.07,25,25.32,23.63ZM282.18,326.11c-9.38-1.98-14.79-2.03-24,.47-26.76,7.27-54.62,25.14-81.68,33.17-2.13,1.91-6.11,23.48-6.99,28.48-1.67,9.55-2.83,19.42-3.86,29.06l116.53-91.18ZM121.72,373.39c-4.48-.92-2.91,1.12-4.2,3.32-5.04,8.64-16.36,22.83.82,22.01l3.38-25.33Z"/>
</svg>