<?xml version="1.0" encoding="UTF-8"?>
<svg id="Layer_1" data-name="Layer 1" xmlns="http://www.w3.org/2000/svg" viewBox="0 0 512 512">
  <path d="M389.83,53.91c-1.12,15.14-.91,30.37-1.47,45.55-3.43,93.65-8.74,187.78-13.46,281.46-.28,9.23,13.72,4.43,15.2,13.3l-.84,2.46-98.56,66.21c-5.03,1.34-8.52-8.2-8.48-11.83.07-6.03,10.31-7.25,12.94-10.19,3.32-3.71,1.34-33.94,1.58-41.72.21-6.7,3.77-13.91.97-20.82-1.96-2.94-60.15-19.8-67.42-20.83-16.3-2.31-23.46,1.5-37.84,7.29-9.74,3.92-72.86,35.7-76.91,33.44l-3.26-11.22,13.08-6.05c1.67-1.3,1.48-3.12,1.7-4.96,3.79-31.81-5.14-69.2-1.69-101.74l-7.72-220.62c2.96-2.16,6.59-2.88,10.15-3.27,17.27-1.91,57.39-5.23,73.38-3.45,6.58.73,12.39,4.35,19.9,5.08,38.94,3.79,92.19,4.51,131.59,3.43,5.74-.16,35.34-4.5,37.18-1.51ZM196.53,348.08l-1.54-105.17c-1.18-3.53-21.37-4.04-28.01-8.62-14.93-10.31-5.73-26.91-2.56-39.05,1.82-6.97,2.62-15.16,4.99-21.65s10.38-15.27,10.92-22.5c.64-8.58-5.53-13.71-6.62-21.78-1.87-13.86-3.74-29.29-5.15-43.27-.62-6.09,3.38-22.63-4.15-24.02-3.93-.72-28.95-.12-30.63,1.84l8.15,307.88,54.59-23.65ZM190.22,62.01c-19.9-7.42-7.8,24.83-5.82,24.94,3.14.17,1.05-9.02,1.47-11.67.79-4.96,4.42-8.33,4.35-13.27ZM245.18,121.94c3.37,2.94,8.82-10.92,9.54-12.93,3.81-10.71,12.67-34.35.33-41.06-5.35-2.91-31.58-4.19-36.52-1.8-11.11,5.38-8.05,38.91-4.97,49.13,6,.37,7.3-8.82,11.68-10.85,7.67-3.56,24.11,8.45,19.95,17.5ZM303.47,68.66l-25.83-1.71-3.41,1.63c-1.23,22.02-2.71,45.37-8.18,66.75-2.34,9.14-7.87,12.58-8.88,16.09-5.62,19.34-4.03,32.32-20.33,49.61-8.12,8.61-21.02,12.95-25.35,26.27l-1.26,114.45c4.65-2.69,8.5-1.66,13.4-.91,23.37,3.59,50.83,16.31,73.99,22.58l5.86-294.77ZM373.39,68.67l-47.12,3.66c-4.58,1.29-4.29,9.37-4.52,13.74-3.52,65.15-3.37,131.45-5.04,196.5-.7,27.22-.97,54.44-1.6,81.66.12,2.73,1.69,3.43,3.77,4.56,1.81.99,36.68,11.23,38.69,11.3l15.82-311.42ZM360.07,396.73l-44.95-13.34-1.66,44.95c13.08-10.29,31.78-17.93,44.51-27.82,1.38-1.07,3.04.02,2.09-3.79Z"/>
</svg>