<?xml version="1.0" encoding="UTF-8"?>
<svg id="Layer_1" data-name="Layer 1" xmlns="http://www.w3.org/2000/svg" viewBox="0 0 512 512">
  <path d="M70.92,381.68c.46,3.9,8.54,23.33,6.88,24.96-7.88-1.3-35.25-8.97-37.51-16.7-1.7-5.81-.48-44.85,2.36-50.3,5.61-10.79,17.51-8.91,26.97-12.63,17.22-6.77,21.25-24.25,45.87-24.47,4.54-.04,8.17,2.86,13.1,2.66,5.2-.21,9.67-4.55,14.18-4.92,4.13-.34,7.48,1.85,12.94,1,7.5-1.17,20.25-13.51,30.16-16.42,3.72-1.09,7.82.24,11.29-.76,2.42-.7,13.66-17.9,19.25-22.07,20.86-15.54,41.3-6.88,64.34-14-.78-14.77,3.66-25.31,12.31-36.75,11.82-15.63,20.9-14.9,34.59-25.67,24.77-19.47,24.04-10.17,50.08-17.06,24.67-6.53,10.12-27.68,16.36-47.35,13.96-44.06,76.35-27.42,76.36,14.29,0,11.67-13.61,49.07-21.53,57.76-3.01,3.3-6.75,5.16-11.27,5.1,11.39,11.6,21.66,28.52,20.69,45.54-.33,5.9-3.39,13.26-5.16,19.04-4.74,15.54-14.42,41.86-16.85,57.19-1.98,12.53,2.41,23.42.86,35.3-2.66,20.33-16.82,45.04-19.68,66.22.11,11.25,37.19,20.61,37.34,34.93-3.22,3.04-37.69-10.51-46.51-7.89-3.67,1.09-8.33,7.5-12.7,6.11-8.75-2.77.63-40.02.67-47.28.09-18.41-10.97-34.64-8.68-56.9.97-9.4,6.93-16.33,8.29-24.42,2.29-13.6-1.66-27.05-1.23-40.64-1.96-8.49-28.29,10.01-30.33,14.2-1.12,10.64-.54,20.94-2.94,31.53-4.72,20.79-8,32.46-4.83,55.42l-15.04,53.58c4.23,5.45,10.74.26,17.3,1.13,11.9,1.57,38.79,12.56,39.21,27.19-1.69-.06-3.26,1.2-4.77,1.38-7.5.86-34.96-3.49-44.09-5-5.4-.89-14.74-1.92-18.09-6.01-5.41-6.6-16.26-53.49-17.2-63.71-1.42-15.47,3.92-31.7,3.35-46.3-.34-8.64-5.52-15.03-7.03-23.22-3.69-2.62-21.65,14.57-26.27,17.6-26.65,17.45-37.65,11.49-65.34,15.58-24.61,3.63-54.84,8.07-79.28-.86-2.5-.91-3.83-4.21-7.33-4.8-6.63-1.13-17.74,2.42-24.9,1.75-4.19,3.64,37.08,41.96,8.84,43.8-30.69,2-16.5-42.32-45-42.09.67,7.98-.92,17.17,0,24.96Z"/>
</svg>