<?xml version="1.0" encoding="UTF-8"?>
<svg id="Layer_1" data-name="Layer 1" xmlns="http://www.w3.org/2000/svg" viewBox="0 0 512 512">
  <path d="M473.53,435.03c-.68,5.66-11.32,3.85-17.66,2.94-6.34-.91-11.32-3.4-16.98-5.66-5.66-2.26-.91,4.08-3.4,6.11-2.49,2.04-12.9,1.13-16.98-2.49-4.07-3.62-6.56-15.39-6.56-21.73s-1.14-16.3-2.04-21.96c-.91-5.66-10.42-19.7-12-30.34-1.59-10.64-.45-25.81-.45-29.88s-3.4-12.46-3.63-25.36c-.22-12.9-5.43-12.9-7.47-9.51-2.03,3.4-5.43,7.93-12.22,11.77-6.79,3.85-22.19,3.17-26.94,4.76-4.76,1.58-8.83,8.38-15.4,11.09-6.56,2.72-16.3,1.81-23.54,4.98-7.25,3.17-20.15,25.36-21.51,29.43-1.36,4.08,1.13,16.76-.23,29.21-1.36,12.45-13.37,30.41-19.69,40.98-9.29,15.51-3.4,20.7,5.37,19.01,11.44-2.2,12.34.97,10.16,4.38-1.15,1.79-3.82,3.27,2.69,5.13,4.77,1.37,14.91,2.29,15.74,12.45.7,8.69-5.21,8.38-16.98,8.38s-28.76-4.98-35.32-7.92c-6.57-2.95-13.13-9.28-13.59-14.49-.45-5.21,0-31.02-.45-37.58-.45-6.57,7.47-54.11,9.51-62.26,2.04-8.15-16.53-5.44-26.94-5.44s-37.13,10.42-51.85,10.64c-14.71.23-38.26-8.15-45.27-12.67-7.02-4.53-17.66.68-23.55,2.03-5.89,1.36-7.24,10.42-4.75,13.59,2.49,3.17,8.83,16.52,9.96,22.64,1.13,6.11-7.25,8.6-11.78,8.37-4.52-.22-10.41.91-12.67,3.4-2.27,2.49-8.61,3.17-19.47,2.49-10.87-.68-19.7-8.83-22.42-16.98-2.71-8.15-3.39-23.09-6.11-27.85-2.72-4.75-2.91-19.13,2.72-24.45,4.07-3.85,11.09-5.2,16.75-5.2s10.64-3.85,20.15-12c9.51-8.15,17.89-11.1,27.39-11.1s34.42-5.88,41.66-6.56c7.25-.68,11.55-6.57,19.7-8.15,8.15-1.59,20.15-2.27,23.32-6.34,3.17-4.08,18.43-17.36,27.9-21,10.3-3.96,24.17-3.45,37.75-3.9,13.58-.46,14.04-4.31,15.62-7.25,1.59-2.94,9.96-17.43,20.15-24,10.19-6.56,18.79-5.66,23.55-8.6,4.75-2.94,16.07-11.77,26.48-13.36,10.42-1.58,34.42,0,40.3,0s12.91-1.58,13.59-5.66c.68-4.07,5.66-12.9,11.09-19.47,5.43-6.56,15.4-13.13,27.62-12.9,12.23.22,20.83,7.24,28.98,16.07,8.15,8.83,9.51,18.79,9.73,30.34.23,11.55-5.2,17.21-10.41,24-5.21,6.79-14.72,7.24-15.85,9.05s1.13,6.12-2.26,9.28c-3.4,3.17-3.4,13.36-.68,16.76,2.72,3.39,6.11,12.9,6.11,18.79s-3.39,14.49-5.21,18.56c-1.81,4.08-2.71,10.87.23,17.66,2.94,6.79,5.43,23.32,4.98,34.19-.45,10.87-2.04,30.56-4.07,37.35-2.04,6.8.68,11.55,4.07,13.13,3.4,1.59,13.36,4.76,21.74,8.38,8.37,3.62,12,9.06,11.32,14.72Z"/>
</svg>