<?xml version="1.0" encoding="UTF-8"?>
<svg id="Layer_1" data-name="Layer 1" xmlns="http://www.w3.org/2000/svg" viewBox="0 0 512 512">
  <path d="M73.88,455.55l-1.73-59.26-26.07-1.81c-2.79-3.31,11.99-31.22,14.7-36.56,5.84-11.48,22.95-45.55,30.53-53.12,7.8-7.79,16.68.34,25.43.74,19.51.89,10.28,1.05,25.03,6.32,9.65,3.45,22.07.92,31.96,4.64,11.23,4.22,22.48,21.86,30.35,23.67,8.59,1.97,21.65-2.5,32.56-1.18,9.21,1.12,21.45,9.42,26.62,9.88,3.36.3,7.65-4.08,12.04-4.75,26.17-4,43.29,28.28,52.43,29.16,6.75.65,8.62-8.3,12.07-11.7,14.04-13.88,44.12-4.14,58.14,6.08,7.04,5.13,21.16,26.48,27.51,28.35,11.06,3.25,28.38-18.33,43.76,3.2,18.56,25.97-11.21,41.12-34.97,38.49-13.97-1.54-10.22-4.95-16.14-15.21-4.42,2.34-7.75,6.5-12.37,8.51-13.16,5.74-28.83,1.71-25.12,22.82,6.28-2.07,37.42,10.44,38.35,14.83l-2.61,4.33h-27.89c-5.45,0-22.89-12.03-27.09-16.48-7.61-8.07-9.29-15.94-12.08-26.27-19.55-4.54-38.4-14.07-57.84-18.84-15.68-3.85-30-.23-46.86-3.68-27.09-5.54-46.39-25.98-69.79-38.26-14.51-7.61-33.78-11.75-47.77-21.91-4.83.27-5.65,24.87-6.98,27.82-3.09,6.82-15.32,19.37-19.71,27.35-8.6,15.62-14.32,34.96-12.51,52.85h35.73c3.44,0,3.67,11.45-.34,14.09-3.29,2.17-23.06-3.3-29.29-3.64l-58.39,3.48,4.36-13.93h33.98Z"/>
</svg>