<?xml version="1.0" encoding="UTF-8"?>
<svg id="Layer_1" data-name="Layer 1" xmlns="http://www.w3.org/2000/svg" viewBox="0 0 512 512">
  <path d="M389.94,327.61c-2.1,2.08,6.99,21.94,9.37,25.15,6.95,9.33,12.54,6.71,21.35,10.66,5.88,2.64,9.39,8.25,14.76,10.51,5.99,2.52,28.14,3.85,30.49,7.01,2.58,8.52-.91,17.45-1.61,25.25-.81,8.99,2.34,23.71-5.99,27.69-4.02,1.92-25.92,7.28-30.46,7.35-7.96.12-51.03-11.14-53.07-9.17,1.78,7.5.92,15.5-1.51,22.91l-34.91,10.71-88.03-20.38c2.59-18.86-6.9-35.95-1.95-54.19l25.28-7.07c-8.99-6.67-21.42-15.32-32.67-14.19s-14.28.1-23.43.39c-12.45.4-19.8,11.5-40.72,9.57-19.34-1.78-37.6-14.02-54.76-21.87,22.61,30.48-25.71,27.83-22.11-3.17l-27.45-7c-5.44,9.79-2.68,19.83.59,29.63,1.8,5.39-3.43,10.46-8.76,8.51-8.8-3.23-19.14-8.6-19.77-11.97-1.41-7.48-1.07-39.7,4.13-44.73,7.49-7.24,15.87-3.06,22.92-4,9.92-1.33,23.62-12.76,33.2-14.11,7.73-1.09,11.85,4.55,19.72,3.03,7.27-1.4,11.6-8.04,25.61-7.77,9.96.19,14.7,5.88,20.57,6.87,1.88.32,16.15.14,18.13-.41,6.69-1.86,13.69-12.95,25.43-15.14,7.08-1.32,13.71,1.05,19.24.39,3.54-.42,22.55-3.73,25.51-4.43,9.9-2.35,26.26-14.76,34.38-17.91,11.8-4.58,54.78-12.52,67.03-12.27,7.54.15,14.22,4.21,21.6,4.97,2.03-.52,12.67-15.28,17.15-18.33,29.81-20.23,66.22,26.9,44.65,54.76-1.59,2.06-20.51,21.25-21.93,21.87-1.1.47-18.64,5.62-19.67,5.63-3.42.02-6.69-7.06-12.29-4.74ZM386.56,363c-6.07-.35-14.02-8.19-19.34-8.28-3.29-.06-11.1,3.6-15.65,4.43-16.07,2.92-32.24,6.74-48.37,8.95-2.44.33-4.92-1.57-4.27,2.48.76,4.72,6.35,7.48,10.75,7.44,17.58-.13,45.72-11.56,64.46-13.23,4.25-.38,7.61-.08,11.55,1.58l.86-3.37Z"/>
</svg>