<?xml version="1.0" encoding="UTF-8"?>
<svg id="Layer_1" data-name="Layer 1" xmlns="http://www.w3.org/2000/svg" viewBox="0 0 512 512">
  <path d="M67.72,391.32c-1.32-.23-3.22-1.9-4.26-2.95-2.94-2.97-17.65-42.23-18.18-47.09-.86-7.88,20.2-13.76,27.44-18.93,19.13-13.64,26.57-37.86,52.59-41.55,17.9-2.54,22.47.61,38.95-11.48,8.66-6.35,10.98-17.76,17.75-25.96,9.39-11.35,21.84-13.66,30.34-21.77,6.34-6.04,9.41-17.25,15.89-23.97,10.38-10.77,20.97-10.64,34.05-13.5,5.04-1.1,10.48-4.61,15.53-4.64,16.74-.11,39.31,18.96,44.66,34.39,2.56,7.37,1.42,15.71,5.85,22.72,10.81,17.08,34.57,33.56,48.71,48.8,4.32,4.65,9.19,16.34,16.74,16.7,10.39.51,14.49-11.69,31.69-2.93,9.42,4.8,15.7,12.91,14.49,23.9-1.15,10.48-15.33,46.28-14.17,51.64,1.8,8.3,42.56,19.8,41.16,27.51-1,5.54-20.23-4.16-21.84-2.49,1.19,24.1-6.28,46.68-34.49,43.71-14.31-1.51-27.3-7.95-37.88-17.57-8.8-8,1.16-10.11-3.68-19.87-9.07-18.29-20.6-6.43-33.9-8.09-7.63-.95-11.08-6.46-17.8-8.27l-8.42,48.75c10.45-.82,20.93,1.18,30.33,5.81,4.8,2.37,30.87,20.08,15.87,22.79-5.01.9-46.53-6.7-51.11-9.4-4.06-2.39-6.36-7.79-8.28-11.89-8.37-17.89-22-54.64-21.19-73.76.66-15.64,17.56-20.85,17.59-33.57.02-8.74-6.96-20.59-9.31-29.38-1.35-5.06-2.66-29.47-8.33-29.91-6.7,3.46-13.52,6.76-20.68,9.2-31.01,10.56-63.67,17.43-94.45,28.27-5.78,2.03-22.35,8.83-24.87,13.79-2.31,4.54-2.86,19.67-2.14,24.91,1.22,8.85,21.06,22.93-5.7,19.14-19.76-2.8-5.39-30.16-17.74-37.74-5.44-3.34-28.32,8.3-29.96,13.85-3.24,10.94,9.23,30.2,18.17,36.64l-2.52,4.18h-26.9ZM402.64,369.77c-3.44.68-9,4.7-3.54,6.21,12.4,3.45,14.3-8.35,3.54-6.21Z"/>
</svg>