<?xml version="1.0" encoding="UTF-8"?>
<svg id="Layer_1" data-name="Layer 1" xmlns="http://www.w3.org/2000/svg" viewBox="0 0 512 512">
  <path d="M196.52,127.79c19.1,3.42,34.86,4.46,50.64,16.75,2.47,1.92,2.88,5.51,6.73,7.16,2.96,1.27,30.66,6.52,33.78,6.17,3.51-.39,6.74-2.65,10.35-3.11,17.1-2.18,32.95,11.21,46.74,9.88,3.52-.34,7.65-5.37,12.17-6.29,13.66-2.8,34.02,10.77,35.63,24.75-5.63,1.07-10.79-3.48-15.95-3.43-4.22.05-7.24,3.21-11.71,3.55-6.12.46-11.84-3.28-16.52-2.96-6.71.46-22.23,10.89-32.5,12.46-11.35,1.73-25.26-.62-34.59.46-9.77,1.14-20.55,6.68-33.69,6.35-13.59-.34-20.87-14.18-31.29,4.21-4.83,8.53-7.76,10.18-11.78,16.72-4.6,7.47-6.42,20.18-11.62,26.92-3.06,3.96-9.82,6.31-11.9,11.56-2.67,6.73-.8,17.19-3.8,24.71,2.3,3.76,10.71-2.9,14.57-3.88,15.51-3.95,38.48,5.5,50.37,15.57,8.48,7.19,24.28,25.02,34.33,29.82,4.75,2.27,9.51,1.41,13.93,2.83,30.75,9.88,49.92,27.34,82.91,32.72,6.65,1.09,18.42,2.73,25.1,3.38,7.26.7,28.24-5.48,30.84,2.79,4.3,13.7-32.44,23.66-41.2,28.72-3.91,2.26-14.53,12.48-17.89,11.82-5.64-1.1-6.83-13.99-9.35-17.46-4.16-5.71-19.27-4.37-26.13-4.17-24.09.71-37.16,10.07-58.54-6.67-18.66-14.6-21.53-37.48-52.71-23.29,11.48,39.92-38.81,48.68-58.64,73-.44,2.6,4.12,5.72,6.02,7.02,6.32,4.35,26.32,11.85,30.25,15.83,1.06,1.08,2.84,5.42,2.15,6.23-12.7,1.13-28.39,5.24-40.96,3.26-3.59-.57-22.09-9.84-24.43-12.42-8.07-8.9,5.84-29.41,8.67-40,1.04-3.88,7.27-33,6.25-34.42-9.66.89-19.32-15.1-24.47-16.64-9.53-2.85-13.41,5.71-28.12-5.34-17.71-13.29-24.1-47.29-17.15-67.42,2.78-8.04,11.77-11.58,13.85-19.67,1.08-4.2,3.87-21.53,4.2-26.06.77-10.63-4.41-24.6-4.91-35.34-.55-11.85-.26-17.48-1.73-30.12-1.16-9.98,5.36-31.85,14.1-37.58,7.7-5.04,15.2-3.52,22.56-5.93,2.71-.89,23.82-13.32,25.06-15.24,3.83-5.97-7.41-26.01-7.77-35.38-1.4-35.7,53.48-45.33,62.09-11.83,2.71,10.52,3.98,41.62-2.91,50.1-3.3,4.06-11.1,4.03-11.02,9.91Z"/>
</svg>