<?xml version="1.0" encoding="UTF-8"?>
<svg id="Layer_1" data-name="Layer 1" xmlns="http://www.w3.org/2000/svg" viewBox="0 0 512 512">
  <path d="M391.21,422.44c12.98,9.21,25.49,2.11,38.74-.49,6.02-1.18,11.91,2.56,13.48,8.49l1.85,6.98c16.6-5.13,15.17,7.9,14.1,20.3-3.41,5.24-76.93,7.83-87.77,6.93-2.16,0-2.86-1.21-4.01-2.69-3.14-4.05-10.94-21.22-13.34-26.88-1.58-3.73-3.47-7.49-4.52-11.41-1.03-3.82-4.53-6.36-8.49-6.2-12.86.53-25.42-7.18-37.11-7.69-8.45-.37-28.85-1.05-36.4-.55-16.85,1.11-28.92,15.31-55.39,13.58-13.11-.86-32.26-5.18-46.42-7.2-7.03-1-12.07-5.84-17.16-6.39-7.59-.82-22.17,2.09-31.94,1.87-10.32-.23-27.33-4.28-36.81-3.57-8.75.66-8.54,9.18-7.63,16.18,1.01,7.78,10.33,6.57,8.59,14.79-.92,4.34-21.85,1.97-24.47-.6-4.84-4.76-6.56-31.88-12.39-39.43,3.86-18.97,27.24-12.31,41.87-15,22.39-4.1,30.62-17.79,55.58-12.2,9.08,2.03,21.16,9.71,30.05,8.68,9.68-1.12,24.05-13.6,36.17-15.44,8.63-1.31,18.32,2.77,24.39.93,6.06-1.83,9.66-12.7,24.56-14,16.6-1.44,27.57,9.35,39.43,10.08,27.01,1.66,54.98-17.39,80.51-14.22,11.29,1.4,23.75,12.08,35.17,14.47,14.99-11.89,33.86-26.94,48.08-3.88,9.59,15.55,7.69,25.14-7.29,35.3-11.18,7.58-34.55,15.38-39.92-1.53-1.75-1.33-3.34-.93-5.12.02-1.56.84-17.75,26.66-16.41,30.77Z"/>
</svg>