<?xml version="1.0" encoding="UTF-8"?>
<svg id="Layer_1" data-name="Layer 1" xmlns="http://www.w3.org/2000/svg" viewBox="0 0 512 512">
  <path d="M126.16,109.19c9.16-60.05,77.3-53.99,84.76,4.34,10.05,1.86,22.28,1.69,29.81-6.03,4.41-9.07-8.2-24.77-9-35.29-1.72-22.51,32.74-37.13,47.19-19.89,7.33,8.74,11.19,35.02,8.12,45.49-2.2,7.5-30.58,15.7,7.92,18.24,6.75.45,30.19,1.08,35.36-.42,6.45-1.88,12.44-22.74,21.68-29.23,14.15-9.94,34.87-7.28,46.8,4.73,8.78,8.85,7.99,22.08,18.07,30.18.66.53.94,1.41.73,2.24h0c-.16.61-.58,1.11-1.14,1.41-8.17,4.34-7.98,11.5-12.29,18.7-6.53,10.92-14.81,19.1-28.52,18.15.42,8.16.66,14.64-7.29,19.01-5.83,3.2-30.45,5.51-37.54,4.59-11.52-1.5-14.91-9.54-23.92-15.08-12.3,28.43-14.44,62.02-24.59,91.6,15.93-1.57,30.31,2.69,43.28,11.89,9.94,7.04,35.74,35.84,39.49,47.06,3.73,11.14,2.47,13.3-4,22.38-17.86,25.1-42.56,45.72-56.23,74,.66,8.51,30.49,12.63,35.83,16.27,9.69,6.6-5.8,10.05-11.72,10.14-8.95.14-16.1-4.74-23.79-5.28-7.2-.51-33.95,6.06-31.09-10.54,1.43-8.33,15.76-28.85,19.72-39.84,5.76-16,4.72-31.04,16.68-44.42,3.17-3.55,8.88-5.41,10.85-10.35-14.79,2.15-26.34-6.46-39.03-11.89.83,6.7,3.22,16.72,3.24,23.1.03,9.16-29.39,56.52-35.25,69.63-1.59,3.56-6.5,15.74-6.6,18.72-.4,12.05,31.68,17.52,30.12,31.1h-31.4c-1.08,0-18.77-8.45-19.54-9.31-4.77-5.36,4.36-33.54,5.08-42.48,1.36-16.92-3.91-44.63,11.04-56.85,4.56-3.72,10.15-3.92,14.41-7.62-4.59-4.32-10.5-4.38-15.25-8.96-7.36-7.1-8.64-18.05-14.51-25.74-7.91-10.35-17.58-9.97-19.42-28.09-3.29-32.3,21.74-42.71,23.68-63.02,1.33-13.98-10.99-21.85-13.12-32.42-.56-2.79-3.61-23.44-3.56-25.14.23-7.66,12.07-21.97,9.69-30.11-1.26-4.32-6.97-4.65-8.2-8.68l-3.37-1.03c-7.47,58.78-75.95,59.52-84.77.73-3.36-2.42-20.61.32-26.42-.73-7.02-1.27-8.6-15.28-1.7-15.28h29.7ZM341.7,149.91c1.96-4.95-6.73-20.27-11.89-17.9-10.96,5.03,9.81,20.17,11.89,17.9Z"/>
</svg>