<?xml version="1.0" encoding="UTF-8"?>
<svg id="Layer_1" data-name="Layer 1" xmlns="http://www.w3.org/2000/svg" viewBox="0 0 512 512">
  <path d="M323.74,99.09c2.57,9.97,2.31,22.96,1.79,33.51-.56,11.37-2.67,39.92-8.66,47.93-5.38,7.2-15.58,10.05-18.04,19.68-1.46,5.72-.16,10.73-1.02,16.13-1.59,9.94-6.78,27.54-6.77,36.23,0,5.18,2.98,10.01,3.03,14.01.05,3.6-2.54,6.41-2.64,9.94-.46,16.62,16.89,38.13,18.57,56.65,1.29,14.18-4.01,20.61-5.1,32.58-1.08,11.95,2.8,19.75,3.48,30.78.89,14.62-6.83,38.25-.15,49.88,2.53,4.39,16.34,11.23,15.5,15.33-1.59,7.8-25.53-6.49-30.91-5.06l-1.55-1.99c.34-7.01,3.6-10.23,2.57-17.77-1.85-13.49-14.57-31.45-14.41-42.08.09-6.04,5.53-11.3,6.3-15.83,1.51-8.84-11.14-28.75-13.95-38.5-2.6-9.01-1.78-18.52-5.48-27.09l-19.32,69.85c3.59,24.57-15.49,42.25-14.17,66.4.26,4.8,5.41,17.14,5.09,18.81-.89,4.62-18.07,3.11-18.84-.16-1.06-7.5,1.65-14.61,1.86-21.93.43-15.1-3.32-32.62-1.81-46.39,1.19-10.85,9.01-19.02,10.15-27.58,1.61-12.12-4.12-25.97-3.24-39.27,1.46-21.91,20.53-60.58,12.84-81.5-2.05-5.56-6.82-9.83-8.68-17.02-4.24-16.33-3.42-30.81-13.73-46.29-2.19-3.29-6.49-5.56-8.33-8.82-2.39-4.23-5.61-48.12-6.22-57.38-.23-3.53,1.8-6.69,1.63-10.03-.34-6.6-2.66-14.14-1.79-21.37l-47.76-3.66c-1.05,46.84-24.43,44.48-20.59-1.74-14.79-1.58-42.13,1.17-55.41-3.75-1.33-.49-2.34-.91-2.71-2.43l-.2-5.81,58.31,3.43c.43-11.73,1.86-23.54,7.08-34.09,18.96-5.71,11.16,33.22,13.59,35.71l204.72,13.87c1.09-9.09,7.4-30.89,18.97-30.81,15.13.11,14.06,23.66,16.49,33.99l32.99,2.17,2.83,5.72c-2.09,6.65-31.26-1.49-37.64.95-5.67,42.65-37.23,35.74-34.37-5.22h-34.3ZM279.17,181.4c21.58-11.48,24.26-30.99,29.23-52.21,1.12-4.79,4.37-8.99,4.93-14,1.62-14.28-5.89-17.64-18.1-19.33-24-3.31-50.27-2.27-74.47-4.42-4.79,3.67-6.9,8.85-6.43,14.86.94,11.85,14.34,54.99,20.48,65.4,1.71,2.9,9.72,11.18,12.7,11.48,13.46-1.89,5.33-12.42,4.35-19.93-3.78-28.99,27.22-34.94,30.61-13.48,1.71,10.8-1.32,21.21-3.3,31.62Z"/>
</svg>