<?xml version="1.0" encoding="UTF-8"?>
<svg id="Layer_1" data-name="Layer 1" xmlns="http://www.w3.org/2000/svg" viewBox="0 0 512 512">
  <path d="M442.28,312.3c8.33-2.37,20.86-23.13,23.3-31.26,1.59-5.28,4.92-25.2,4.74-30.18-.44-12.3-14.07-14.31-17.4-25.93-4.9-17.08,7.06-26.58,3.5-39.22-5.65-19.99-37.96-21.97-45.16-3.21-3.5,9.12-6.69,25.24-.45,33.5,2.63,3.47,12.53,6.44,8.58,12.04-.98,1.4-12.3,4.43-15.77,6.34-12.02,6.59-17.37,18.16-22.52,30.21l-14.56-4.29-1.74,1.59-5.91.07c-9.77.47-8.33,7.61-10.32,14.03-.02.06-.05.11-.07.17l-183.04,1.74c.6-.78,1.04-1.83,1.26-3.28,2.06-13.57-8.43-10.89-9.95-15.49-3.78-11.43,3.61-40.83,3.23-54.13l-7.83-5.9c-.05-41.88,5.96-84.05,9.48-125.9,20.97,1.53,16.95-19.9-1.06-22.11-10.17-1.26-10.09,4.8-13.35,5.18-21.86,2.54-49.44,2.29-71.61,1.66-7.66-.22-15.35-3.63-22.99-1.04l-1.36,2.05c1.12,113.27-2.28,226.75-.32,340.01.13,7.35,4.22,15.08-.1,21.86-2.4,3.77-9.11,4.28-8.02,11.69.72,4.91,3.72,6.91,8.64,6.06,7.72-1.33,18.46-10.38,29.33-11.63,5.83-.67,15.97-.44,21.9.22,7.51.83,22.97,7.54,28.79,6.32,8.17-1.72-1.22-13.81,5.43-13.36,26,1.75,51.93,6.21,78.04,7.04,4.96,10.52,10.56,11.4,19.26,3.54l192.71,18.37c-2.38,7.16-5.63,12.58-1.46,20.15,11.98,3.33,11.44-2.81,16.92-7.25,6.17-5.02,12.53-4.41,9.65-15.05-.82-3.03-4.52-5.5-5.48-8.13-1.62-4.38-1.89-41.08-.85-46.64.78-4.16,7.26-10.49,6.39-15.15-1.27-6.84-25.91-6.23-31.98-6.2,18.85-20.2-2.4-39.54,6.71-60.51,3.47-2.58,9.68,3.66,15.44,2.02ZM93.5,141.97c.08-4.02,1.73-7.74,1.84-11.76.49-17.81-1.83-36.26,1.65-53.64,2.3-.47,2.56,3,2.77,4.59,1.22,9.45-1.06,21.24-1.16,30.2-.5,46.21.53,92.49.05,138.69-5.9-.78-4.45-4.57-5.08-6.34v-10.38c.22-12.89.13-25.81,0-38.73v-1.61l-.02-.65c-.18-16.8-.4-33.6-.04-50.38ZM66.35,79.96l1.72,15.3,5.08-20.39-6.78,1.69v-5.1c9.32.05,9.71,6.4,15.19,11.15,2.3,2,6.84,2.67,7.82,4.09,3.53,5.11-.83,36.73-1,45.06-.41,20.19-.79,41.69-.69,62.8v51.47c-1.03,1.07-1.82,2-1.98,2.06-3.04,1.08-7.52-.07-10.86.26-.13-4.23.18-8.53.01-12.78-.1-2.29,1.41-7.08-2.54-5.94-3.85,1.1,3.16,18.54-2.55,20.42,1.71-3.97-3.42-10.99-3.42-12.76V79.96ZM98.59,408.15l-32.22,8.58-.98-64.74,34.97-6.69-1.77,62.85ZM97.5,268.44c-4.14,1.3-31.71,3.2-32.86,2.01l1.01-5.24,34.71-3.25c.23,2.93.55,5.41-2.86,6.48ZM120.75,408.23l-6.48-.29c-.25-1.23-1.99-3.35-1.99-3.96V69.75l35.72-1.7c-11.76,113.04-17.86,226.89-27.25,340.18ZM136.27,408.05l1.53-27.02c18.77-.34,37.59,1.67,56.2,4.16l13.52,29.83-71.25-6.97ZM209.23,374.22l-8.48-.03c-4.26-21.55,11.69-24.43,8.48.03ZM225.6,369.28c-1.97.65-4.16,7.76-8.61,6.6-5.99-1.58,2.38-22.03-10.41-23.82-11.9-1.67-13.91,11.24-12.65,20.46l-56.15-3.4,6.24-69.47c3.79-2.81,9.74-15.58,11.63-17.29,1.51-1.37,3.64-1.64,5.64-2.13l184.41.1c.86,7.62,4.78,15.7,13.19,15.64l1.64.58c6,5.62,11.04,1.7,17.07-.57.54,10.29-.19,20.62-3.61,30.39-14.44-.48-29.62,5.11-42.91,10.66-7.85,3.29-23.9,10.8-30.58,15.35-8.53,5.82-22.11,23.18-32.67,25.15-5.38,1.01-24.91-.32-30.18-1.98-4.1-1.29-5.61-8.43-12.05-6.27ZM432.05,403.13l-1.7,32.32-175.19-17.88c-1.49-3.59-.11-3.43,2.16-4.64,7.8-4.16,18.43-4.42,26.7-7.29,19.07-6.61,20.39-11.88,43.4-11,23.04.87,46.73,4.83,69.77,6.77,11.48.97,23.34,1.19,34.86,1.72Z"/>
</svg>