<?xml version="1.0" encoding="UTF-8"?>
<svg id="Layer_1" data-name="Layer 1" xmlns="http://www.w3.org/2000/svg" viewBox="0 0 512 512">
  <path d="M452.23,339.09c-8.15-2.38-16.3-7.47-16.98-13.58-.68-6.12,1.02-22.42,5.1-30.23,4.07-7.81,12.56-28.18,13.92-41.09,1.36-12.9-.34-27.5,1.36-32.94,1.69-5.43,5.77-21.73-5.1-29.88-10.86-8.15-33.62-25.81-43.8-28.19-10.19-2.38-25.81.68-34.3-1.36-8.49-2.03-28.87-13.92-43.13-12.9s-29.89,7.13-37.36,9.17c-7.47,2.04-14.6,2.37-21.05.34-6.45-2.04-25.13-7.13-34.64-3.4-9.51,3.74-17.32,8.83-24.45,8.83s-20.38,5.09-32.26,15.28c-11.89,10.19-20.72,18.34-30.91,18.34s-19.35-4.41-24.11-8.83c-4.75-4.41-17.66-13.92-33.28-13.58-15.62.34-25.47,1.02-30.22,13.24-4.76,12.23-7.47,12.23-11.55,15.62-4.07,3.4-10.86,6.79-11.88,14.95-1.02,8.15,4.06,11.94,7.13,14.6,6.72,5.82,13.92,9.51,13.92,15.28s7.47,13.92,3.06,18c-4.42,4.07-11.55,6.45-10.53,14.6,1.02,8.15,3.4,16.64,11.89,20.04,8.49,3.39,19.69,3.73,24.11,3.73s7.81,7.47,5.77,13.93c-2.04,6.45,1.02,16.3-5.77,18.33-6.79,2.04-10.69,5.13-7.13,11.89,2.2,4.19,16.64,7.13,26.14,6.11,9.51-1.02,14.27-.34,14.61-13.24v-27.75l219.91,82.54-.09,32.94c-.01,3.08-1.94,5.83-4.84,6.89l-44.69,16.27c-5.38,1.96-6.56,9.05-2.1,12.64l13.24,10.66c2.45,1.98,5.89,2.17,8.55.48l44.2-24.95c.85-.54,1.8-.9,2.8-1.05l54.94-8.84c5.57-.88,8.12-7.45,4.6-11.86l-8.99-11.23c-1.87-2.34-4.97-3.31-7.85-2.45l-27.5,8.23c-4.74,1.41-9.49-2.15-9.46-7.09l.46-81.03,7.47,2.5c3.84,1.28,8.06-.27,10.15-3.74l1.22-2.03c5.65.48,12.91.39,20.01.49,3.2.05,5.78-.1,7.85-.4-.38,1.64-.88,2.93-1.57,3.68-3.39,3.74-6.45,15.96-3.73,17.66,2.71,1.7,12.22,4.08,33.96,3.74,21.73-.34,32.26,2.38,33.62-6.11,1.35-8.49-12.57-10.87-20.72-13.25ZM340.76,373.92l-219.97-81.51v-6.64s4.41-7.47,5.77-14.6,8.49-9.17,14.26-7.81c.96.23,3.17.42,6.28.6l193.78,64.86-.12,45.1ZM268.54,249.05c4.95-3.94,16.23-13.94,18.99-17.61,3.05-4.08,9.51-8.15,14.94-8.49,5.43-.34,12.57,5.09,18.34,7.13,5.77,2.04,22.41.68,25.47.34,3.05-.34,6.79,2.72,5.43,13.58-1.36,10.87,5.43,14.61,5.1,19.36-.17,2.38.17,7.99.33,13.56l-88.6-27.87ZM409.16,319.28c-3.54-.35-9.69-1.81-14.91-5.02l7.33-12.19c2.88-4.79.52-11.02-4.81-12.69l-11.62-3.66c-.57-2.26-1.1-4.96-.84-8.43.68-9.17,5.78-21.06,5.78-29.89s-2.04-16.64,6.79-18c8.83-1.36,14.94-1.7,15.28,2.04.34,3.74-6.79,13.58-7.47,23.43-.68,9.85,0,23.43,2.71,29.55,2.72,6.11,5.44,18.33,4.76,25.13-.25,2.44-.27,6.22-.36,10.22-.91-.24-1.81-.41-2.64-.49Z"/>
</svg>