<?xml version="1.0" encoding="UTF-8"?>
<svg id="Layer_1" data-name="Layer 1" xmlns="http://www.w3.org/2000/svg" viewBox="0 0 512 512">
  <path d="M382.06,440.21l-.73-6.79c-.21-2.02-2.03-3.48-4.05-3.27l-21.01,2.27,9.3-373.29c.05-1.91-.67-3.76-2.01-5.12-1.33-1.37-3.16-2.14-5.07-2.14h-85.08l-.09-7.04c-.05-3.88-3.21-7-7.09-7h-.03l-113.76.46c-1.89,0-3.7.76-5.02,2.11-1.33,1.35-2.06,3.17-2.04,5.06l3.87,308.34-21.3,1.22c-2.41.14-4.59,1.5-5.77,3.61-1.19,2.11-1.21,4.68-.07,6.81l51.62,96.45c1.24,2.32,3.65,3.74,6.24,3.74.26,0,.51-.01.76-.04l198.07-21.34c2.02-.21,3.48-2.02,3.26-4.04ZM261.65,320.36c-1.36,2.03-5.95,6.17-9.45,3.34-2.55-2.05-3.17-12.58-2.78-15.85.4-3.28.4-16.08-.39-18.45-.82-2.46-2.83-12.45,1.81-14.04,4.08-1.39,7.07,2.21,7.75,7.13.68,4.93-.34,9.51-.34,12.4s.79,8.94,1.81,12.22c1.22,3.94,2.95,11.21,1.59,13.25ZM183.97,450.99l-44.13-82.45,66.49-3.82.58,83.8-22.94,2.47ZM206.3,53.96c-1.33,1.34-2.07,3.16-2.06,5.04l.87,180.25c-9.77,7.47-28.19,15.11-35.49,28.7-5.24,9.74-3.77,29.57,7.64,37.8,9.17,6.63,19.86,12.12,28.35,15.85l.63,28.93-42.82,2.46-3.78-300.56,49.47-.2c-1.05.34-2.02.93-2.81,1.73ZM218.47,66.04h40.95l1.79,135.98c-2.44,3.1-5.74,5.23-10.15,5-14.59-.77-25.27,9.38-31.5,18l-1.09-158.98ZM342.06,433.95l-120.99,13.04-.41-59.99c8.37-.01,13.2-.3,13.2,9.06s-4.53,14.94-2.27,20.37c2.27,5.44,22.19.46,37.59.46s10.41-9.96,5.88-11.78c-4.53-1.81-19.02-2.26-24-5.88s-2.26-10.42-2.26-16.3.9-16.2,5.37-17.19c3.11,14.95,16.07,26.16,31.57,26.16,17.83,0,32.28-14.83,32.28-33.11s-14.45-33.11-32.28-33.11c-3.02,0-5.93.42-8.7,1.21l-.2-14.77c.82-6.13,1.53-13.08,1.16-18.39-.18-2.64-.8-5.62-1.52-8.79l-.41-31.46c.8-3.55,1.53-7.29,1.71-11.37.18-4.05-.88-7.55-2-10.67l-.18-13.62c4.12-4.17,10.27-1.28,14.86-3.78,4.98-2.72,10.86-11.1,10.86-23.78s-14.19-16.94-22.64-16.07c-1.31.14-2.53.45-3.64.89l-1.44-109.04h77.62l-9.16,367.91Z"/>
</svg>