<?xml version="1.0" encoding="UTF-8"?>
<svg id="Layer_1" data-name="Layer 1" xmlns="http://www.w3.org/2000/svg" viewBox="0 0 512 512">
  <path d="M395.39,167.15l-15.9,31.78c17.56-2.84,35.99,6.95,48.58,18.7,30.58,28.53,29.17,87.69-15.29,102.33-19.95,6.57-38.37,1.11-54.12-12-2.8-2.32-3.44-7.56-8.12-6.82-4.69,17.51-11.74,33.03-10.02,51.74.85,9.31,9.16,24.57-5.26,27.64-13.85,2.95-18.45-10.64-25.11-12.61-4.49-1.33-10.13.39-14.84-.49-4.35-.81-15.34-6.39-18.13-4.27-7.98,18.39.1,36.61-.27,55.16-9.18,7.74-15.12,3.77-24.26,3.68-12.76-.14-25.57.19-38.32.15-9.91,46.82-61.29,61.1-97.18,29.75-7.37-6.44-11.83-14.85-19.52-20.74-10.05,1.29-26.41,19.88-35.01,12.24-19.51-17.33,23.46-24.17,25.43-30.96-10.13-31.47-9.51-71.4,22.41-89.91,35.29-20.46,68.14,2.17,90.15,29.7-8.41-36.76-20.1-72.58-25.36-110.05-.38-2.68,1.63-5.7,1.15-9.49-1.69-13.2-9.64-34.43-9.89-44.9-.13-5.66,4.55-14.52,3.32-18.42-1.79-5.67-11.87-1.43-15.77-1.72-12.06-.9-19.44-4.73-25.27-15.25-19.97-36.03,7.81-68.08,45.18-50.68,11.48-19.47,19.96-31.43,41.54-40.34,12.07-4.99,52.13-16.11,64.52-17.27,14.15-1.33,36.48,7.26,49.49,13.16,7.34,3.33,18.83,12.18,25.63,13.54,10.73,2.15,20.93.4,32.79,4.68,39.63,14.31,50.76,73.56,7.43,91.66ZM243.22,336.9c1.09-10.67-1.89-20.95-1.76-31.57.15-12.78,5.18-28.94,5.32-40.82.23-18.93-4.47-18.49,1.5-40.94,2.55-9.58,5.31-19.59,8.14-29.33,2.35-8.08,12.55-26.83,9.8-32.73-7.37-15.85-34.57-3.48-48.54-6.86-4.13,20.65,2.26,41.79.02,62.19-.72,6.55-5.01,12.82-5.2,18.78-.18,5.61,3.1,10.69,3.56,16.91,1.58,21.1-5.59,43.29-1.37,62.69,2.61,12.02,18.34,17.16,28.55,21.68ZM312.78,297.46c1.28-18.97-1.86-37.09-11.56-53.48-8.39-4.13-17.98,5.84-17.13,13.56.42,3.85,6.55,11.92,8.57,17.16,3.46,8.98,6.05,18.5,6.79,28.14l13.34-5.38ZM314.76,309.65c-5.26-.09-12.13,3.52-15.37,7.62-1.42,1.79-15.05,28.95-15.31,30.7-.42,2.75-.1,2.83,2.47,2.48,8.59-1.15,28.21.02,28.21-10.99v-29.81ZM244.93,382.04v-31.51c-2.81.29-1.79,4.11-4.14,6.93-10.06,12.09-17.46,12.38-31.61,9.2-1.87-.42-2.45-2.05-1.74,1.76,1.54,8.25,8.89,18.53,8.54,28.1,1.91,1.69,28.06-9.2,28.95-14.48Z"/>
</svg>