<?xml version="1.0" encoding="UTF-8"?>
<svg id="Layer_1" xmlns="http://www.w3.org/2000/svg" version="1.1" viewBox="0 0 512 512">
  <!-- Generator: Adobe Illustrator 30.0.0, SVG Export Plug-In . SVG Version: 2.1.1 Build 123)  -->
  <path d="M399.5,448.2c-.3-.5-9-4.9-10.6-5.8-30.5-15.3-65.7-22.4-95.8-38.4,7.3-7.8,24.5.2,24.1-13.7-.3-14.5-12.5-8.2-20.6-6.8-5.7,1-4-17.5-2.4-21.3,1.8-4.4,12-3,10.9-8.1-1-4.7-17-5.4-19.9-14.6-3.6-11.6,2.3-26,1-38l118.8,75.7c-3.3-10.8-9.5-20.4-18.1-27.5l-92.9-63.7c-2.7-4.7.5-10,.3-14.4-.5-9.8-9.3-21.6-14.9-29.5,6.1-2.8,13.6-1.4,19.6-4.5,6-3.1,10.6-12.6,14.9-16.1,3.8-3,8.9-3,13.7-6.9,17.8-14.6,9.2-41.5-6.1-54.2-4.3-3.6-20.4-10.9-21.5-13-1.5-3.1,2.1-2.6,3.8-3.1,10.8-3.1,33.3-7.7,25.1-24.1-1.1-2.2-26.3-27.9-28.9-29.6-6.2-4.1-28.4-14.8-35.2-14.8-6.2,0-10.9,3.7-17.1,3.7-2.9,0-20.8-2.4-22.2-3.4-5.3-3.4-1.4-24.5-15-33.6-12.4-8.3-24.6-1.9-30.7,10.5-4.3,8.8-3.4,11.4,0,20.2,2.8,7.3,11.3,16.9,12.8,21.6,2.3,7-1.8,11.6-.7,17.7,2,10.7,15.7,15.5,5.7,25.4-14.8,14.5-47.5,23.7-39.4,42.2s29.6,3.7,30,8.6c.2,2.7-17.7,24-20.9,30.7-6.3,13.2-11.2,30.3-.6,42.5,9.1,10.5,15.6,7.4,27.2,8.9,3.6.5,9.8,5.5,12.5,1.4.5-.8,3.2-21,8.6-12.1.5.8-1.1,15-.7,19.6,1.9,19.2,7.9,38,11.5,56.9-1.3,5.7-36.9,13.2-39.3,19.1,11.7,2.2,13,33.5,4.8,37.5-15.4,7.4-69.7-12.3-88.3-14.3-5.3-1.4-9.4,9.4-9.3,13.1.2,7.6,17.9,5.2,23,6.1,18.2,3,48.8,13.9,65.6,13.3,10.9-.4,45.1-22,53.4-10.1,5,7.3-11.6,8-16.9,10.8-8.6,4.6-10.5,17.4-1.8,20,7.5,2.3,39.1-16.7,49.3-18.2,43.4,12.7,88.2,38.1,132,47.8.2-1.7-.2-3.5,0-5.2.4-2.4,2.6-6.5,1.5-8.3h0ZM248.3,250c7.9-1.1,13.1,1.6,12,10.3-1.2,1.4-14.4-8.3-12-10.3h0ZM212.3,382.3c-8.1-23,9-13.8,20.4-5.8,0,2.9-16.9,7.9-20.4,5.8ZM233.3,187.8c-4.6,1.2-12.3-6.6-18.7-6.8-6-.2-9.9,5.3-16.3,3.6.7-3.7-1.2-12.7.3-15.2.6-1.1,22-8.5,23.2-8.6,2.4-.1,18.9,12.9,19.2,14.5.5,2.5-5.1,11.8-7.8,12.5ZM243.1,332.6c-.9-19.8,15-36.8,8.6-56.8,16.3-2.3,18.8,47.5,13.8,52.5-2.5,2.5-20.8,5.9-22.4,4.3h0ZM276.6,389.3c-3.9,5.9-19.9,6.4-22.9,1.6-4.9-7.9,16.5-6.7,18.5-13,4.1-13-25.6-19.9-20.5-24.7,5.6.7,21.2,5.1,24.2,9.3,2.8,3.9,3.6,22.3.6,26.7h0Z"/>
</svg>