<?xml version="1.0" encoding="UTF-8"?>
<svg id="Layer_1" data-name="Layer 1" xmlns="http://www.w3.org/2000/svg" viewBox="0 0 512 512">
  <path d="M295.96,322.1c1.91,1.89,33.12,6.13,35.06,4.73,14.27-71.51,85.33-64.57,83.11,9.25l50.48,8.11.23,13.75c-1.24,1.85-3,1.61-4.9,1.51-15.41-.84-32.5-6.01-48.22-6.66.24,15.27-18.24,45.37-33.22,48.44-26.7,5.47-42.27-14.1-47.19-37.89-1.65-7.99-1.2-16.83-2-24.88-12.21-1.79-27.36-5.74-39.55-4.09-2.85.39-4.95,2.46-7.23,2.91-10.92,2.14-22.19-10.69-34.09-11.42-.64,11.85.83,24.41-.04,36.17-.96,13-16.58,69.53-10.13,75.83,10.35,7.42,31.73-1.88,28.74,16.49-.81,3.27-44.49,12.17-49.64,11.23-12.46-2.27-1.14-23.35-1.31-32.7-.57-31.03-21.9-53.7-11.02-83.92,3.43-9.53,11.34-16.88,13.08-26.46-17.8-2.68-29.93-11.24-34.95,11.32-3.24,14.57-10.63,59.93-10.63,73.66.01,23.97,18.07,19.17,34.17,21.54,9.87,1.45,7.17,5.31.22,9.36-10.24,5.97-19.39,2.14-29.74,4.01-4.31.78-17.09,15.55-24.88,5.67-2.88-3.65.81-32.18.13-40.54-2.11-26.09-17.75-47.58-4.54-73.62,6.4-12.62,23.52-22.04-3.95-22.33-9.51,16.22-15.44,36.38-36.85,40.44-32.99,6.24-46.7-23.44-47.24-51.39-6.73,1.12-22.77-1.93-15.29-11.12,4.79-5.88,13.46.8,16.98-1.42,8.83-21.72,25.38-45.32,52.18-36.3.75-6.66-3.99-11.51-4.88-17.82-2.09-14.75,2.09-27.49,11.67-38.53,12.3-14.19,34.99-12.77,41.61-30.78,5.23-14.21,3.31-20.57,15.54-33.28,6.56-6.82,32.54-19.04,41.69-20.59,9.83-1.67,19.14,2.04,29.08-.41-.24-12.36-5.69-19.01.21-30.94,8.08-16.35,22.75-20.34,37.66-9.46,19.49,14.23,9.48,40.96-.49,58.33-.37,3.76,8.51,12.37,10.13,17.89,3.21,10.92.16,18.63-.21,28.81-.11,3.13,1.81,7.11,1.56,11.91-.48,8.91-6.17,19.24-6.05,28.69.11,8.07,5.22,14.12,6.01,21.87,1.43,13.95-3.76,33.7-4.1,48.83-.13,5.73.31,33.3,2.82,35.8ZM258.52,189.5c-24.96,2.92-41.8,15.73-57.2,34.51,6.3,4.62,12.93,5.77,19.28,10.99,13.77,11.31,21.15,30.99,24.52,48.03.56,2.83-1.31,6.34-.91,8.34.58,2.9,5.31,19.38,6.31,21.46,6.53,13.64,12.12,1.4,16.43-2.95,2.28-2.3,5.59-3.32,7.53-5.92,8.14-10.93-8.33-35.34-11.7-47.16-4.39-15.38-.09-24.68-.82-39.59-.44-8.99-3.94-18.51-3.44-27.71Z"/>
</svg>