<?xml version="1.0" encoding="UTF-8"?>
<svg id="Layer_1" data-name="Layer 1" xmlns="http://www.w3.org/2000/svg" viewBox="0 0 512 512">
  <path d="M379.83,469.89c1.34-15.03,16.85-26.19,20.02-41.47,2.82-13.58.88-39.19-5.81-51.55-2.89-5.35-17.23-17.04-22.79-18.78-4.35-1.36-14.02-.47-16.96-2.95-1.73-1.46-1.66-7.23-4.95-8.02l-26.27,7.11c-3.38,11.96-3.18,29.57-19.02,32.21s-22.71-23.19-35.17-14.51c-5.63,3.92,1.5,30.52-23.25,28.77-13.51-.95-17.2-19.53-27.64-19.24l-121.78,30.8c-1.82.63-2.79,1.64-3.51,3.42-4.88,12.07-4,32.03-8.85,44.84-2.22,2.8-34.68,10.19-39.11,9.38s-6.03-5.14-3.59-8.79c2.42-3.61,14.75-1.59,16.12-8.13l16.09-89.75c.11-13.85-32.05-23.83-29.2-41,.39-2.33,3.24-8.85,4.78-10.46,7.06-7.41,97.04-22.52,115.34-28.89,29.15-10.15,20.84-24.88,23.53-49.21,2.06-18.63,12.72-37.03,9.94-57.12l-1.44-2.03c-16-2.4-39.52-9.05-43.89-27.11-6.29-25.96,12.27-53.06,40.85-47.77,5.43,1.01,14.31,8.57,17.47,7.97,2.23-.43,11.89-12.44,20.11-14.49,7.05-1.75,19.83-3.86,27.66-5.25,21.41-3.81,16.67-.19,33.01,5.31,15.01,5.05,66.61,23.34,78.7,21.57,3.68-.54,5.87-3.27,10.26-3.28,21.99-.04,58.32,28.73,65.26,49.18,7.8,23.01-2.82,37.85-12.18,58.08,8.25,2.24,23.61-10.38,30.36-3.51,7.23,7.37-.35,21.74.86,30.23.75,5.29,5.51,8.16,6.52,12.62.88,3.89.82,24.86-1.39,26.48-15.3-5.98-18.39-40.34-35.64-41.57-14.86-1.06,1.09,14.42,1.98,17.23,6.51,20.71-10.54,15.42-15.56,24.46-1.96,3.53-6.54,22.67-6.16,26.58.69,7.15,14.19,16.34,16.51,28.65,2.04,10.79-2.91,33.75.67,39.17,3.14,4.76,13.06,6.16,10.52,16.32-28.12.27-17,12.9-17.32,30.32-.13,6.86-6.75,44.16-14.72,44.16h-30.31ZM246.45,165.08c-8.66-1.55-5.65,8.76-7.82,15.55-2.7,8.4-7.88,15.86-10.79,23.83-8.26,22.66-15.46,45.6-24.65,67.99l65.81-12.12c-4.03-13.61-3.38-28.77-5.62-42.02-1.29-7.63-7.81-14.43-10.46-22.45-3.29-9.98-3.5-20.73-6.47-30.78ZM317.24,193.01l-10.15-.22c-.27,5.62,3.65,9.52,5.09,14.81,3.84,14.11.39,29.24-5.09,42.32l10.53-2.83-1.34-41.09c1.47-4.67,3.83-8.28.95-12.99ZM376.36,293.23c-24.13,7-56.5,9.49-79.32,18.53-2.59,1.03-6.37,1.61-5.52,5.69,10.57,2.59,16.14,12.04,24.99,17.23l63.2-15.58-3.35-25.87ZM270.71,319.22l-165.02,38.46c-6.57,2.66-5.58,25.61-8.15,32.53l121.85-31.01c3.92-2.79-.19-18.65,14.61-23.97,13.76-4.94,14.58,6.29,22.98,9.11,9.65,3.24,14.01-18.38,13.74-25.11Z"/>
</svg>