<?xml version="1.0" encoding="UTF-8"?>
<svg id="Layer_1" data-name="Layer 1" xmlns="http://www.w3.org/2000/svg" viewBox="0 0 512 512">
  <path d="M460.62,202.91c-.68,7.82-8.15,7.82-8.83,13.25s-.68,19.36-7.81,20.37c-7.13,1.02-8.15,8.15-11.54,10.53-3.4,2.38-6.8,4.42-11.21.34-4.42-4.07-11.89-8.49-18.34-2.38-5.62,5.33-21.05,9.51-21.05,17.32s.34,18.34-10.53,26.15-13.93,12.57-13.93,18,3.74,10.87,4.42,15.96c.68,5.1-2.72,19.02-2.38,31.92.22,8.44,3.35,22.7,5.49,31.55,16.67,1.65,29.69,15.71,29.69,32.81,0,18.2-14.76,32.96-32.97,32.96s-32.97-14.76-32.97-32.96c0-10.23,4.66-19.38,11.98-25.42-6.07-8.48-15.63-24.7-18.57-45.73-4.42-31.58.34-40.75-5.78-37.01-6.11,3.73-12.56,2.71-19.69,3.39-7.13.68-14.27-1.7-18,2.04-3.74,3.73-9.51,6.11-13.58,7.13-4.08,1.02,7.47,20.38,7.13,34.3-.34,13.92-9.17,76.07-14.95,84.9-5.77,8.83-13.58,18.34-22.75,18.34s-34.3-11.21-45.5-17.32c-11.21-6.12-24.79-12.23-42.11-12.57-17.32-.34-39.06,8.15-53.32,12.57-14.26,4.41-28.86,16.3-36.34,15.62-7.47-.68-8.83-12.23.68-25.47,9.51-13.25,36.34-51.62,41.09-56.71,4.76-5.1,12.23-9.85,19.02-3.4,0,0,7.13,15.28,27.85,18.68,20.71,3.39,52.63,7.81,51.28-3.74-1.36-11.54-1.7-23.77-.68-31.58,1.02-7.81-9.51-13.58-12.57-19.36-3.05-5.77-5.43-32.94,11.21-48.9s23.09-19.02,34.3-19.35c11.2-.34,29.88-8.15,50.26-22.76,20.37-14.6,42.11-38.03,58.75-38.37,16.64-.34,30.56,2.72,40.41,2.72s16.3-2.38,15.96-11.55c-.34-9.17,9.17-30.22,21.39-30.22s23.78,0,31.59,9.16c7.81,9.17,13.58,16.98,12.9,24.79Z"/>
</svg>