<?xml version="1.0" encoding="UTF-8"?>
<svg id="Layer_1" data-name="Layer 1" xmlns="http://www.w3.org/2000/svg" viewBox="0 0 512 512">
  <path d="M243.45,434.16c4.35-5.76-18.8-6.69-20.48-7.09-17.15-4.17-19.96-11.79-32.27-21.28-16.5-12.72-28.4,4.49-46.6,3.24-14.57-1-41.78-20.75-52.35-21.28-5.02-.25-7.89,5.42-11.72,7.76h0c-1.66.05-3.23-.78-4.1-2.2-8.07-13.2-29.65-30.22-31.59-43.63-1.26-8.67,14.35,3.86,15.59,4.52,29.9,15.76,73.78,24.17,107.5,21.51,6.75-.53,12.52-4.8,18.48-4.96,5.38-.14,25.15,4.47,28.41-.04,1.35-30.27-29.58-22.98-44.46-39.44-12.85-14.22-14.77-43.91-35.13-47.58-4.29-.77-7.21-4.73-6.57-9.04,2.27-15.26.39-29.7-.05-45.27-.07-2.5,3.12-3.62,4.62-1.62l.04.06c3.77,4.98,7.86,18.22,11.69,25.12,19.38,34.9,48.85,53.98,80.5,75.1,25.84,17.24,51.86,32.36,58.59,65.22,2.13,1.42,25.12,1.18,29.2.62,8.17-1.13,16.27-7.37,25.23-8.23,9.19-.88,12.77,2.21,20.03,3.09s7.84-2.56,18.25,2.15,23.15,22.27,25.68,22.97c8.31,2.31,8.43-7.48,13.23-11.25,2.61-2.05,11.5-5.28,14.85-5.27,1.55,0,19.13,3.54,21,4.13,12.53,3.96,17.34,24.28,11.39,35.01-9.97,17.97-26.57,9.73-42.28,7.79l-57.07,20.15c-9.79,1.55-26.01-7.97-33.57-8.46-4.66-.3-9.15,4.25-13.64,4.65-3.17.28-17.5-.95-21.18-1.5-8.23-1.22-19.14-7.94-25.47-8.17-2.91-.1-13.13,5.28-18.64,6.25-3.14.55-22.64,2.45-24.38,1.86-13.23-4.48,8.09-26.05,17.27-24.88Z"/>
</svg>