<?xml version="1.0" encoding="UTF-8"?>
<svg id="Layer_1" data-name="Layer 1" xmlns="http://www.w3.org/2000/svg" viewBox="0 0 512 512">
  <path d="M313.36,229.47c17.34-11.52,30.63,12.1,26.56,27.44-1.21,4.57-9.37,17.38-16.2,18.05-9.1.9-16.79-6.21-18.36-7.98.11,6.53-3.21,9.16-3.66,15.18-.63,8.33,2.37,18.42,1.19,28.42-1.07,9.02-9.12,23.56-8.37,30.85.71,6.9,13.3,18.83,15.78,27.16,5.43,18.28-6.05,40.06-7.19,58.59-.44,7.11,3.33,28.28.93,31.74-4.32,6.21-16.39-3.89-21.02-4.85-8.23-1.71-20.83,2.77-19.31-10.63l20.59-4.25c2.54-2.56,1.91-8.45,1.73-12.1-.79-16.43-5.75-44.34-9.48-60.7-1.23-5.38-8.77-32.13-11-34.91-5.42-6.77-12.01,15.06-11.94,18.68.09,4.4,8.22,16.26,10.16,22.15,9.38,28.51-8.11,38.11-10.13,63.6-.68,8.63,5.59,28.8,2.46,33.28-3.4,4.87-20.67-1.05-25.99-1.61-8.68-.91-17.61.32-26.25-1.99-3.29-18.25,22.26-8.1,30.46-19.89.61-3.86.49-7.81.25-11.69-1.13-18.38-8.64-39.87-8.52-58.21.03-5.15,3.37-9.75,3.02-14.99-1.02-15.13-9.63-33.7-11.43-46.78-.94-6.79,1.45-27.96-.94-31.58-10.71-6.64-25.16-2.14-35.05-9.45-13.32-9.85-11.79-30.39.72-40.15,6.46-5.04,9.93-1.94,15.2-3.63,7.54-2.42,4.99-37.93,6.31-45.04.86-4.61,7.02-11.16,8.99-16.69,1.8-5.08,5.99-23.14,6.27-28.14.54-9.99-7.38-11.94-2.85-26.66,4-13,12.92-20.47,26.89-18.46-2.11-15.86-10.08-36.94,6.27-47.64,9.56-6.26,17.81-7.5,27.1-.27,20.42,15.9-.35,33.86,7.89,46.89,5.63,8.9,21.74-2.03,31.46,19.89,12.47,28.14,5.59,39.76,2.63,67.61-.81,7.64.66,15.96-.21,23.76-.9,8.13-5.78,16.39-4.94,25ZM234.6,232.88c-.74-5.6-2.99-12.7-3.24-18.15-.16-3.46,4.06-11.36-.16-12.63l-15.38,26.41c.91,4.03,15.1,4.98,18.78,4.37Z"/>
</svg>