<?xml version="1.0" encoding="UTF-8"?>
<svg id="Layer_1" data-name="Layer 1" xmlns="http://www.w3.org/2000/svg" viewBox="0 0 512 512">
  <path d="M77.54,249.99c-4.29-1.3-3.35-10.11,2.06-11.67l43.25-2.23c4.28-34.38,36.03-54.88,54.28-15.33,2.02,4.38,3.75,15.88,7.04,16.98,8.98-.91,37.81,3.13,43.5-2.36,9.62-9.29-4.41-49.82-1.29-66.49,2.66-14.18,12.03-26.46,18.23-38.4,5.66-10.9,5.25-19.76,16.53-28.09,3.13-2.31,9.77-2.62,10.96-6.28-2.2-15.73-9.56-40.57,7.15-51.11,15.4-9.72,35.14,1.46,35.87,18.96.31,7.36-8.04,17.3-5.94,22.9,6.71,17.85,28.58,11.76,37.69,25.94,2.49,3.88,10.13,29.4,10.48,34.29,1.37,19.42-18.37,55.1-33.39,67.97,8.22,12.97,5.4,25.5,25.4,21.03,4.4-31.56,37.73-47.15,55.39-14.72,1.71,3.14,2.79,11.08,4.76,12.45,2.53,1.75,20.73-4.1,20.76,5,.03,9.61-16.98,4.06-20.79,6.78-.85.6-5.17,14.53-8.48,18.98-12.47,16.78-33.04,14.87-44.33-2-6.59-9.85-4.73-24.68-21.84-17.77,2.57,9.59-3.56,21.24-3.87,30.05-.32,9.17,2.12,20.4,1.37,30.89-.68,9.58-5.29,22.21-5.26,30.92.06,14.35,15.12,24.93,17.18,37.84,2.61,16.4-8.22,37.99-8.58,54.8-.22,10.1,4.14,19.88,3.54,30.03-9,3.27-14.51-2.16-21.54-3.32-6.23-1.02-13.21,1.1-19.62-1.83-3.62-5.17,17.03-9.53,19.7-15.45,4.15-9.18-5.8-62.58-8.82-75.21-2.61-10.94-8.79-31.61-13.46-41.45-.61-1.29-2.95-6.15-4.27-5.14l-13.73,30.18c-.8,7.96,8.44,22.11,9.87,31.14,4.24,26.84-16.09,40.53-15.15,66.52.22,5.97,6.9,22.34,1.94,25.84-4.92,2.52-9.98-.79-14.72-.95-7.84-.26-16.06.6-23.78-.23-4.13-.45-12.74-.96-13.2-5.79-.91-9.46,23.04-7.88,29.27-15.45,5.66-6.87-1.25-39.32-1.77-49.67-.42-8.39.02-17.34.08-25.79.14-20.45-2.59-35.75-6.11-55.7-5.06-28.68,2.3-45.25,14.67-70.44-6.31-.08-11.75,4.98-18.05,4.87-4.57-.08-9.57-4.03-13.91-4.32-3.39-.23-7.55,1.6-11.82,1.3-10.17-.71-20.23-3.32-30.63-1.64-3.13,1.07-4.62,13.14-6.45,17.57-16.53,39.9-50.9,20.23-54.69-14.36h-45.47ZM262,236.27l-1.9-65.8-4.93-2.84c-4.39,8.17-2.26,16.78-3.63,24.7-1.46,8.38-5.65,15.47-5.01,24.17.54,7.38,5.82,22.09,15.48,19.77Z"/>
</svg>