<?xml version="1.0" encoding="UTF-8"?>
<svg id="Layer_1" data-name="Layer 1" xmlns="http://www.w3.org/2000/svg" viewBox="0 0 512 512">
  <path d="M355.83,73.16c-12.26,6.45-19.83,17.5-19.25,32.37s3.91,12.82,3.62,17.19-4.24,6.27-5.6,11.72c-.51,2.04,1.53,5.56,7.64,6.11,1.87.17.34,6.79,3.23,11.21,2.22,3.39,5.37,7.7,7.81,9.51,4.54,3.37,9.56,5.42,15.38,5.51,18.96.29,8.46,27.71-.58,33.83s-14,27.71-12.83,49.58,6.42,59.79,3.5,63.58-8.46-25.96-43.46-44.91c-35-18.96-59.12-33.56-74.08-30.91-33.83,5.98-55.12,57.16-71.45,77.29-16.33,20.12-53.66,77.87-100.91,91.87-47.25,14-44.33,21.87-30.33,23.62,14,1.75,23.62,1.46,30.62.87s-1.75,10.79-24.21,11.96-32.94,15.27-7.8,21.95c18.67,4.96,52.13,4.59,69.05,3.14,16.92-1.46,24.5-4.08,23.62-16.62-.87-12.54-1.17-18.67,9.33-19.83s39.08-4.96,53.37-17.21c14.29-12.25,40.75-24.69,36.16-58.33-2.19-16.04,13.62,37.17,46.66,60.95,15.6,11.23,13.85-.87,28.14,14.58s10.94,43.46,58.77,43.89c54.25.5,69.27-41.85,67.81-56.43s-2.04-21.24-1.9-29.16c.15-8.17,44.18-45.21,44.33-82.24.17-42.58-1.75-31.21,2.62-37.33,4.37-6.12,21.09-16.25,7.44-86.04-12.98-66.35-10.35-65.62-21.44-76.7-11.08-11.08-18.96-11.41-21.58-21.58-3.21-12.47,5.25-22.97-8.46-36.75-10.67-10.72-26.61-12.1-36.75.36-12.6,15.5-8.75,20.05-18.08,20.05s-15.85.52-20.42,2.92Z"/>
</svg>