<?xml version="1.0" encoding="UTF-8"?>
<svg id="Layer_1" data-name="Layer 1" xmlns="http://www.w3.org/2000/svg" viewBox="0 0 512 512">
  <path d="M412.68,75.23c-.18-3.13-2.85-5.5-6-5.32l-14.21.85c-2.41-19.77-13.37-34.69-26.54-34.69-13.86,0-25.29,16.55-26.85,37.87l-16.7,1c-1.14-1.66-3.2-3.78-5.04-4.58-2.72-1.19-9.51-.85-11.71.68-1.27.88-2.21,3.23-2.77,5.06l-66.81,3.99c-.5-1.18-1.13-2.57-1.57-3.28-.85-1.36-7.64-.68-11.55.34-2.27.59-3.74,2.51-4.57,4l-24.81,1.48c-2.01-24.05-14.98-42.6-30.7-42.6-16.5,0-29.98,20.47-30.91,46.28l-32.59,1.94c-3.12.18-5.51,2.87-5.32,5.99.18,3.01,2.68,5.33,5.65,5.33.12,0,.23,0,.35-.01l32.32-1.93c2.53,23.09,15.22,40.64,30.5,40.64,16.08,0,29.3-19.43,30.82-44.3l23.61-1.41c.21,2.25.77,4.9,2.06,7.34,3.06,5.78,4.08,12.91,4.41,25.47.34,12.57,4.08,27.17,3.4,40.42-.68,13.24-1.02,17.99,3.4,25.13,4.41,7.13,9.84,13.58,7.47,17.31-2.38,3.74-3.4,9.51-3.74,16.31-.34,6.79,2.04,14.6,4.42,17.31,2.37,2.72,3.05,2.72,3.05,7.48s0,11.54,6.8,15.62c6.79,4.07,4.55,10.52,4.21,14.94-.34,4.41-2.86,8.15-8.97,16.3-6.11,8.15-7.47,18.68-8.15,23.77-.68,5.1-1.36,10.53-8.49,18.34s-10.53,14.94-10.53,19.36,1.02,5.6-8.15,5.77c-9.17.17-23.09,14.43-27.84,19.19-4.76,4.75-10.53,1.86-13.25,4.75-2.71,2.89-4.24,11.89-.68,18,3.57,6.11,10.19,17.32,12.74,20.71,2.54,3.4,10.19,2.55,15.28,2.72,5.09.17,7.64-5.09,6.62-9.17-1.02-4.07-11.21-4.07-13.41-12.9-2.21-8.83,1.19-11.04,7.47-12.06,6.28-1.02,10.02-6.62,16.98-6.79,6.96-.17,18.68,3.4,31.75-10.19,13.07-13.58,20.04-24.96,21.22-30.56,1.19-5.6.68-15.11,4.08-15.45,3.4-.34,14.94,4.75,23.09,15.96,8.15,11.2,14.44,13.92,18.17,15.11,3.74,1.19,15.79,2.04,15.11,6.45-.68,4.42-6.45,6.28-8.32,11.21-1.87,4.92-1.36,22.07-.17,26.49,1.19,4.41,9,13.07,8.49,19.35-.51,6.29-.34,13.25-3.56,15.8-3.23,2.54-2.89,12.05,2.03,15.79,4.93,3.73,10.02,5.43,15.46,7.81,5.43,2.37,8.49,5.77,16.47,5.94,7.98.17,13.75-1.19,11.71-6.96-2.04-5.78-9.34-9.85-12.05-12.06-2.72-2.2-9.68-6.62-10.7-14.43-1.02-7.81-.85-20.72,1.87-26.66,2.71-5.94,5.94-27,5.77-34.47-.17-7.47-2.55-25.64-5.6-32.6-3.06-6.96-13.25-27.67-21.74-33.96-8.49-6.28-17.29-5.26-18.82-12.73-1.52-7.47-.36-24.45.82-32.26,1.19-7.81-.67-19.36.85-21.74,1.53-2.37,5.95-6.62,5.95-14.77s-3.57-24.11,3.56-34.13c7.13-10.02,9.34-12.9,9.85-24.62.51-11.72-2.72-21.56.34-24.79,3.06-3.23,6.45-7.47,6.79-16.64.34-9.17-1.87-17.15-4.24-21.9-1.76-3.51-2.77-15.06-3.18-20.87l11.8-.7c1.94,20.69,13.18,36.56,26.75,36.56,14.28,0,25.96-17.54,26.96-39.77l14.47-.86c3.13-.19,5.51-2.88,5.32-6ZM303.73,93.11c3.56,3.4,7.64,4.25,7.47,8.49-.17,4.25-.34,11.72-3.74,17.66-3.39,5.94-6.02,12.65-6.02,19.44s.93,21.23-.43,24.37c-1.01,2.33-4.92,6.96-6.62,3.22-1.7-3.73-.17-11.2-2.21-16.13-2.03-4.92-9.85-9.16-15.11-8.66-5.26.51-12.9,2.89-16.13,7.14-3.23,4.24-5.77,9.33-8.15,6.79-2.38-2.55-5.94-13.08-5.6-20.21s-4.76-11.88-5.1-16.3c-.34-4.41.74-15.44,1.02-18.51.31-3.45-.34-6.73-1.17-9.32l58.07-3.46c.9,1.88,2.14,3.99,3.72,5.48Z"/>
</svg>