<?xml version="1.0" encoding="UTF-8"?>
<svg id="Layer_1" data-name="Layer 1" xmlns="http://www.w3.org/2000/svg" viewBox="0 0 512 512">
  <path d="M478.01,33.99v444.03H33.99V33.99h444.03ZM229.22,229.22h-28.51c-.42,0-5.64,3.48-6.23,4.26l-.82,2.76,23.06,46.09.4,5.62c-13.9.86-43.88-6.76-55.82-3.12-7.05,2.15-11.49,21.47-13.09,28.04l-40.03-3.26c-1.88-1.07,1.43-12.5-.84-18.13-5.16-12.78-27.42-21.17-40.08-16.03-5.65,2.29-15.15,18.21-15.63,24.13-.3,3.78,1.95,6.87,1.1,11.29-1.15,5.95-8.24,6.83-6.66,15.88,1.02,5.86,20.75,21.37,17.29,25.12-5.95-1.86-32.13-11.62-18.83,2.43,11.65,12.31,43.09,29,50.67,42.63,3,5.41,10.43,46.36,11.2,54.51.13,1.37.34,2.73.18,4.09-6.33,1.14-21.59,1.72-25.96,6-3.17,3.11-2.75,11.08,2.46,11.19l131.43-27.61,9.27.33,2,6.63-6.87-3.43c.47,4.7-5.35,3.9-8.79,5.9-6.42,3.73-7.31,7.36-6.79,14.82,1.38,1.38,31.31-4.97,36.31-6.03,8.16-1.73,32.99-6.49,38.63-9.74,8-4.61,1.07-15.43,2.74-22.83l127.09-28.75,57.81,6.84c1.47-3.87,1.61-8.07-2.93-9.96-5.85-2.43-41.21-4.96-42.02-8.43,1.23-61.25-2.48-122.78,2.59-183.79,11.97-21.64,36.77-45.57,46.83-67.27,2.39-5.15,3.2-10.08-.93-14.75l-108.46,3.91-68.69,86.81-6.67-6.78c-15.11,15.75-12.74,28.32-39.14,19.78-9.56-3.09-15.35-13.99-25.87-12.98l8.63,13.81Z" style="fill: #fff;"/>
  <path d="M229.22,229.22l-8.63-13.81c10.52-1.01,16.31,9.89,25.87,12.98,26.4,8.54,24.03-4.02,39.14-19.78l6.67,6.78,68.69-86.81,108.46-3.91c4.12,4.67,3.32,9.6.93,14.75-10.06,21.69-34.86,45.63-46.83,67.27-5.07,61.02-1.36,122.55-2.59,183.79.8,3.47,36.16,6,42.02,8.43,4.54,1.89,4.39,6.09,2.93,9.96l-57.81-6.84-127.09,28.75c-1.66,7.4,5.27,18.22-2.74,22.83-5.64,3.25-30.47,8.01-38.63,9.74-5,1.06-34.92,7.41-36.31,6.03-.51-7.46.38-11.09,6.79-14.82,3.44-2,9.27-1.2,8.79-5.9l6.87,3.43-2-6.63-9.27-.33-131.43,27.61c-5.22-.11-5.64-8.08-2.46-11.19,4.37-4.28,19.63-4.86,25.96-6,.17-1.37-.05-2.72-.18-4.09-.77-8.15-8.19-49.1-11.2-54.51-7.57-13.64-39.02-30.32-50.67-42.63-13.3-14.06,12.88-4.29,18.83-2.43,3.47-3.75-16.26-19.27-17.29-25.12-1.58-9.05,5.51-9.93,6.66-15.88.86-4.42-1.4-7.52-1.1-11.29.48-5.92,9.98-21.84,15.63-24.13,12.66-5.14,34.92,3.26,40.08,16.03,2.27,5.63-1.03,17.05.84,18.13l40.03,3.26c1.6-6.57,6.04-25.89,13.09-28.04,11.93-3.64,41.92,3.98,55.82,3.12l-.4-5.62-23.06-46.09.82-2.76c.59-.78,5.81-4.26,6.23-4.26h28.51ZM401.99,202.44c2.95-16.59-2.19-41.2,0-58.74l-3.9-2.26-28.16,3.03-61.26,82.15c8.76,4.14,10.68-7.37,16.43-11.18,4.9,10.61,2.81,12.84,15.7,15.41,3.71,7.97-6.61,17.18-6.19,23.31l9.5,14.77c7.44-8.78,32.24-53.92,40.13-56.65,1.45-.5,2.99-.59,4.51-.44l3.73,5.26c1.65.11,9.1-12.38,9.5-14.65ZM445.18,141.11l-22.46-.02-1.7,32.84c4.61-1.48,26.49-30.77,24.16-32.82ZM345,279.32l9.31-8.81,21.75-32.65c-1.76-1.93-31.87,36.45-31.07,41.46ZM401.99,241.31l-4.88,2.89-44.93,65.78c1.67,8.39,6.69,15.39,7.9,24.21,2.4,17.53-3.46,44.12-17.74,55.66-15.08,12.18-30.87.12-47.47,2.63l-12.08,23.32,96.75-17.28c-3.26-5.37-11.02-3.55-16.45-6.85-2.66-1.61-6.02-5.47-1.45-6.71,10.77-2.93,28.73,4.25,40.37,3.22v-146.86ZM286.23,303.52c-8.42-.65-15.74.23-23.64,3.13-4.22,1.54-31.97,18.51-34.14,21.15-2.05,2.5-3.83,8.04-4.26,11.29-.93,6.97-2.53,29.24-.73,34.99,2.45,7.82,23.46,15.81,30.42,13.81,2.91-.84,18.43-21.66,18.69-24.75.53-6.35-2.42-11.95-1.44-20.31,1.8-15.34,11.11-25.54,15.1-39.31ZM210.66,416.2c-2.52,6.06,5.19,13.26,10.76,13.6,5.5.33,26.9-4.32,26.83-11.36-.02-1.96-8.34-13.9-10.32-15.65-13.4-11.87-17.6,2.1-24.36,11.7-.73,1.03-2.76,1.36-2.91,1.71ZM126.8,419.8c-1.14-1.36-12.09-8.75-13.32-7.43l6.01,20.64c6.21-1.02,11.76-7.91,7.32-13.21ZM177.39,439.99c-14.48-12.93-40.79,2.73-58.71,2.58l2.58,9.56,56.13-12.14Z"/>
  <path d="M401.99,241.31v146.86c-11.63,1.03-29.59-6.15-40.37-3.22-4.57,1.24-1.2,5.1,1.45,6.71,5.44,3.3,13.2,1.48,16.45,6.85l-96.75,17.28,12.08-23.32c16.61-2.5,32.39,9.56,47.47-2.63,14.28-11.54,20.14-38.12,17.74-55.66-1.21-8.83-6.23-15.82-7.9-24.21l44.93-65.78,4.88-2.89Z" style="fill: #fff;"/>
  <path d="M401.99,202.44c-.4,2.27-7.85,14.76-9.5,14.65l-3.73-5.26c-1.52-.15-3.06-.06-4.51.44-7.89,2.73-32.68,47.87-40.13,56.65l-9.5-14.77c-.42-6.12,9.91-15.34,6.19-23.31-12.89-2.57-10.8-4.8-15.7-15.41-5.75,3.81-7.67,15.32-16.43,11.18l61.26-82.15,28.16-3.03,3.9,2.26c-2.19,17.54,2.95,42.15,0,58.74Z" style="fill: #fff;"/>
  <path d="M286.23,303.52c-3.99,13.77-13.3,23.97-15.1,39.31-.98,8.36,1.97,13.95,1.44,20.31-.26,3.09-15.78,23.91-18.69,24.75-6.96,2-27.97-5.99-30.42-13.81-1.8-5.75-.21-28.02.73-34.99.43-3.24,2.21-8.79,4.26-11.29,2.17-2.64,29.92-19.6,34.14-21.15,7.9-2.89,15.22-3.77,23.64-3.13Z" style="fill: #fff;"/>
  <path d="M210.66,416.2c.15-.36,2.19-.68,2.91-1.71,6.76-9.6,10.96-23.57,24.36-11.7,1.98,1.75,10.3,13.69,10.32,15.65.07,7.03-21.33,11.68-26.83,11.36-5.57-.33-13.27-7.53-10.76-13.6Z" style="fill: #fff;"/>
  <path d="M177.39,439.99l-56.13,12.14-2.58-9.56c17.92.15,44.23-15.51,58.71-2.58Z" style="fill: #fff;"/>
  <path d="M445.18,141.11c2.33,2.05-19.55,31.34-24.16,32.82l1.7-32.84,22.46.02Z" style="fill: #fff;"/>
  <path d="M345,279.32c-.8-5.02,29.3-43.4,31.07-41.46l-21.75,32.65-9.31,8.81Z" style="fill: #fff;"/>
  <path d="M126.8,419.8c4.44,5.3-1.11,12.19-7.32,13.21l-6.01-20.64c1.24-1.33,12.18,6.07,13.32,7.43Z" style="fill: #fff;"/>
</svg>