<?xml version="1.0" encoding="UTF-8"?>
<svg id="Layer_1" data-name="Layer 1" xmlns="http://www.w3.org/2000/svg" viewBox="0 0 512 512">
  <path d="M106.02,40.24l2.9-2.36,18.23-1.29,1.66,23.83c1.71,1.7,26.4-4.03,30.62-5.36,4.21-1.33,7.32-4.63,11.5-6.05,21.31-7.25,86.98,4.13,110.14,10.89,12.91,3.77,28.35,8.34,37.17,18.92-5.43,6.84-11.58-3.12-18.26-2.63-2.93.22-5.6,2.86-9.05,3.35-7.73,1.12-15.68,2.15-23.53,1.91,2.86,20.36,8.04,51.53-.46,70.57-3.07,6.88-12.89,16.26-13.54,23.44-.96,10.47,7.19,28.75,6.27,39.28-.56,6.41-5.05,14.1-6.28,21.96-2.04,13.07-.22,26.38,0,39.46,14.21-2.99,20.69-1.57,33.41,4.3,26.02,12.01,48.24,26.1,79.71,23.73,10.14-.76,27.24-9.64,35.95-2.57,5.16,4.18-2.03,9.33-5.39,12.1-10.58,8.73-30.68,22.57-44.71,16.97-3.93-1.57-5.41-5.54-10.35-5.58-4.07-.03-6.99,3.12-10.66,3.58-11.06,1.39-27.86,2.29-38.05-2.11-3.71-1.6-9.39-7.56-11.19-7.89-4.68-.87-21.67,2.67-27.87,3.06-8.42.53-17-.34-25.42.02v132.44c-4.88,4.91-21.41,4.07-22.81-3.51l.1-129.91c-4.88-10.1-11.2-19.49-10.78-31.49.48-13.54,13.52-15.41,7.56-35.46-4.51-15.2-17.86-28.62-17.91-48.73-.03-10.76,6.4-24.74,7.02-35.14.46-7.82-3.67-13.69-3.18-18.82.6-6.37,7.52-15.13,9.4-22.25,3.44-13.06,3.65-29.6,7.58-42.95-.73-2.18-2.28-2.33-4.23-2.71-23.09-4.49-49.24-5.57-72.74-8.83v397.32l-2.77,2.44-20.04-1.56V40.24ZM207.75,51.65c-6.38.18-3.76,6.61-10.43,9.7-8.17,3.78-22.58,3.37-32.03,4.84-2.07.32-8.51.43-8.39,2.98l49.1,8.8,1.75-26.31ZM253.2,74.29c6.96-8.32-12.98-18.07-20.63-13.63l-3.76,15.53c.87.87,23.04-.29,24.39-1.9ZM255.13,84.97l-23.34,1.72c-3.8.9-4.18,36.55-2.68,40.96s14.38,9.12,19,8.19c-2.9-18.52,4.83-33.49,7.03-50.87Z"/>
</svg>