<?xml version="1.0" encoding="UTF-8"?>
<svg id="Layer_1" data-name="Layer 1" xmlns="http://www.w3.org/2000/svg" viewBox="0 0 512 512">
  <path d="M317.34,349.71c6.02,5.22,11.35,21.5,12.39,22.25s7.23,1.18,10.06,2.3c3.69,1.46,9.89,8.23,11,2.13,3.05-16.74,2.65-10.72,16.59-14.79,11.97-3.49,16.35-4.71,30.07-2.13,40.53,7.62,31.5,64.93-4.49,63.99-12.01-.32-20.59-8.4-35.27-3.91-2.62.8-20.43,13.66-22.79,15.98-4.09,4.01-5.87,10.55-11.53,14.03-8.61,5.29-16.06,1.86-23.76,4.28-3.88,1.22-5.82,5.42-9.35,7.14-9,4.4-30.03.3-40.09-2.05-5.31-1.24-17.21-7.06-19.22-7.24-2.61-.23-3.95,3.56-7.85,4.47-4.48,1.04-31.47-2.35-37.57-3.51-12.17-2.31-27.92-11.51-39.93-9.37-3.19.57-5.63,3.55-8.91,4.01-5.98.85-16.78-2.34-22.59-2.18-5.29.15-18.41,7.23-23.16-1.91-3.65-7.02,25.74-23.4,31.89-24.42,8.06-1.33,18.57,6.89,28.98,7.29,18.79.73,34.65-6.15,52.23-9.27.83-3.88-.54-2.65-2.13-3.69-3.35-2.19-12.71-6.34-16.42-5.8-12.21,1.77-15.11,3-28.79-1.71-3.42-1.18-6.43-4.83-9.69-5.29-8.97-1.28-13.43,10.44-21.11,8.14-8.31-2.49,3.83-8.43,4-9.19l-2.67-7.09c-10.88,2.6-20.51,10.39-32.04,9.8-2.08-12.08,30.02-18.94,30.97-24.09-1.17-4.89-1.61-9.69-1.37-14.74.62-12.76,5.49-28.03,6.14-38.07.32-4.92-2.81-11.81-2.88-17.9-.13-10.19,1.95-28.64,4.61-38.42,1.93-7.11,8.9-18.21,8.82-24.35-.06-4.54-14.48-19.55-18.05-26.52-19.97-39,6.83-66.62-.91-99.7-2.98-12.72-16.21-17.8-8.37-34.53,4.43-9.45,16.29-10.47,24.46-15.12,10.53-5.99,19.62-14.75,32.37-17.11,6.21-1.15,20.45-2.45,22.84,5.34,4.13,13.42-8.9,16.03-16.19,22.75-8.25,7.6-24.72,24.88-24.86,36.28-.28,23.43,17.57,56.38,17.76,81.36,12.25,22.82,27.43,53.81,33.02,79.13,1.64,7.43,3.82,32.64,3.92,40.75.09,7.5-4.39,12.36-2.65,18.94,1.15,2.4,18.61,9.68,21.64,9.82,6.62.3,12.21-5.38,18.09-6.42,12.44-2.2,21.01,2.09,29.59,1.68,6.21-.3,8.84-4.41,18-3.28,5.16.64,21.3,8.54,25.21,11.92Z"/>
</svg>