<?xml version="1.0" encoding="UTF-8"?>
<svg id="Layer_1" data-name="Layer 1" xmlns="http://www.w3.org/2000/svg" viewBox="0 0 512 512">
  <path d="M196.39,375.21c1.25,9.29,13.06,27.51,11.83,34.13-2.47,13.29-21.38,8.62-29.17,10.73-5.93,1.61-37.67,24.94-34.55,3.61,1.45-9.94,33.61-18.63,32.91-31.04-.12-2.11-5.79-14.14-7.25-17.13-7.28-14.97-39.78-56.55-37.41-70.71,3.05-18.25,34.54-27.97,49.75-32.47,2.01-6.23-3.76-8.42-5.49-12.53-6.93-16.41-4.26-30.63-14.44-46.03-8.14-12.31-22.14-22.66-28.42-36.39-3.89-2.69-6.75,8.99-8.28,11.54-31.58,52.32-87.92,24.93-83.04-29.49,6.32-70.5,89.96-74.63,91.5-1.21l16.34,1.4,2.28-2.35c-6.12-42.91,62.25-50.21,62.42-6.68.02,6.05-7.82,23.18-3.52,26.01l90.83,14.59c9.95,1.54,17.42-4.93,27.5-3.36,8.84,1.38,13.42,13.76,23.38,11.96,15.49-81.34,94.87-73.56,88.36,11.95,9.19,3.74,30.43-.95,29.17,12.96-1.58,17.42-26.43.58-32.92,5.24-7.79,28.23-29.73,65.31-64.21,48.9-14.31-6.81-22.61-30.34-23.76-45.34-.4-5.21,1.8-19.22,1.49-20.57-.89-3.88-6.56-3.29-9.46-1.12-4.05,3.03.75,19.49,1.01,25.18.34,7.53.6,27.43-5.9,32.08-9.49,6.78-37.74-4.82-48.08-7.52-2.61-.68-2.35-1.86-4.75,1.37-1.86,8.45,16.38,11.01,21.95,14.3,25.41,15,20.07,78.05-16.77,72.93,5.94,17.44,3.48,36.22,5.4,54.19,2.61,24.42,17.3,40.39-8.97,58.86-1.43,1-10.49,6.15-11.12,6.15h-27.64l-2.63-4.28c8.74-20.09,43.78-24.1,29.03-51.49l-41.29-77.07c-12.72,1.79-23.01,5.11-36.07,1.53,1.12,11.66-1.52,25.83,0,37.15ZM319.05,230.94c.31-3.52.07-6.6-1.3-9.92-.4-.97-11.75-16.14-12.55-16.82-4.65-3.95-16.43-4.55-22.41-4.35-.78,3,1.24,3.45,2.57,5.19,3.57,4.65,22.3,22.91,26.87,24.96,2.33,1.05,4.34,1.21,6.83.93Z"/>
</svg>