<?xml version="1.0" encoding="UTF-8"?>
<svg id="Layer_1" data-name="Layer 1" xmlns="http://www.w3.org/2000/svg" viewBox="0 0 512 512">
  <path d="M130.89,107.1c1.6-.54,1.38-6.85,10.59-6.14,8.23.64,6.92,5.78,10.92,7.53,5.82,2.54,23.12,2.25,29.18.37,2.21-.69,2.09-4.15,3.75-5.41,3.81-2.88,17.44-1.96,22.62-1.17,7.65,1.16,10.67,5.94,16.22,6.68,13.73,1.84,33.7.49,47.67.25,6.17-.11,12.92,2.92,20.27-.37-7.89-21.56-9.71-58.13,22.02-58.27,26.3-.11,30.28,19.94,29.05,41.51-.34,5.96-5.61,14.36-.76,18.51,6.77,1.73,14.94-14.29,30.34-7.63,3.87,1.68,3.28,6.8,13.89,7.51,11.88.8,13.82-6.45,20.85-7.09,7.83-.71,12.83,5.46,15.89,5.46h51.98l1.52,7.56c-1.06,2.81-3.09,4.17-5.97,4.72-13.86,2.65-34.75-2.2-49.2.14-5.25.85-9,6.09-12.39,6.27-5.6.28-9.43-6.6-14.5-7.76-3.67-.84-18.98-1.13-21.68.5-14.8,21.41-9.02,47.86-21.44,70.19-2.51,4.52-11.03,12.53-11.67,14.76-1.33,4.62-3.97,27.78-4.03,33.13-.08,7.43,3.6,14.64,3.72,21.23.16,8.56-5.24,18.08-3.58,27.24,16.82-1.89,33.5,3.85,46.66,14.13,12.21,9.54,41.58,48.26,42.89,62.96,1.49,16.81-54.47,55.21-62.97,72.05-1.64,9.04,39.11,13.32,34.97,25.97-1.81,5.53-20.38,1.69-24.97.63-3.99-.92-7.03-4.3-11.2-4.81-7.92-.95-15.98,4.97-24.59.07-17.57-10.01-.28-24.95,6.22-36.23-.3-4.46-45.06-9.78-51.81-11.57-5.35,18.73-22.56,31.13-37.71,13.04-5.78-6.9-12.96-24.63-16.61-28.36-1-1.02-2.52-1.29-3.89-1.36l-143.75,26.42-10.4,49.51c-6.23-.66-37.39,10.25-38.85,3.4-1.31-6.13,12.46-3.24,14.08-7.42l18.95-112.46c-14.14-8.46-43.49,1.25-27.01-25.6l120.91-16.53c10.43-3.58,43.06-29.45,52.76-24.8l2.77,2.74c3.91,7.78-12.04,21.4,20.27,13.28,10.8-2.72,6.73-13.35,9.55-22.16,2.39-7.44,9.51-13.3,11.06-22.41,3.35-19.68-8.53-29.89-16.73-45.86-2.18-4.24-1.8-9.77-6.63-12.72-6.55,8.24-18.53,11.82-28.65,13.61-16.65,2.95-23.48,4.52-27.83-13.55-5.79-24.07-.91-52.85-2.55-77.62h-29.07c-1.03,0-2.99,5.28-4.41,6.16-3.45,2.13-11.37.64-15.73.67l-.12-5.07H39.26l-2.21-2.57,1.33-13.29h92.51ZM276.26,119.46c-24.2,3.3-78.54-12.49-75.56,27.07.26,3.39,4.71,23.92,5.98,25.76,3.11,4.5,11.81-5.87,14.1-8.78,10.65-13.52,10.78-28.36,30.79-34.41,8.38-2.53,20.02-.8,24.7-9.65ZM353.64,121.37l-11.22-1.99-16.81,4.44,23.74,11.48c2.44-.58,5.65-11.94,4.28-13.93ZM300.93,340.58v25.55l9.54-1.57c1.4-6.62,4.23-25.63-5.42-26.4l-4.12,2.42ZM217.98,341.58l-116.77,17.34-9.96,42.43,133.49-22.45,3.53-3.03-10.29-34.3ZM330.89,348.51v53.74l17.72,5.44c2.24-1.72,3.9-20.62,6.06-25.71,2.44-5.75,8.67-8.48,9.72-14.95-13.47-2.55-22.7-11.15-33.51-18.53ZM311.34,399.44c.22-7.84,5.2-23.12-7.48-18.95-7.61,2.5-7.85,25.46,7.48,18.95Z"/>
</svg>