<?xml version="1.0" encoding="UTF-8"?>
<svg id="Layer_1" data-name="Layer 1" xmlns="http://www.w3.org/2000/svg" viewBox="0 0 512 512">
  <path d="M177.78,163l-2.32,2.89c-2.72,63.49-67.44,67.58-77.01,4.29l-56.02,1.27c-4.31-1.41-3.77-11.52-1.28-14.7,4.89-6.24,46.86.71,56.52-3.97,5.81-65.02,70.98-64.66,77.57-.28l47.37-2.01c3.05-4.86,24.43-19.17,25.3-21.67,4.25-12.16-16.52-25.26-3.57-47,13-21.83,47.83-17.66,52.09,7.73,1.14,6.76,1.46,29.37.04,35.71-1.86,8.34-10.19,5.62-11.79,13.39,29.19,9.7,58.68,11.18,89.17,7,3.11-6.31,3.66-13.3,6.66-19.8,13.03-28.24,48.41-30.3,63.29-2.88,1.95,3.6,6.62,17.67,7.68,18.38,5.12,3.45,27.13-7.52,19.3,12.2l-19.05.94c-3.33,38.1-46.72,60.02-69.39,21.24-4.27-7.31-5.01-14.89-9.9-21.4-3.48-.72-3.11,1.49-2.21,3.96,3.6,9.91,19.24,26.07,3.74,35.77-10.33,6.46-40.67,11.53-51.68,5.22-4.48-2.57-6.02-8.06-8.01-9.38-6.29-4.16-5.09,9.75-6.02,13.19-2.24,8.26-10.02,28.55-13.51,36.9-3.35,8.02-10.66,14.69-13.89,22.61-2.92,7.18-3.82,16.32-6.59,23.82,9.35-4.94,18.04-6.23,28.65-5.19,19.36,1.89,71.53,32.01,68.64,54.57-2.93,22.91-53.38,61.54-62.37,85.63-.77,8.64,37.47,13.27,36.15,25.44-2.87,11.48-31.01-2.67-37.81-3.06-10.48-.61-19.22,7.06-29.93-5.69-3.54-5.6,14.18-33.54,17.01-41.83,4.78-14.02,5.03-29.25,10.92-43,.46-3.64-.21-2.17-2.57-2.52-5.25-.79-10.45.13-15.69-2.99l-1.78,1.01c-12.31,21.67-27.94,42.99-39.33,65.1-2.96,5.74-9.22,17.44-9.86,23.36-.97,8.93,25.86,21.04,29.21,32.66.94,3.27-.46,2.26-2.51,2.52-11.19,1.44-45.4-2.29-49.21-15.13-3.18-10.73,4.98-32.63,6.57-44.86,1.31-10.06.44-23.06,1.95-32.82.92-5.94,6.81-18.07,5.88-22.14-1.87-8.16-18.78-5.97-26.41-9.87-20.37-10.41-20.4-48.57-11.85-66.43,6.54-13.66,20.11-14.44,21.37-36.06.44-7.62-6.59-17.41-7.9-24.28-1.11-5.83.91-10.25.41-14.65s-4.38-7.97-4.39-12.76c-.02-6.37,10.64-22.88,12.27-30.43h-33.9Z"/>
</svg>