<?xml version="1.0" encoding="UTF-8"?>
<svg id="Layer_1" data-name="Layer 1" xmlns="http://www.w3.org/2000/svg" viewBox="0 0 512 512">
  <path d="M273.15,93.71l31.73,28.59c4.23,6.33,10.5,36.64,9.55,44.37-.83,6.8-5.77,15.04-6.74,21.23-1.43,9.11-.59,18.61-2.66,28.82-3.83,18.86-25.79,53.58,11.38,48.1,8.51-26.38,19.55-47.73,51.4-42.8,20.14,3.11,29.85,34.84,28.96,52.37,6.61.33,33.05.44,35.88,5.21l.09,8.9c-2.79,3.97-31.56-1.13-37.7-1.88-5.05,27.65-28.68,56.61-58.97,38.85-17.54-10.28-18.97-33-21.75-50.84-6.21-.68-19.31-1.05-23.78,3.7-5.59,5.95-.31,22.88-.4,30.07-.13,10.52-7.73,26.14-7.19,35.08.49,8.28,19.34,23.91,21.07,36.86s-6.36,34.64-7,48.75c-.68,15.07,9.74,25.11-2.61,35.87-12.1,10.54-24.18,9.14-39.3,8.79-1.18-11.38,15.64-14.03,21.8-22.79,2.26-3.21,4.28-8.87,4.27-12.83-5.62-42.76-19.83-81.1-37.44-120.01-2.12,6.31-9.7,15.4-9.71,21.85-.01,7.51,12,21.36,12.02,33.23.03,11.17-12.8,27.86-13.53,42.25-.49,9.59,5.39,18.55,3.26,28.49-7.38,2.19-16.05.88-23.1,2.25-4.94.97-25.41,10.81-27.51,3.94-.64-3.42.5-4.06,2.85-5.86,6.2-4.74,20.53-9.57,25.09-15.13,6.19-7.55-4.52-45.79-5.19-57.7-.38-6.72,1.94-16.18,1.36-20.58-2.8-21.17-12.34-42.85-9.92-64.88.92-8.41,5.41-15.41,5.04-23.83-14.63-2.62-29.2,12.9-39.35-3.49-4.37,4.58-4.92,10.9-8.18,16.3-16.32,27.02-53.18,25.3-65.26-4.09-2.32-5.64-3.01-15.2-5.32-19.18-2.03-3.49-6.79-2.36-6.14-6.17.45-4.22,5.32-4.55,7.88-7.92,8.59-11.32,10.16-24.07,25.9-30.06,28.19-10.72,51.54,12.78,50.25,40.61l2.63-1.72c4.16-15.83,7.59-32.78,13.06-48.15,7.07-19.84,19.84-47.8,29.45-66.74,8.31-16.38,29.36-19.35,31.42-26.28,4.19-14.07-6.16-14.57-8-22.75-3.05-13.52,1.32-41.75,18.13-44.16,14.03-2.02,31.03,10.19,30.37,25.15-.37,8.39-13.47,23.92-8.11,30.24ZM216.64,186.93c-4.51-.89-3.06.96-4.38,3.4-2.52,4.67-3.63,9.8-6.44,14.61-6.55,11.23-18.21,20.05-23.37,32.6,4.7,13.94,24.74,26.57,31.56,7.07,4.77-13.65.8-21.45.79-34.08,0-7.96,2.89-15.57,1.85-23.6Z"/>
</svg>