<?xml version="1.0" encoding="UTF-8"?>
<svg id="Layer_1" data-name="Layer 1" xmlns="http://www.w3.org/2000/svg" viewBox="0 0 512 512">
  <path d="M359.91,304.94c.88,5.93,5.4,10.63,6.44,16.72,4.59,26.9-21.81,56.32-22.98,84.02-.51,12.04,8.27,32.49-11.68,29.67-9.17-1.3-13.35-10.37-17.65-11.59-2.6-.74-19.8-1.91-20.91-.11-.1,5.8-.79,11.99-.2,17.78.81,7.93,8.7,22.45-1.64,25.86-23.72-.25-48.67,5.03-71.39-2.62-23.58-20.09,7.45-17.58,21.85-21.16,6.14-1.53,21.45-6.27,23.34-12.72l1.19-108.68c-4.57-.74-5.55,10.22-8.23,13.21-.76.85-11.97,7.98-13.16,8.35-8.04,2.51-12.03-3.16-17.7-2.38-.98.14-13.83,5.86-14.28,6.49,8.41,26.57,10.95,57.59-10.08,79.12-29.77,30.48-65.4,15.7-90.18-11.26-3.08-3.35-4.72-10.58-9.71-10.7-7.13-.17-26.81,18.23-34.13,11.6-1.16-1.06-4.19-7.87-4.3-9.61-.66-10.69,29.27-15.45,30.74-20.71-24.55-63.02,38.76-122.76,93.72-72.67,4.27,3.89,16.17,21.67,17.51,22.11,3.28,1.06,12.97-2.88,14.07-6.13.62-9.41-2.75-18.61-3.94-27.78-.42-3.19,1.07-6.65.37-10.94-2.84-17.44-16.87-46.9-14.93-62.16,2.46-19.34,4.13-38.46,1.43-58.37-1.78-13.13-16.12-25.35-11.8-41.08-.57-2.43-19.1-8.06-22.31-10.67-2.82-2.29-4.24-7.52-6.96-10.21-3.41-3.35-9.18-5.72-12.03-9.06-21.46-25.15,9.57-73.18,42.84-49.23,16.07,11.57,10.5,30.37,36.83,28.01,22.17-1.99,30.1-5.99,54.71-1.06,29.59,5.93,42.55,37.47,66,52.49,15.38,9.85,18.13,6.57,33.79,9.14,29.64,4.86,50.61,29.61,45.34,60.3-1.12,6.53-7.31,11.95-6.53,17.48.4,2.83,7.74,10.22,10.03,14.18,30.57,52.92-21.11,109.13-73.48,74.35ZM254.55,176.32c-2.51.72-3.25,4.09-4.18,6.22-1.42,3.21-8.38,27.97-8.64,30.97-.47,5.36,7.31,18.01,6.52,32.17-.93,16.78-12.86,36.65-12.14,49.84.33,6.02,18.51,18.11,23.41,18.01,6.86-.15,6.63-18.56,8.15-24.39,3.63-13.88,7.03-30.39,11.44-43.51,2.46-7.33,12.84-23.39,13.53-27.84.62-4.01-1.5-6.68-1.52-9.94s1.64-6.15,1.59-8.6c-.28-12.54-28.03-19.91-38.15-22.92ZM318.21,400.63c1.56-2.38,3.72-26.26,3.98-31.23.77-15.17,1.78-51.33-2.59-64.52-4.21-12.72-15.01,5.51-14.64,11.09.32,4.79,9.54,20.42,11.24,28.37,2.27,10.6,2.35,23.26-.86,33.67-3.11,10.1-12.76,17.82-13.82,28.23,2.2,2.1,15.05-3.11,16.69-5.61Z"/>
</svg>