<?xml version="1.0" encoding="UTF-8"?>
<svg id="Layer_1" data-name="Layer 1" xmlns="http://www.w3.org/2000/svg" viewBox="0 0 512 512">
  <path d="M207.91,77.76c14.37,14.39,7.82,32.9,3.01,49.59,11.85,6.56,24.64,3.76,37.22,7.8,8.16,2.62,36.96,20.5,42.27,26.84,13.87,16.56,9.64,28.75,17.49,42.97,7,12.68,17.51,9.86,27.56,17.37,14.68,10.96,23.81,43.79,21.65,61.36-1.4,11.38-17.63,23.83-16.95,30.8.13,1.32,12.28,22.05,13.37,22.8,5.73,3.95,8.5-4.21,14.36-6.46,44.74-17.2,63.45,32.04,62.49,67.83l39.06,7.59c11.44,30.3-28.4,8.88-43.38,12.02-11.06,36.38-39.08,67.83-78.52,44.02l-7.21,6.78-38.55.3c-3.61-5.06,25.49-26.11,27.28-34.03,1.84-8.13,2.29-38.08-6.47-41.18-4.39-1.55-32.65-6.25-37.27-6.15-7.93.16-12.15,6.02-23.78,3.27-6.71-1.59-6.26-8.18-13.61-10.58-12.89-4.2-31.05-4.42-44.63-8.05-2.33,12.57,17.08,40.28,10.48,49.37-7.16,9.87-21.43,3.52-30.32,4.13-5.9.41-9.62,3.82-14.33,4.77-5.17,1.04-30.03,6.42-27.34-3.11,2.43-8.57,39.69-17.22,40.79-28.44.78-8.01-10.3-30-17.75-34.05-16.95-9.19-15.4,4.51-21.72,15.38-26.94,46.32-79.79,35.74-88.22-17.75-.73-4.66.87-11.52-.4-15.15s-7.75-2.07-10.33-5.21c-8.91-10.85,7.6-12.7,15.55-11.61,8.35-35.29,49.16-59.49,78.85-30.96l7.7,12.14c-5.09-17.06-13.03-28.68,1.67-44.12,6.74-7.08,21.89-8.68,22.7-18.92-3.23-11.02-.37-23.64-2.29-34.17-1.09-6-6.19-11.4-8.32-17.59-3.52-10.24-3.43-20.52.6-30.67,2.74-6.9,10.08-9.83,9.85-16.91-4.94-1-8.27-1.05-10.54-5.89-5.11-10.91-9.74-40.23-6.23-51.52,7.06-22.71,37.68-31.14,54.21-14.59ZM319.05,381.25c-6.79-13.89-10.27-25.13-12.21-40.58-.53-4.25,1.42-8.38.67-12.63-.67-3.83-12.87-31.41-15.23-31.41-1.7,1.36-2.98,2.69-3.87,4.74-3.34,7.75-13.76,39.11-15.21,46.97-5.37,29.12,24.83,30.03,45.85,32.91ZM228.36,306.97c-6.92,1.08-18.31,0-25.92,0-6.01,0,2.25,22.52,2.58,26.79.72,9.35-2.81,17.35-1.48,26.53,1.3,2.02,42.71,8.9,47.27,8.93,3.66.03,2.21.1,2.61-2.6,1.17-7.83-.99-63.58-5.24-66.54-6.43-.44-14.31,6.02-19.82,6.88ZM165.29,353.61l-13.8-29.35,1.9,27.45,11.89,1.9Z"/>
</svg>