<?xml version="1.0" encoding="UTF-8"?>
<svg id="Layer_1" data-name="Layer 1" xmlns="http://www.w3.org/2000/svg" viewBox="0 0 512 512">
  <path d="M302.36,389.18c1.87,18.59,9.29,26.51,23.75,36.94,5.51,3.98,24.35,9.66,16.87,18.85-3.75,4.61-19.74,1.23-24.73-.87-3.93-1.66-5.93-5.7-8.63-6.53-8.47-2.61-18.04,5.21-25.87-2.8-7.28-7.44-.88-12.47.02-18.75,1.05-7.33-4.48-23.83-7.56-31.03-2.56-5.98-5.89-16.83-13.38-15.29l-32.21,15.28c.59,20.73,1.18,38.56,17.79,53.1,3.52,3.08,41.79,25.02,19.42,26.26-4.82.27-27.66-1.94-32.32-3.24-2.53-.71-23.49-10.03-24.32-11.08-3.76-4.81,2.07-17.21,1.67-25.19-.26-5.23-10.25-42.81-12.73-43.37l-23.45,3.39c.73,24.6-5.36,58.52-35.53,60.69-22.33,1.61-36.89-24.89-41.21-43.56l-52.84,6.66c-10.9-24.73,35.18-17.63,49.43-23.85-3.32-69.13,64.17-77.31,77.74-9.93l20.23-3.37c-.91-12.89-6.25-22.65-4.88-36.07,1.29-12.66,14.92-31.9,14.5-40.37-.36-7.26-16.27-33.38-19.77-44.07s-3.42-18.54-5.8-27.92c-7.2-28.44-28.11-40.28-9.02-74.61,13.02-23.41,26.96-18.67,49.47-19.65,39.28-1.7,85.29-4.17,123.89,5.78,5.4,1.39,9.18,6.99,14.3,8.93,26.75-30.25,70,13.53,51.12,43.11-3,4.69-8.3,7.83-11.55,12.05-2.46,3.2-2.41,7.63-5.77,11.09-4.41,4.55-11.91,3.97-14.98,8.76-2.23,3.48-8.5,24.78-9.13,29.49-1.16,8.6.38,17.17-1.2,25.77-2.58,14.07-14.54,33.38-19.55,47.89-2.54,7.36-3.11,15.61-6.65,22.83l25.07-3.58c-2.44-57.19,58.38-69.57,76.33-15.23l21.76-.67c7.05,14.06-9.16,12.23-18.47,14.59,2.51,27.68-18.7,58.64-49.05,47.86-15.79-5.61-21.64-23.17-29.77-36.04-6.73,2.49-16.51,1.98-22.6,3.94-5.03,1.61-9.58,9.92-16.13,10.55l-24.23-2.87c.61,8.44-.84,17.83,0,26.13ZM332.46,216.63l-40.23,3.14c2,10.65,4.32,19.97,3.24,31.04s-2.13,5.66-.26,17.4c2.07,12.91-.24,20.58.36,31.56.8,14.64,9.79,32.15,6.79,48.11,9.97-9.05,22.48-12.06,24.87-26.53,2.54-15.37-3.11-32.49-1.29-48.49.84-7.39,4.77-11.38,6.28-17.33,3.22-12.75,4.55-26.27.23-38.9ZM255.18,310.8c-1.34,8.29-13.7,43.08-6.8,48.06.53.38,7.3,2.21,7.69,2.14,5.98-.99-2.47-19.21-2.66-24.18-.24-6.32,2.32-14.15,2.95-20.64.18-1.86,2-5.73-1.18-5.39Z"/>
</svg>