<?xml version="1.0" encoding="UTF-8"?>
<svg id="Layer_1" data-name="Layer 1" xmlns="http://www.w3.org/2000/svg" viewBox="0 0 512 512">
  <path d="M240.31,401.59c-19.97,20.86,3.57,32.77,4.21,53.91-34.1,2.86-41.77-.2-38.19-35.58.82-8.11,3.85-12.96,6.95-20.06-3.58.36-14.49-1.71-15.47,2.74,2.8,30.08-12.66,68.94-48.16,68.86-26.96-.06-45.33-34.34-51.36-56.96-3.4-2.68-27.68,11.15-31.1-.18-5.25-17.4,15.67-16.24,27.55-16.21-2.02-34.43,11.88-80.76,54.77-74.83,11.59,1.6,15.79,9.85,25.43,12.04-6.52-14.04,3.44-25.37,5.09-37.62,2.5-18.69-5.05-30.13,5.07-50.73,3.52-7.15,11.09-12.36,13.42-19.71,5.91-18.71,6.15-41.92,18.28-58.44,2.53-3.45,6.91-6.05,9.48-9.7,4.16-5.9,5.53-13.66,10.57-19.07,5.71-6.12,27.42-17.95,35.71-21.83,6.02-2.82,27.44-8.91,29.83-12.01,7.96-10.28-13.82-38.39,8.52-59.48,19.51-18.41,56.11-4.86,57.47,22.95.41,8.28-7.07,46.24-13.94,50.23-3.06,1.78-8.52,2.12-12.11,2.72,10.65,10.11,19.68,10.23,25.25,26.17,8.85,25.34-7.43,27.05-9.6,44.38-.54,4.31-1.88,18.83-1.64,22.5.45,6.82,6.29,13.73,6.98,22.8.96,12.63-6.86,31.14-4.58,39.45.35,1.27,12.28,12.45,13.27,12.91,5.88,2.72,10.7-1,16.45-.91,12.91.22,26.98,9.58,34.97,19.22,3.09,3.73,19.21,31.26,19.77,34.43,1.28,7.18-2.91,32.88-5.87,40.54-12.19,31.62-48.92,43.01-74.14,18.39-8.71-8.5-2.2-12.7-18.04-11.17-14.37,1.39-30.12,6.87-44.66,8.5-.76,3.6,1.79,4.03,4.02,5.55,9.18,6.25,41.84,13.02,44.04,22.27-1.66,5.6-20.35,4.17-26.12,3.4-5.89-.79-11.22-4.45-17.57-5.08-13.76-1.38-26.8,6.59-39.16-4.44-7.22-6.45.68-12.8,1.65-19.97h-27.03ZM323.13,251.62c-4.75-9.6.67-19.93.98-29.65.08-2.46,1.27-3.18-1.9-5.22l-37.44,28.79c6.16,1.96,11.68-1.44,18.1-.78,7.28.75,12.9,6.79,20.25,6.85ZM213.69,345.4c5.61,6.16,16.5-8.24,15.05-14.06-.88-3.5-22.59-21.02-27.7-19.71-13.57,3.48,3.49,14.53,6.73,19.62,2.52,3.96,4.11,12.16,5.92,14.15ZM303.94,324.88c-5.86-5.65-24.02,23.15-22.65,24.39,15.22,4.39,18.98-13.05,22.65-24.39ZM248.15,391.13h27.03c8.24-9.04,15.22-20.24,18.33-32.24-.09-1.23-20.27-2.37-24.27.08-3.51,2.15-22.8,30.6-21.08,32.16ZM347.5,380.6c-.41-4.15-2.83-17.53-7.79-17.46-4.46.06-21.94,18.06-25.29,22.75l33.09-5.28ZM218.5,364.98l-24.43,4.32c-5.34,12.94,12.58,17.8,22.69,16.59l1.74-20.91Z"/>
</svg>