<?xml version="1.0" encoding="UTF-8"?>
<svg id="Layer_1" data-name="Layer 1" xmlns="http://www.w3.org/2000/svg" viewBox="0 0 512 512">
  <path d="M460.59,105.67h-.06l-24.3.28c-1.72-25.23-15.39-44.88-32.01-44.88s-30.56,20.04-32.06,45.62l-3.61.04c-.68-1.88-1.87-3.81-4.01-4.45-3.58-1.06-13.81-3.9-15.05,1.13-.27,1.07-.58,2.33-.89,3.55l-145.59,1.69c-.62-2.76-1.65-5.26-4.19-6.2-4.58-1.7-18.84-1.36-20.2.51-.94,1.3-2.62,3.81-3.67,6.02l-8.99.1c-1.53-30.31-15.3-54.04-32.06-54.04s-30.74,24.11-32.09,54.78l-51.51.6c-3.13.04-5.64,2.61-5.61,5.74.04,3.11,2.57,5.6,5.67,5.6h.07l51.46-.6c1.72,29.94,15.4,53.27,32.01,53.27s30.52-23.71,32.06-54.01l8.07-.09c.15,2.11.43,4.39.85,6.63,1.1,5.85,5.44,13.58,6.79,21.28,1.36,7.7,3.63,21.28,5.89,27.62s9.96,14.94,10.41,21.73c.46,6.8,4.98,22.64,9.97,29.44,4.98,6.79,19.64,18.33,19.58,23.34-.05,4.55-2.83,17.86-3.28,27.82-.46,9.96,1.35,24.9,3.17,28.98,1.81,4.07,8.15,16.75-1.36,16.75s-19.93.91-23.55,7.25-5.88,12.22-4.07,20.83c1.81,8.6,5.88,12.67,4.98,17.2-.91,4.53-2.27,9.96-2.27,18.57s4.08,17.66,7.7,23.99c3.62,6.34,6.34,15.85,5.89,24.46-.46,8.6,0,15.84,5.43,21.28,5.43,5.43,14.49,7.24,25.36,7.24s12.68-.45,11.77-8.6c-.91-8.15-7.25-9.51-12.68-14.49-5.43-4.98-10.87-14.49-11.77-19.92-.91-5.44,2.72-14.95,4.98-20.83,2.26-5.89,2.26-14.49,3.17-18.57.9-4.07,2.72-5.88,6.34-3.62,3.62,2.26,14.94,5.89,22.64,1.81,7.7-4.07,12.68-8.15,19.92-7.24,7.25.9,24-3.62,17.66,9.51-6.34,13.13-5.89,17.65-7.7,22.64-1.81,4.98-6.34,13.58-9.51,16.3-3.17,2.71-4.98,10.86.46,14.03,5.43,3.17,16.75,4.53,22.18,6.34,5.44,1.81,14.49,6.34,19.93,6.34s13.58-.9,12.67-5.43c-.9-4.53-14.03-12.23-19.92-14.94-5.89-2.72-13.58-7.25-5.89-14.49,7.7-7.25,44.38-49.36,48.45-58.87,4.08-9.51,4.53-26.26-4.98-32.6s-45.28-7.7-53.43-6.79c-8.15.91-6.34-.91.91-9.51,7.24-8.6,14.94-28.52,13.58-39.39s1.81-7.7,3.17-15.85c1.36-8.15-.11-15.34.57-18.56.68-3.23,6.96-7.3,12.9-15.96,5.95-8.66,9.51-16.14,10.02-22.08.51-5.94,8.83-8.15,10.19-15.96,1.36-7.81,6.11-25.13,6.62-31.75s1.7-19.02,2.04-25.13c.06-1.16.11-2.17.13-3.07l2.37-.03c2.09,24.6,15.57,43.58,31.91,43.58s30.09-19.36,31.97-44.32l24.47-.28c3.13-.04,5.64-2.61,5.6-5.74-.03-3.11-2.57-5.6-5.67-5.6ZM347.73,121.47c1.7,3.9,5.27,2.38,3.23,8.49-2.04,6.11-10.7,14.94-14.6,20.37-3.91,5.44-12.06,15.46-12.91,23.44-.85,7.98,1.7,11.2-1.86,14.77-3.57,3.56-9,1.53-11.72-.85-2.72-2.38-7.98-9.68-16.98-9.51s-17.49,4.76-21.39,10.02c-3.91,5.26-5.78,18-4.08,23.09,1.7,5.1,7.47,10.87,7.13,14.43-.34,3.57,1.53,9.51-5.26,5.1-6.79-4.42-7.81-12.57-16.13-17.66-8.32-5.09-14.43-12.23-20.55-20.04-6.11-7.81-6.96-6.45-10.02-11.88-3.05-5.44-1.52-11.89-5.26-17.66-3.73-5.77-9-14.26-13.75-19.53-4.76-5.26-7.64-8.66-5.27-12.05,1.67-2.39,4.53-7.64,5.65-12.02l142.96-1.66c.13,1.06.38,2.14.81,3.15Z"/>
</svg>