<?xml version="1.0" encoding="UTF-8"?>
<svg id="Layer_1" data-name="Layer 1" xmlns="http://www.w3.org/2000/svg" viewBox="0 0 512 512">
  <path d="M392.58,301.53c2.52,15.51-14.51,23.79-20.36,33.75-1.38,2.35-6.31,14.87-6.79,17.37-1.35,6.97,3.63,10.81,3.18,18.4-.42,7.2-6,13.93-5.22,21.52,15.11-.47,26.94-11.42,39.48-18.06,7.93-4.2,22-8.31,28.13-13.1,4.94-3.85,7.23-11.93,11.41-16.08,5.32-5.3,17.62-5.46,24.79-9.35,1.75.98,2.67,2.14,2.83,4.22.82,10.66-25.79,25.44-33.6,31.79-11.1,9.04-49.18,46.02-60.13,46.08-4.41.02-8.3-3.38-12.96-2.39-11.13,2.37-29.88,21.14-43.22,25.55-17.83,5.89-36.83,9.91-55.03,15.41-14.8,4.47-36.22,15.58-51.92,14.85-13.96-.66-44.87-18.02-59.71-22.76-34.83-11.12-65.19-12.27-99.75-18.8-13.12-2.48-22.76-9.44-6.56-17.7,9.66-4.92,23.75-4.93,33.77-11.09,5.44-1.02,7.53,6.1,11.03,7.72,7.28,3.37,29.53-7.08,39.89-5.65,11.48,1.59,23.61,16.42,29.59,16.63,6.35.23,19.62-6.48,29.25-6.76,8.27-.24,14.35,4.54,20.53,3.53,4.7-.77,9.23-6.03,17.29-6.86,10.26-1.05,21.78,4.8,28.43,2.7,9.15-2.89,21.38-27.06,36.02-32.75,5.31-2.06,11.86-1.77,16.7-3.92,5.39-2.39,6.38-7.92,10.12-10.5,4.07-2.8,10.46-3.01,15.28-7.06,4.32-3.63,5.06-8.35,8.53-12.09,6.19-6.67,16.64-12.51,21.55-18.45,7.75-9.38,8.86-28.65,27.46-26.17Z"/>
</svg>