<?xml version="1.0" encoding="UTF-8"?>
<svg id="Layer_1" data-name="Layer 1" xmlns="http://www.w3.org/2000/svg" viewBox="0 0 512 512">
  <path d="M471.1,178.1c-.29-4.69-4.31-8.25-9.02-7.95l-16.78,1.07c-3.96-22.84-19.84-39.91-38.83-39.91s-35.96,18.27-39.2,42.3c-5.65-3.08-14.49-6.29-17.51-5.05-3.85,1.59-11.55,4.08-11.55,7.92,0,.42-.02.94-.07,1.54l-38,2.41c-5.97-3.99-11.51-8.52-11.51-11.64,0-6.12,9.51-8.61,10.87-13.81,1.36-5.21.56-16.98-.4-21.79-.91-4.57-3.85-10.98-3.62-15.74.23-4.75-2.77-15-5.49-18.39-2.72-3.4-14.04-9.51-21.96-9.06-7.92.45-18.56,3.62-22.64,7.25-4.07,3.62-9.96,11.32-10.41,15.62-.46,4.3-.16,10.13,0,12,.43,5.19,2.49,13.81,5.66,18.33,3.17,4.53,4.52,7.7,3.84,12-.67,4.31-3.84,9.29-9.5,14.27-5.66,4.98-7.7,11.77-13.81,11.54-6.12-.22-18.12-4.53-22.87-.9-2.75,2.1-5.97,4.27-8.35,7.32l-15.99,1.01c-3.32-29-19.59-51.01-39.16-51.01-20.69,0-37.69,24.58-39.59,56.01l-45.06,2.86c-4.69.29-8.24,4.34-7.95,9.02.29,4.51,4.03,7.97,8.48,7.97.18,0,.37-.01.55-.02l44.43-2.82c3.36,28.91,19.6,50.83,39.14,50.83,20.64,0,37.61-24.49,39.57-55.83l12.99-.82c1.31,4.9,3.7,9.18,5.28,11.47,2.49,3.63,1.58,11.32.68,15.4-.91,4.07-5.43,21.96-5.89,31.24-.45,9.28,2.72,29.89,4.98,33.06,2.27,3.16,1.59,11.99-1.81,14.71-3.39,2.72-9.51,24.34-9.51,38.26s-5.43,40.07-6.11,52.64c-.68,12.56-7.13,28.19-7.13,38.37s3.06,14.04,8.49,19.47c5.43,5.44,9.28,9.06,30.34,8.83,21.05-.22,22.41-2.04,21.96-9.73-.46-7.7-11.1-12.23-16.3-15.85-5.21-3.62-12.68-7.02-12.23-14.49.45-7.47,7.7-19.92,14.72-26.26,7.02-6.34,15.62-17.21,21.73-17.21s34.87.46,40.3-3.85c5.43-4.3,12.9-11.32,17.21-11.54,4.3-.23,12.22-1.81,11.09,3.39-1.13,5.21-8.83,18.57-13.58,23.55-4.76,4.98-14.72,16.75-14.95,22.86-.22,6.12,5.66,13.59,12.45,14.72,6.8,1.13,18.57-.45,23.32.45,4.76.91,12.68,7.93,22.42,7.93s19.92-1.13,18.79-5.66c-1.13-4.53-9.96-12-17.21-15.85-7.24-3.85-18.56-4.75-18.79-9.74-.23-4.98,26.49-31.24,37.58-39.61,11.1-8.38,42.56-31.93,43.47-36.91.91-4.98-1.36-21.05-10.19-25.13-8.83-4.07-30.11-12.22-42.56-12.45-12.45-.23-45.96-.68-51.17,2.94-5.2,3.63-17.88,10.19-14.26,2.95,3.62-7.25,13.59-14.94,14.49-19.7.91-4.75,2.94-14.49,6.57-14.94,3.62-.45,12.22,7.7,16.07,10.87,3.85,3.17,15.85,10.18,24.9,9.96,9.06-.23,20.15-3.17,25.13-14.49,4.98-11.32,6.57-28.53,6.34-35.09-.22-6.57-3.39-21.51-3.39-25.36,0-1,.69-2.98,1.71-5.37,6.93,14.92,19.64,24.91,34.17,24.91,20.43,0,37.25-19.75,39.51-45.17l17.18-1.09c4.68-.3,8.24-4.34,7.94-9.02ZM344.1,229.91c-.91,3.63-3.17,10.42-6.57,7.25-3.39-3.17-6.34-10.19-4.3-14.94,2.04-4.76-1.13-16.3-2.26-18.34-.59-1.06-4.04-4.49-7.8-7.87l14.88-.95c.21.86.48,1.62.84,2.25,2.72,4.76,10.87,7.93,10.87,12s-4.76,16.98-5.66,20.6Z"/>
</svg>