<?xml version="1.0" encoding="UTF-8"?>
<svg id="Layer_1" data-name="Layer 1" xmlns="http://www.w3.org/2000/svg" viewBox="0 0 512 512">
  <path d="M443.84,84.47l-29.6,10.25c2.32,13.59-1.89,25.7-10.89,28.93-9.11,3.28-20.23-3.57-27.08-15.79l-6.87,2.38c.84,5.2,2.12,11.53,3.55,17.26,2.49,9.96-.23,23.09-.91,31.47-.68,8.37-4.75,14.94-14.26,26.71-9.51,11.77-9.96,17.21-10.19,22.64-.22,5.43,4.3,11.09,7.25,14.72,2.94,3.62,7.02,11.54,10.19,18.79,3.17,7.24,2.03,19.01,0,23.99-2.04,4.98-3.85,13.59-3.4,21.51.45,7.93-1.59,22.42-4.3,28.3-2.72,5.89-3.85,15.85-1.13,18.34,2.71,2.49,10.24,12.68,12.28,24.22,1.03,5.84,1.13,23.21-1.36,30.91-2.49,7.69-5.72,20.94-5.72,25.92s4.76,9.73,7.02,14.71c2.27,4.99-2.04,9.51-6.56,14.04-4.53,4.53-13.36,2.27-16.98-1.36-3.63-3.62-6.12-7.24-12.91-12-6.79-4.75-13.13-9.96-12.22-16.75.9-6.79,7.01-3.85,14.71-3.4,7.7.46,6.57-3.33,6.34-10.81-.23-7.47-5.15-16.35-6.96-22.92-1.81-6.56-.96-22.41-1.87-27.39-.9-4.98-6.34-18.11-7.02-23.09-.68-4.99-5.43-2.95-6.56,2.94-1.13,5.88-9.96,16.75-14.49,22.64-4.53,5.88-.91,14.49,2.04,19.47,2.94,4.98,8.15,14.03,8.6,22.19.45,8.15-1.81,17.2-6.34,27.16-4.53,9.96-10.19,21.96-11.09,27.85-.91,5.89,5.88,10.19,5.88,15.39s-2.03,10.87-10.18,13.14c-8.15,2.26-12.23-3.85-22.42-4.08-10.19-.23-14.71-1.13-26.49-10.64-11.77-9.51-2.26-16.07,1.82-15.4,4.07.68,18.56,1.14,24.22,1.14s4.75-13.36,4.98-18.79c.23-5.44-4.3-23.32-4.53-36.45-.22-13.14,1.36-20.38,1.81-26.72.46-6.34-2.03-10.87-3.62-19.47-1.58-8.6-4.98-22.64-5.43-38.03-.46-15.4,5.66-31.25,10.41-40.08,4.76-8.82,11.1-20.6,11.26-24.84.17-4.25-3.05-10.36-3.05-16.47s2.72-12.23,3.22-16.3c.51-4.08-.5-11.55-1.86-15.96-1.36-4.42-.17-25.39-.68-30.82-.51-5.44-2.8-7.64-6.2-10.53-3.4-2.89-9.76-.34-23.86-.68-1.56-.04-3.03-.19-4.43-.44l-82.36,28.52c3.03,15.04-1.68,28.81-11.92,32.5-10.37,3.73-22.95-4.11-30.15-17.94l-56.42,19.53c-.76.26-1.55.39-2.31.39-2.94,0-5.69-1.84-6.7-4.77-1.28-3.7.68-7.74,4.38-9.02l56.34-19.5c-2.97-14.98,1.75-28.66,11.95-32.34,10.32-3.71,22.86,4.05,30.08,17.79l64.99-22.08c-1.32-1.26-2.31-2.34-2.99-2.97-2.72-2.55-8.32-3.17-16.13-4.02-7.81-.85-10.36-12.22-10.36-16.13s.68-11.12,9.68-16.21c9-5.1,17.49-1.28,23.26.08,5.77,1.36,12.89,5.07,16.64,6.2,5.94,1.78,29.38-.76,36.17-.93,6.79-.17,6.79-4.42,13.24-10.02,6.45-5.61.85-6.62-1.7-10.87-2.54-4.24-3.12-19.19-2.88-24.96.17-4.29,1.13-13.87,2.26-17.04,1.13-3.17,8.15-12.67,19.92-13.13,11.78-.45,19.94,3.75,25.36,9.96,4.64,5.33,2.94,16.08,5.21,19.93,2.26,3.85,12.79,11.32,15.73,14.94,2.14,2.63,6.01,10.16,7.96,15.82l4.01-1.39c-3.23-14.49.93-27.8,10.44-31.22,9.62-3.46,21.46,4.36,28.16,17.86l29.38-10.17c3.7-1.28,7.74.68,9.02,4.38,1.28,3.69-.68,7.73-4.38,9.01Z"/>
</svg>