<?xml version="1.0" encoding="UTF-8"?>
<svg id="Layer_1" data-name="Layer 1" xmlns="http://www.w3.org/2000/svg" viewBox="0 0 512 512">
  <path d="M172.73,228.08c13.43,12.4,21.19.3,33.77.5,10.77.17,20.92,4.78,30.61,6.6,9.1,1.71,31.28,7.29,38.51,7.49,5.67.16,8.82-4.48,12.43-4.81,9.33-.85,26.12,30.23,12.09,41.98s-26.82-.89-40.37.1c-3.52.26-23.22,4.44-26.26,5.62-11.17,4.36-.92,32.45.24,41.22.84,6.35-.4,12.86.21,19.2,2.99,30.74,13.57-2.26,19.04-10.9,8.06-12.74,51.51-53.06,64.87-55.13,21.87-3.4,28.67,3.97,37.61,22.16,27.47,55.85,16.2,112.38,88.44,133.92,4.6,1.37,22.9,2.43,22.92,7.05-1.66,1.83-3.46,3.77-5.73,4.84-3.84,1.82-9.64-.53-8.36,4.86l24.55,3.69c2.16,8.77-8.89,14.25-15.78,16.56-23.53,7.89-50.83-2.13-75.58.69-1.33-9.33-8.23-19.62-10.15-27.96-.99-4.28,1.13-7.29-.85-11.18-2.82-5.53-35.84-45.56-40.96-50.04-3.45-3.02-5.43-3.21-7.9.7-5.65,8.99-9.7,15.71-16.32,24.27-3.1,4.01-8.92,7.63-11.29,11.65-3.57,6.06-4.86,15.5-8.9,22.87-18.15,33.1-64.01,32.45-82.44-.62-4.39-7.88-6.13-19.18-11.07-25.98-9.96-13.72-52.77-38.41-68.85-52.92-6-5.41-10.88-11.37-15.96-17.59l-19.71,17.31c-12.95,9.21-43.34,31.49-52.93,7.75-7.85-19.42.05-20.03,6.13-35.13,9.11-22.64,16.65-35.86,33.85-54.39,8.4-9.05,18.42-12.18,26.47-21.18,3.86-4.32,18.23-23.92,19.13-28.64,2.79-14.67-11.22-18.07-16.31-27.04-1.64-2.89-5.35-15.32-5.88-18.82-3.45-22.71,18.28-41.75,40.64-37.11,20.22,4.19,30.28,44.71,29.53,62.24-.28,6.54-5.78,10.36.55,16.2Z"/>
</svg>