<?xml version="1.0" encoding="UTF-8"?>
<svg id="Layer_1" data-name="Layer 1" xmlns="http://www.w3.org/2000/svg" viewBox="0 0 512 512">
  <path d="M258.6,177.86c2.07,12.43,18.1,31,21.35,46.37,2.27,10.73,1.33,39.72-4.19,48.94-3.85,6.42-16.1,8.4-17.17,14.09l-.75,162.49-18.35,1.64-1.74-154.55c-4.67-5.05-11.85,14.77-12.02,18.35-.28,5.79,7.92,30.9,5.07,33.74-9.85,1.89-14.54-7.89-20.4-12.19-3.28-2.41-12.7-4.15-14.05-8.07l-1.79-31.63c.93-1.44,15.82-2.91,19.86-7.06,4.49-4.62,3.32-15.57,6.9-20.89,3.21-4.76,13.28-4.19,12.78-9.33l-25.39-51.12c-.68-5.43-3.87-11.69-4.01-16.97-.27-10.15,6.98-12.33.74-24.91-1.37-2.77-17.54-19.1-19.81-20.13-6.99-3.19-12.6,3.74-20.92-3.4s-4.76-36.76-5.02-48.8c-.14-6.45-4.02-11.04-.17-17.41,4.33-7.17,17.13-3.35,24.41-4.24-1.94-11.45-7.02-22.22,5.26-30.32,16.84-11.11,32.96,5.56,29.47,23.39,8.21,1.27,16.22-4.19,23.58-5.07s11.93,1.71,17.22,1.58c7.88-.18,24.94-7.25,30.34-2.54,2.08,1.82,1.89,5.2,3.41,7,4.25,5.03,27.47,5.25,34.84,5.96v-24.31l20.84,1.74v421.98l-20.84,1.74V84.95l-43.41,1.75c1.91,23.54,10.93,62.32-26.05,55.56,1.27,10.86-1.73,25.25,0,35.6ZM270.38,76.63c-.61-1.1-13.06-8.55-13.46-2.98-.76,10.4,19.65,14.2,13.46,2.98ZM237.48,81.22l1.92-5.66-2.78-2.5-15.06-.33c-10.65,9.94,12.39,10.74,15.91,8.49ZM185.66,86.7c-11.57-1.26-14.47,7.18-13.87,17.35,9.54,1.29,12.67-9.59,13.87-17.35ZM270.77,88.42l-11.41,1.63-.75,20.96c11.88,1.99,12.43-13.78,12.15-22.59Z"/>
</svg>