<?xml version="1.0" encoding="UTF-8"?>
<svg id="Layer_1" data-name="Layer 1" xmlns="http://www.w3.org/2000/svg" viewBox="0 0 512 512">
  <path d="M234.41,354.46c-.15-1.74-1.42-8.63-2.04-9.91-1.95-4.04-9.47-8.39-9.47-12.54s7.66-8.63,9.56-12.31c5.4-10.43-1.6-22.25-1.49-32.6.12-10.86,4.78-22.97,3.3-35.98-2.82-24.77-24.09-44.31-22.35-67.65.54-7.29,3.93-8.03,1.3-16.75-4.41-14.66-18.12-15.1-22.2-28.84-4.45-3.27-18.55,10.23-28.2-.3-16.58-18.1,16.71-34.58,15.53-44.99-1-8.85-18.79-3.23-24.22-3.21-2.06,0-5.72.79-4.34-2.63,2.35-5.82,27.66-8.95,29.04-19.38.89-6.68-3.57-7.22,2.33-16.63,8.27-13.19,22.72-14.47,31.57-1.07,2.56,3.87,6.25,20.17,8.67,20.39,5.86-.56,13.24-7.07,17.71-8.07,7.07-1.57,13.15,3,16.94,2.48,2.48-.34,5.19-6.29,10.01-5.86l66.79,16.89.73-22.55,21.73-1.64v419.73l-20.64,1.63c-3.08-6.96-.05-14.52-.25-19.95-.13-3.46-1.56-6.61-1.65-10.11-3.13-118.74,2.51-237.99.09-356.76l-58.73,3.47c-1.64,1.55,8.98,29.55,9.67,34.51,2.63,19-28.58,7.98-30.24,14.84-.64,2.65,9.13,30.46,11.09,35.24,5.01,12.22,14.11,24.84,18.17,37.1,7.85,23.69,2.74,50.84-9.01,72.31-4.04,7.39-17.72,22.54-18.59,28.04-.72,4.54-.88,25.09.25,28.91,1.49,5.04,12.98,8.75,8.1,16.59l-8.46.16-1.65,90.41c-.89,3.8-15.75,2.85-19.07,2.88-1.95-31.05,2.62-65.18,0-95.87ZM234.41,84.13l-.21-5.83c-1.56-4.68-16.31-3.66-17.06-.18,1.89,7.38,11.45,6.07,17.27,6.01ZM262.04,104.85c.13-5.98,1.37-11.74-4.31-15.5-3.96,3.06-2.82,8.37-2.31,12.65l1.35,2.09,5.27.76Z"/>
</svg>