<?xml version="1.0" encoding="UTF-8"?>
<svg id="Layer_1" data-name="Layer 1" xmlns="http://www.w3.org/2000/svg" viewBox="0 0 512 512">
  <path d="M386.71,404.93l.07-306.23,1.7-3.44,15.41-5.07c-2-3.02-4.57-2.45-7.59-2.68-16.31-1.24-46.98-.62-62.95,2.22-2.33.42-7.3,1.68-8.02,4.06l2.48,14.33c-12.4-20.51-17.12-44.2-25.03-66.45-5.06-1.17-16.7.62-18.32,6.1.75,5.82,2.17,11.55,4,17.23l-15,141.74c-2.6,3.61-7.69,5.45-8.19-.32-.43-5.05,5.82-7.62,7.54-13.06,5.87-18.55,1.54-43.7-23.28-38.66-24.07,4.89-6.22,32.85-10.73,44-1.34,3.3-16.29,19.16-19.67,21.36-6.45,4.18-12.97,2.79-18.72,6.96-.4,6.56,6.74,6.67,6.92,13.55.26,9.58-10.33,22.64-7.38,29.52,6.51,15.19,16.57,12.43,25.25.54,22.93,16.6,6.9,32.21,6.65,52.4-.11,8.74,3.73,16.1,4.39,24.43l-122.02,15.65-9.75,3.95c-2.64,2.59-1.56,9.65,1.3,11.41l34.78,4.99-20.51,87.21,23.92-3.43-5.05-12.56,17.46-69.94,4.23-4.32,103.08-14.08c-.34,10.87,1.91,20.73,1.78,31.74-.06,5.57-2.82,12.13-1.85,17.01,1.09,5.52,6.17,3.61,7.9,5.9,3.66,4.83-6.96,13.15-6.12,13.75,20.42-.17,38.32-14.95,59.86-13.67.87.89-2.04,10.72,2.79,11.74,4.72,1.55,31.21-.34,37.4-1.46,5.1-.91,4.63-6.99,8.85-8.25l34.74-5.46c-4.69-8.25-21.9-1.75-22.32-12.71ZM279.73,187.86l12.02-113.62c4.72,12.23,10.6,24.28,14.71,36.42,4.4,13.01,15.13,49.07,11.98,61.26-.56,2.16-5.89,1.18-5.23,7.07,6.3,9.5,7.46,20.44,6.91,31.75-11.87.5-24.96,3.16-36.86,1.78-2.37-.27-4.75.1-5.66-2.88l2.13-21.78ZM296.19,248.35c-1.95-10.74-2.01-19.75-8.57-29.05l16.01.22c9.24,3.13.61,34.21-7.44,28.83ZM288.19,379.72c-.36,3.39-4.7,20.16-6.18,22.07-.31.4-4.48,2.39-4.64,2.19.68-5.71,2.78-30.38,9.39-30.75,3.3-.19,1.59,5.02,1.43,6.49ZM289.58,295.13c-2.15-3.59-6.69-13.38,1.04-11.34,4.39,1.15,8.19,4.65,13.15,3.96,5.08-.72,8.22-10.01,16.33-6.9l-.35,20.15c-11.44,5.72-22.99,6.08-30.17-5.87ZM320.11,403.98l-25.65,5.11c9.92-15.25,12.82-37.26,25.65-49.58v44.47ZM320.1,267.16c-4.4.68-3.6-.68-3.41-4.24.31-5.92,1.23-14.29,1.92-20.34.22-2,.76-9.38,3.19-9.61l-1.7,34.19ZM338.91,99.57l37.63-1.71v73.54l-17.82-1.7v-50.93c4.43-1.17,18.57-.23,16.1-8.06-1.11-3.51-14.6-3.15-18.04-2.68-5.31.72-6.44,4.54-9.39,4.46-9.18-.23-9.17-4.96-8.48-12.92ZM376.54,185.08v34.2l-16.04-1.6c-.39-.1-1.15-1.7-1.78-3.24v-29.35l1.5-1.3,16.32,1.29ZM354.47,324.47c-2.68-2.7-5.41-5.2,0-4.94v4.94ZM354.31,118.39v50.44c0,4.02-10.86,2.2-13.68.86v-51.3h13.68ZM335.52,210.74l5.1,3.4,1.71-30.78,12.07.77s.05.03.07.05v29.45c-.25.76-.56,1.53-.94,2.3-2.1,3.01-21.21,4.11-18.01-5.19ZM345.87,401.32c-.53-2.7,6.87-28.48,7.9-34.65.19-1.12.43-2.54.7-4.17v38.02c-4.18,2.76-7.82,4.78-8.6.8ZM376.54,326.16v82.95l-6.49-2.05-3.09-11.48c-2-1.26-5.06.17-8.24,2.16v-77.69c5.43.96,10.94,2.74,16.77,2.04l2.38,2.36c.06.7-1.33,1.29-1.33,1.71Z"/>
</svg>